<svg xmlns="http://www.w3.org/2000/svg" viewBox="0 0 296.38 65.9"><defs><style>.cls-1{fill:none;}.cls-1,.cls-2{stroke:#fff;stroke-miterlimit:10;stroke-width:2px;}.cls-2{fill:#fff;}</style></defs><title>Thick Noice White</title><g id="Layer_2" data-name="Layer 2"><g id="Thick_Noice_White" data-name="Thick Noice White"><path class="cls-1" d="M24.13,64H1V1H24.13c21.15,0,30.24,9.45,30.24,31.5S45.28,64,24.13,64ZM23.59,9.64H12.34V55.27H23.59c13.32,0,18.9-6.75,18.9-22.86S36.91,9.64,23.68,9.64Z"/><path class="cls-1" d="M72.46,45.64c.81,8.46,4.32,12.24,11.79,12.24,6,0,9-2.16,10.53-7.65h9.72C102.43,60.49,96.31,64.9,84.25,64.9c-15.48,0-22.14-7-22.14-23.4s6.57-23.4,22-23.4,22.14,7.2,22.14,24v3.51H72.46ZM84.34,25c-7.92,0-11.52,4.23-12,14.22H96.13C96.13,29.17,92.62,25,84.25,25Z"/><path class="cls-2" d="M123.4,30.34c0,10.08,28.08,2.16,28.08,20.16,0,10-5.94,14.31-19.71,14.31-13,0-18.54-4.32-18.54-14.4H123c0,5.67,2.61,8,9.09,8s9.09-2,9.09-6.75c0-11.07-27.63-2.52-27.63-20.16,0-9.36,5.58-13.41,18.54-13.41,12.6,0,18,4,18,13.5h-9.18c0-5-2.52-7.11-8.73-7.11s-8.73,1.71-8.73,5.94Z"/><path class="cls-2" d="M160.84,1H171.1V64H160.84Z"/><path class="cls-2" d="M211.42,59.5c-2.88,3.69-7.56,5.4-14.4,5.4-11.7,0-16.74-4.23-16.74-14,0-10.71,6.3-15.3,21-15.3h9.26V33.4c0-6.3-2.79-8.91-9.35-8.91s-9.36,2.34-9.36,8h-9.72c0-10.08,5.85-14.4,19.43-14.4s19.35,4.95,19.35,16.47V64h-8.1l-1.26-4.41Zm-11.8-2.16c7.3,0,10.63-3.15,11-10.53V42h-9c-7.74.09-11.07,2.43-11.07,8.28C190.54,55.45,193.15,57.34,199.62,57.34Z"/><path class="cls-2" d="M256.5,64.9c-7,0-12-1.89-15.11-5.94L240,64h-8.1V1h10.26V23.23c3.15-3.51,7.92-5.13,14.48-5.13,13.59,0,19.44,7,19.44,23.4s-5.85,23.4-19.44,23.4Zm9.18-23.4c0-10.71-3.51-15.3-11.78-15.3s-11.79,4.59-11.79,15.3,3.51,15.3,11.79,15.3S265.68,52.21,265.68,41.5Z"/><path class="cls-1" d="M288.91,51.85c4.5,0,6.47,2,6.47,6.48s-2,6.48-6.47,6.48-6.3-1.89-6.3-6.39S284.5,52,289,52Z"/></g></g></svg>