<?xml version="1.0" standalone="no"?>
<!DOCTYPE svg PUBLIC "-//W3C//DTD SVG 1.1//EN" "http://www.w3.org/Graphics/SVG/1.1/DTD/svg11.dtd" >
<svg xmlns="http://www.w3.org/2000/svg" xmlns:xlink="http://www.w3.org/1999/xlink" version="1.1">
<metadata>
Created by FontForge 20170731 at Fri Jun 16 02:14:31 2017
 By Aleksey,,,
Copyright (c) 2017 by Alexander Slobzheninov. All rights reserved.
</metadata>
<defs>
<font id="FivoSans-BoldOblique" horiz-adv-x="602" >
  <font-face 
    font-family="Fivo Sans"
    font-weight="700"
    font-style="oblique"
    font-stretch="normal"
    units-per-em="1000"
    panose-1="0 0 0 0 0 0 0 0 0 0"
    ascent="800"
    descent="-200"
    x-height="500"
    cap-height="700"
    bbox="-102 -251 1306.17 960"
    underline-thickness="50"
    underline-position="875"
    unicode-range="U+000D-E133"
  />
<missing-glyph horiz-adv-x="184" 
 />
    <glyph glyph-name=".notdef" horiz-adv-x="184" 
 />
    <glyph glyph-name=".null" horiz-adv-x="0" 
 />
    <glyph glyph-name="nonmarkingreturn" horiz-adv-x="333" 
 />
    <glyph glyph-name="NULL" horiz-adv-x="768" 
d="M188 700h612l-110 -700h-612zM308 569l-70 -439h331l70 439h-331z" />
    <glyph glyph-name="NULL" horiz-adv-x="768" 
d="M188 700h612l-110 -700h-612zM308 569l-70 -439h331l70 439h-331z" />
    <glyph glyph-name="CR" unicode="&#xd;" horiz-adv-x="250" 
 />
    <glyph glyph-name="space" unicode=" " horiz-adv-x="294" 
 />
    <glyph glyph-name="exclam" unicode="!" horiz-adv-x="288" 
d="M169 161h1q45 0 62 -20.5t10 -65.5q-7 -44 -30.5 -64.5t-69.5 -20.5q-45 0 -62.5 20t-10.5 65q8 45 31.5 65.5t68.5 20.5zM177 700h156l-30 -190l-72 -253h-92l8 253z" />
    <glyph glyph-name="quotedbl" unicode="&#x22;" horiz-adv-x="433" 
d="M295 700l-23 -140l-51 -222h-100l19 222l22 140h133zM490 700l-23 -140l-51 -222h-100l19 222l22 140h133z" />
    <glyph glyph-name="numbersign" unicode="#" horiz-adv-x="730" 
d="M370 0l54 179h-110l-54 -179h-108l54 179h-137l16 105h152l32 105h-137l17 105h152l61 206h108l-61 -206h110l61 206h108l-61 -206h141l-17 -105h-156l-32 -105h141l-16 -105h-156l-54 -179h-108zM487 389h-110l-32 -105h110z" />
    <glyph glyph-name="dollar" unicode="$" horiz-adv-x="656" 
d="M254 -100l13 82q-118 9 -165.5 61t-30.5 156h149q-9 -56 19.5 -81t102.5 -25q70 0 104 20.5t42 66.5q4 28 -10 48t-41 31.5t-62.5 22.5t-72.5 20t-71 24.5t-60 35.5t-38 54t-5 79q17 106 78 159.5t177 63.5l13 82h116l-13 -82q113 -10 158 -62t28 -156h-149
q9 56 -17.5 81.5t-94.5 25.5q-65 0 -97 -20t-39 -66q-4 -26 16 -43.5t54.5 -28t76.5 -21t83 -26t73.5 -38t49 -63t7.5 -95.5q-17 -107 -80.5 -160.5t-184.5 -63.5l-13 -82h-116z" />
    <glyph glyph-name="percent" unicode="%" horiz-adv-x="908" 
d="M296 -30h-133l560 760h133zM755 390q92 1 125.5 -46t17.5 -151q-17 -104 -65.5 -151.5t-139.5 -47.5t-125.5 47.5t-17.5 151.5t65.5 151t139.5 46zM707 81h1q35 0 54.5 26.5t28.5 84.5q9 59 -2.5 85t-45.5 26q-35 0 -54.5 -26t-28.5 -85t2 -85t45 -26zM326 710
q92 1 125.5 -46t17.5 -151q-17 -104 -66 -151.5t-140 -47.5t-125 47.5t-17 151.5t65.5 151t139.5 46zM279 401h1q34 0 53.5 26t29.5 85q9 59 -2.5 85t-45.5 26q-35 0 -54.5 -26t-28.5 -85q-10 -58 1 -84.5t46 -26.5z" />
    <glyph glyph-name="ampersand" unicode="&#x26;" horiz-adv-x="791" 
d="M784 0h-190l-46 50q-102 -70 -254 -70q-132 0 -187.5 48.5t-38.5 149.5q11 71 61.5 121.5t130.5 91.5q-56 82 -46 144q16 97 74 140.5t172 43.5q109 0 153 -38t32 -119q-8 -48 -53 -91.5t-136 -92.5q-1 0 28.5 -34.5t59.5 -68.5l30 -34q25 45 44 109h117
q-30 -114 -85 -197zM478 134l-151 177q-90 -55 -99 -110q-9 -56 15 -82t86 -27q1 0 4 0.5t5 0.5q81 3 140 41zM393 452q60 27 91.5 50.5t36.5 53.5q5 34 -12.5 50t-61.5 17q-87 -1 -97 -68q-6 -43 43 -103z" />
    <glyph glyph-name="quotesingle" unicode="'" horiz-adv-x="236" 
d="M295 700l-23 -140l-51 -222h-100l19 222l22 140h133z" />
    <glyph glyph-name="parenleft" unicode="(" horiz-adv-x="286" 
d="M137 -200q-2 8 -14.5 43t-22.5 68.5t-21 93t-10 116.5t11 139q13 86 44.5 167.5t58.5 126.5t59.5 92t36.5 54h117q-3 -5 -35 -53.5t-57.5 -92.5t-55.5 -126t-43 -168q-11 -70 -11.5 -137.5t8.5 -120t18 -89.5t20.5 -71.5t13.5 -41.5h-117z" />
    <glyph glyph-name="parenright" unicode=")" horiz-adv-x="286" 
d="M85 -200h-116q4 7 26.5 41.5t43 71.5t46 90t46.5 120t32 137q9 81 10.5 137t-8.5 111.5t-19.5 87t-21.5 63.5t-14 41h117q2 -10 14.5 -41t23.5 -63.5t22 -87t11 -111.5t-10 -137q-14 -86 -46 -171t-59 -132.5t-61 -99.5t-37 -57z" />
    <glyph glyph-name="asterisk" unicode="*" horiz-adv-x="350" 
d="M204 400l9 61l14 40v4l-4 -2l-35 -27l-57 -30l-24 62l57 30l41 13l2 1l-3 2l-37 13l-47 30l44 62l47 -30l27 -27l4 -3l1 4l-2 40l10 60h68l-10 -60l-14 -40l-1 -4l6 3l35 27l57 30l24 -62l-57 -30l-41 -13l-3 -2l3 -2l37 -13l47 -30l-44 -62l-47 30l-27 27l-4 2v-4l1 -40
l-9 -60h-68z" />
    <glyph glyph-name="plus" unicode="+" horiz-adv-x="592" 
d="M605 313l-18 -114h-202l-31 -199h-116l31 199h-202l18 114h202l30 187h116l-30 -187h202z" />
    <glyph glyph-name="comma" unicode="," horiz-adv-x="228" 
d="M131 161l-2 -1q42 0 60.5 -21.5t17.5 -67.5q0 -19 -5 -47q-16 -105 -62 -152.5t-131 -47.5l11 71q37 0 57 23t28 73q-41 0 -57 20t-9 64q1 9 5 20q17 66 87 66z" />
    <glyph glyph-name="hyphen" unicode="-" horiz-adv-x="402" 
d="M399 209h-330l18 114h330z" />
    <glyph glyph-name="period" unicode="." horiz-adv-x="228" 
d="M139 161h1q45 0 62 -20.5t10 -65.5q-7 -44 -30.5 -64.5t-69.5 -20.5q-45 0 -62.5 20t-10.5 65q8 45 31.5 65.5t68.5 20.5z" />
    <glyph glyph-name="slash" unicode="/" horiz-adv-x="373" 
d="M350 700h133l-350 -700h-133z" />
    <glyph glyph-name="zero" unicode="0" horiz-adv-x="712" 
d="M470 720q166 0 227 -88t30 -282t-120 -282t-255 -88t-227 88t-30 282q31 195 120 282.5t255 87.5zM370 94v-1q84 0 131.5 61t69.5 196q21 135 -7 196t-112 61t-131.5 -60.5t-69.5 -195.5q-21 -135 7 -196t112 -61z" />
    <glyph glyph-name="one" unicode="1" horiz-adv-x="358" 
d="M104 586l18 114h269l-110 -700h-149l92 586h-120z" />
    <glyph glyph-name="two" unicode="2" horiz-adv-x="546" 
d="M241 114l-1 -1h299l-18 -114h-508l15 95q58 46 133.5 100t119 85.5t87 69t65.5 72t28 71.5q10 60 -11 87t-77 27q-55 0 -85 -32.5t-41 -104.5h-149q20 131 89.5 190.5t203.5 59.5t185.5 -54t32.5 -173q-5 -34 -22 -67t-36 -57t-59 -59.5t-67.5 -56.5t-88 -66t-95.5 -72z
" />
    <glyph glyph-name="three" unicode="3" horiz-adv-x="644" 
d="M360 309h-2h-44l17 105h44q68 0 102.5 22t42.5 70q8 53 -16 77t-87 24t-96 -29.5t-43 -96.5h-133q19 126 88.5 183t202.5 57t185 -49t35 -157q-6 -39 -22.5 -68t-35.5 -42.5t-37 -22t-30 -10.5l-12 -1q6 -1 15.5 -2.5t32.5 -12t39.5 -26.5t27 -48.5t3.5 -74.5
q-19 -118 -94.5 -172t-224.5 -54t-206.5 59.5t-36.5 190.5h141q-11 -72 17 -104.5t103 -32.5q71 0 106.5 26.5t44.5 85.5q9 54 -21.5 78.5t-105.5 24.5z" />
    <glyph glyph-name="four" unicode="4" horiz-adv-x="598" 
d="M597 700h1h25l-66 -417h70l-18 -114h-70l-26 -169h-149l26 169h-352l13 81l8 51l397 399h18h123zM189 283h220l43 267z" />
    <glyph glyph-name="five" unicode="5" horiz-adv-x="662" 
d="M368 586h-3l-43 -131q51 24 126 24q129 0 178 -59.5t29 -190.5q-21 -131 -99 -190.5t-229 -59.5q-126 0 -178.5 52t-42.5 168h133q-1 -56 26.5 -81.5t88.5 -25.5q70 0 106.5 32.5t47.5 104.5t-14.5 104.5t-93.5 32.5q-54 0 -84 -17t-46 -56h-125l133 407h404l-18 -114
h-296z" />
    <glyph glyph-name="six" unicode="6" horiz-adv-x="634" 
d="M93 340h-1q31 199 113 289.5t231 90.5q112 0 164 -47.5t57 -152.5h-141q-5 50 -28 72.5t-69 22.5q-71 0 -110.5 -50t-57.5 -163q1 3 4 8.5t15 19t28.5 23.5t47.5 18.5t69 8.5q134 0 185.5 -59.5t30.5 -190.5t-95.5 -190.5t-217.5 -59.5q-151 0 -203 85t-22 275zM378 366
v-1q-64 0 -98.5 -32.5t-45.5 -104.5q-11 -71 13 -103.5t88 -32.5q65 0 100 32.5t46 104.5t-13.5 104.5t-89.5 32.5z" />
    <glyph glyph-name="seven" unicode="7" horiz-adv-x="516" 
d="M599 605l-395 -605h-157l391 586h-334l18 114h492z" />
    <glyph glyph-name="eight" unicode="8" horiz-adv-x="664" 
d="M151 514q17 108 87.5 157t208.5 49t192.5 -49t37.5 -157q-16 -103 -99 -146q98 -43 79 -172q-19 -114 -96.5 -165.5t-231.5 -51.5t-215.5 51.5t-42.5 165.5q19 128 133 172q-70 42 -53 146zM346 93v1q75 0 113.5 25.5t46.5 81.5q10 57 -20 82.5t-106 25.5t-113 -25
t-47 -83q-9 -56 21 -82t105 -26zM428 607q-64 0 -97 -23t-41 -73q-7 -52 17.5 -74t89.5 -22t97.5 22.5t39.5 73.5q8 50 -17 73t-89 23z" />
    <glyph glyph-name="nine" unicode="9" horiz-adv-x="634" 
d="M651 360h1q-32 -200 -114 -290t-230 -90q-112 0 -164 47.5t-57 152.5h141q4 -50 27 -72.5t70 -22.5q71 0 110.5 50t57.5 163q-1 -3 -4 -8.5t-15 -19t-28.5 -23.5t-47.5 -18.5t-69 -8.5q-134 0 -185.5 59.5t-30.5 190.5t95.5 190.5t217.5 59.5q151 0 203 -85t22 -275z
M365 334l1 1q64 0 98.5 32.5t45.5 104.5q11 71 -13 103.5t-88 32.5q-65 0 -100 -32.5t-46 -104.5t13 -104.5t89 -32.5z" />
    <glyph glyph-name="colon" unicode=":" horiz-adv-x="276" 
d="M163 161h1q45 0 62 -20.5t10 -65.5q-7 -44 -30.5 -64.5t-69.5 -20.5q-45 0 -62.5 20t-10.5 65q8 45 31.5 65.5t68.5 20.5zM218 502h1q45 0 62 -20.5t10 -65.5q-7 -44 -30.5 -64.5t-69.5 -20.5q-45 0 -62.5 20t-10.5 65q8 45 31.5 65.5t68.5 20.5z" />
    <glyph glyph-name="semicolon" unicode=";" horiz-adv-x="276" 
d="M217 502h1q45 0 62 -20.5t10 -65.5q-7 -44 -30.5 -64.5t-69.5 -20.5q-45 0 -62.5 20t-10.5 65q8 45 31.5 65.5t68.5 20.5zM156 161l-2 -1q42 0 60.5 -21.5t17.5 -67.5q0 -19 -5 -47q-16 -105 -62 -152.5t-131 -47.5l11 71q37 0 57 23t28 73q-41 0 -57 20t-9 64q1 9 5 20
q17 66 87 66z" />
    <glyph glyph-name="less" unicode="&#x3c;" horiz-adv-x="508" 
d="M88 329v2l427 171l-22 -140l-276 -110l241 -110l-22 -140l-373 171l3 17l19 122z" />
    <glyph glyph-name="equal" unicode="=" horiz-adv-x="664" 
d="M659 224l-18 -114h-584l18 114h584zM690 419l-18 -114h-584l18 114h584z" />
    <glyph glyph-name="greater" unicode="&#x3e;" horiz-adv-x="504" 
d="M147 500v-2l372 -171l-2 -17l-20 -122l-2 -17l-427 -171l22 140l275 110l-240 110l22 138h-1z" />
    <glyph glyph-name="question" unicode="?" horiz-adv-x="548" 
d="M287 161h1q45 0 62 -20.5t10 -65.5q-7 -44 -30.5 -64.5t-69.5 -20.5q-45 0 -62.5 20t-10.5 65q8 45 31.5 65.5t68.5 20.5zM239 253q9 57 32 96t50.5 58t54 34t47 36t25.5 53q7 40 -13.5 58t-71.5 18t-78 -27.5t-37 -88.5h-141q19 121 86.5 175.5t196.5 54.5t180 -45
t35 -145q-6 -36 -21 -64t-35 -44.5t-43 -30t-46 -25.5t-43 -25.5t-34 -36t-19 -51.5h-125z" />
    <glyph glyph-name="at" unicode="@" horiz-adv-x="890" 
d="M714 460l-42 -270q-13 -82 31 -82q28 0 46 33.5t30 108.5q26 163 -31 236t-209 73q-161 0 -244.5 -73t-108.5 -236q-25 -157 25 -228t185 -71q93 0 168 49l-17 -106q-19 -13 -64.5 -26.5t-102.5 -13.5q-192 -1 -264 93t-39 303q34 213 147 309.5t330 96.5
q209 0 289 -96.5t46 -309.5q-19 -119 -67.5 -174.5t-130.5 -55.5q-105 0 -130 67q-51 -47 -146 -47q-98 0 -134.5 50t-19.5 160q18 115 71 167.5t152 52.5q80 0 121 -55l27 45h82zM452 128l-1 -1q49 0 75.5 28.5t37.5 93.5t-7 94.5t-67 29.5q-50 0 -77.5 -29t-37.5 -94
q-10 -64 8 -93t69 -29z" />
    <glyph glyph-name="A" unicode="A" horiz-adv-x="696" 
d="M511 0l-19 140h-250l-65 -140h-165l339 700h230l103 -700h-173zM435 557l-141 -303h182z" />
    <glyph glyph-name="B" unicode="B" horiz-adv-x="694" 
d="M591 370v-1q2 0 13 -4t28 -16t31 -29t22 -47.5t2 -66.5q-17 -109 -89.5 -158t-214.5 -49h-306l111 700h298q130 0 182 -44.5t37 -142.5q-5 -32 -19 -59t-29 -41.5t-31 -24.5t-24.5 -13.5t-10.5 -3.5zM377 113v-1q64 0 96.5 22.5t39.5 71.5q8 53 -16.5 77.5t-88.5 24.5
h-117l-31 -195h117zM335 585l-27 -172h109q52 0 79 21.5t34 68.5q7 44 -13.5 63t-72.5 19h-109z" />
    <glyph glyph-name="C" unicode="C" horiz-adv-x="766" 
d="M599 237h164q-52 -135 -140 -196t-230 -61q-187 0 -257.5 88t-39.5 282t129.5 282t285.5 88q153 0 221 -61t68 -196h-165q-5 67 -38.5 96.5t-106.5 29.5q-96 0 -148.5 -56.5t-72.5 -182.5t14.5 -182.5t130.5 -56.5q70 0 113.5 29.5t71.5 96.5z" />
    <glyph glyph-name="D" unicode="D" horiz-adv-x="740" 
d="M755 350q-29 -184 -124.5 -267t-278.5 -83h-274l110 700h274q183 0 252.5 -83t40.5 -267zM435 578h-102l-72 -456h102q97 0 149 54t71 174t-16 174t-132 54z" />
    <glyph glyph-name="E" unicode="E" horiz-adv-x="608" 
d="M673 578v-1h-340l-25 -155h300l-19 -122h-300l-28 -178h340l-19 -122h-504l110 700h504z" />
    <glyph glyph-name="F" unicode="F" horiz-adv-x="598" 
d="M673 578l1 -1h-340l-25 -155h300l-19 -122h-300l-47 -300h-165l110 700h504z" />
    <glyph glyph-name="G" unicode="G" horiz-adv-x="776" 
d="M443 290h1l18 113h338l-8 -54q-31 -194 -125 -282t-272 -88q-188 0 -259 88t-40 282t129.5 282t286.5 88q147 0 216 -57t74 -183h-157q-4 58 -40.5 83.5t-112.5 25.5q-98 0 -151.5 -56.5t-72.5 -182.5q-20 -126 14.5 -182.5t132.5 -56.5q96 0 145.5 42.5t64.5 137.5h-181
v-1z" />
    <glyph glyph-name="H" unicode="H" horiz-adv-x="752" 
d="M620 700h165l-110 -700h-165l48 309h-267l-48 -309h-165l110 700h165l-41 -260h267z" />
    <glyph glyph-name="I" unicode="I" horiz-adv-x="320" 
d="M188 700h165l-110 -700h-165z" />
    <glyph glyph-name="J" unicode="J" horiz-adv-x="574" 
d="M45 210h-2l5 36h157l-5 -36q-8 -53 7.5 -76t58.5 -23q44 0 67 23.5t31 75.5l77 490h165l-77 -490q-19 -116 -85.5 -168.5t-195.5 -52.5q-125 0 -173.5 52.5t-29.5 168.5z" />
    <glyph glyph-name="K" unicode="K" horiz-adv-x="704" 
d="M353 700l-43 -273l280 273h199l-349 -340l259 -360h-199l-211 293l-46 -293h-165l110 700h165z" />
    <glyph glyph-name="L" unicode="L" horiz-adv-x="558" 
d="M562 131l-21 -131h-464l110 700h165l-90 -569h300z" />
    <glyph glyph-name="M" unicode="M" horiz-adv-x="928" 
d="M235 0h-156l110 700h90h67h66l94 -466l240 466h58h67h90l-110 -700h-157l77 489l-238 -449l-19 -40h-100l-4 27l-98 462z" />
    <glyph glyph-name="N" unicode="N" horiz-adv-x="768" 
d="M644 700h157l-110 -700h-191l-189 484l-76 -484h-157l110 700h191l189 -484z" />
    <glyph glyph-name="O" unicode="O" horiz-adv-x="796" 
d="M512 720q188 0 259 -88t40 -282t-130 -282t-287 -88t-259 88t-40 282t130 282t287 88zM491 589q-97 0 -150 -56.5t-73 -182.5t14.5 -182.5t132.5 -56.5q97 0 150 56.5t73 182.5t-14.5 182.5t-132.5 56.5z" />
    <glyph glyph-name="P" unicode="P" horiz-adv-x="680" 
d="M728 473h1q-15 -100 -91.5 -163.5t-212.5 -63.5h-144l-38 -246h-165l110 700h308q136 0 192 -63.5t40 -163.5zM564 473q8 49 -15.5 77t-78.5 28h-135l-33 -210h135q110 0 127 105z" />
    <glyph glyph-name="Q" unicode="Q" horiz-adv-x="796" 
d="M512 720q188 0 259 -88t40 -282q-33 -210 -148 -297l81 -123h-150l-45 68q-67 -18 -155 -18q-188 0 -259 88t-40 282t130 282t287 88zM491 589q-97 0 -150 -56.5t-73 -182.5t14.5 -182.5t132.5 -56.5q29 0 56 6l-103 154h150l59 -89q43 56 61 168q20 126 -14.5 182.5
t-132.5 56.5z" />
    <glyph glyph-name="R" unicode="R" horiz-adv-x="716" 
d="M407 254h-123l-40 -254h-165l110 700h320q136 0 192 -63.5t40 -163.5q-24 -157 -175 -202l114 -271h-173zM302 368h147q110 0 127 105q8 49 -15.5 77t-78.5 28h-147z" />
    <glyph glyph-name="S" unicode="S" horiz-adv-x="656" 
d="M288 520v-2q-5 -29 22 -49t71 -29.5t94.5 -26t93 -37.5t66 -65.5t13.5 -107.5q-19 -119 -96 -172.5t-228 -53.5q-152 0 -212 52.5t-41 167.5h149q-9 -56 19.5 -81t102.5 -25q70 0 104 20.5t42 66.5q5 31 -14.5 52.5t-53.5 34t-76 23.5t-83.5 25.5t-74.5 34.5t-49.5 57
t-8.5 88q19 119 93 172.5t220 53.5t204 -52t40 -168h-149q8 56 -18.5 81.5t-94.5 25.5q-64 0 -95.5 -20t-39.5 -66z" />
    <glyph glyph-name="T" unicode="T" horiz-adv-x="608" 
d="M702 700h1l-22 -139h-206l-88 -561h-165l88 561h-206l22 139h576z" />
    <glyph glyph-name="U" unicode="U" horiz-adv-x="732" 
d="M109 259l67 441h165l-69 -441q-13 -78 13 -113t97 -35t108 35t50 113l69 441h165l-69 -441q-23 -146 -104.5 -212.5t-238.5 -66.5t-216.5 66.5t-36.5 212.5z" />
    <glyph glyph-name="V" unicode="V" horiz-adv-x="688" 
d="M287 700l74 -589l260 589h165l-323 -700h-238l-103 700h165z" />
    <glyph glyph-name="W" unicode="W" horiz-adv-x="1000" 
d="M511 700h2h197l18 -542l204 542h165l-281 -700h-214l-23 538l-180 -538h-214l-61 700h165l34 -541z" />
    <glyph glyph-name="X" unicode="X" horiz-adv-x="692" 
d="M314 700l105 -243l185 243h174l-267 -340l167 -360h-182l-110 262l-199 -262h-174l275 360l-155 340h181z" />
    <glyph glyph-name="Y" unicode="Y" horiz-adv-x="665" 
d="M457 266h1l-42 -266h-157l42 266l-180 434h181l101 -279l189 279h173z" />
    <glyph glyph-name="Z" unicode="Z" horiz-adv-x="592" 
d="M224 122h374l-19 -122h-564l16 104l439 474h-354l19 122h544l-16 -104z" />
    <glyph glyph-name="bracketleft" unicode="[" horiz-adv-x="312" 
d="M188 700l1 1h235l-19 -114h-110l-106 -673h110l-18 -114h-235z" />
    <glyph glyph-name="backslash" unicode="\" horiz-adv-x="373" 
d="M110 700h133l130 -700h-133z" />
    <glyph glyph-name="bracketright" unicode="]" horiz-adv-x="313" 
d="M110 700v-1h235l-142 -900h-234l18 114h109l106 673h-110z" />
    <glyph glyph-name="asciicircum" unicode="^" horiz-adv-x="492" 
d="M426 670l87 -350h-117l-62 248l-140 -248h-117l199 350h34h83h33z" />
    <glyph glyph-name="underscore" unicode="_" horiz-adv-x="504" 
d="M512 0l-19 -114h-519l18 114h520z" />
    <glyph glyph-name="grave" unicode="`" horiz-adv-x="302" 
d="M288 700l73 -150h-117l-106 150h150z" />
    <glyph glyph-name="a" unicode="a" horiz-adv-x="552" 
d="M376 42h-1q-55 -52 -162 -52q-99 0 -137.5 38t-25.5 121q14 89 78 129.5t192 40.5h86l3 21q7 43 -10 62.5t-61 19.5t-66 -17t-28 -55h-141q14 84 73.5 122t179.5 38q119 0 166.5 -44.5t32.5 -142.5l-51 -323h-116zM199 157l2 1q-6 -34 10 -48t59 -14q49 0 75.5 22
t37.5 71q1 4 3 18l4 24h-65h-17q-52 -2 -77 -18.5t-32 -55.5z" />
    <glyph glyph-name="b" unicode="b" 
d="M354 -10h-1q-110 0 -152 57l-27 -47h-116l20 128l90 572h149l-37 -235q58 45 156 45q115 0 157 -61.5t20 -198.5t-83 -198.5t-176 -61.5zM331 104q58 0 89.5 34.5t43.5 111.5t-8.5 111.5t-78.5 34.5t-89.5 -34.5t-43.5 -111.5t8.5 -111.5t78.5 -34.5z" />
    <glyph glyph-name="c" unicode="c" horiz-adv-x="572" 
d="M425 186v2h149q-27 -103 -93.5 -149.5t-185.5 -46.5q-141 0 -194.5 61.5t-32.5 198.5q22 136 95.5 198t214.5 62q119 0 170.5 -46.5t46.5 -149.5h-149q-1 43 -22.5 62t-65.5 19q-63 0 -97 -34.5t-46 -111.5t11 -112t86 -35q83 0 113 82z" />
    <glyph glyph-name="d" unicode="d" 
d="M244 -10h-1q-115 0 -157 61.5t-20 198.5t83 198.5t176 61.5q98 0 142 -45l37 235h149l-90 -572l-20 -128h-116l-13 47q-60 -57 -170 -57zM301 104q58 0 89.5 34.5t43.5 111.5t-8.5 111.5t-78.5 34.5t-89.5 -34.5t-43.5 -111.5t8.5 -111.5t78.5 -34.5z" />
    <glyph glyph-name="e" unicode="e" horiz-adv-x="572" 
d="M207 201q-2 -60 20 -87.5t72 -27.5q42 0 67 16.5t41 54.5h141q-30 -88 -92.5 -127.5t-171.5 -39.5q-136 0 -187.5 61.5t-29.5 198.5t92.5 198.5t206.5 61.5t187.5 -62.5t29.5 -200.5l-8 -46h-368zM351 413q-52 0 -83 -29.5t-47 -93.5h220q10 65 -11 94t-79 29z" />
    <glyph glyph-name="f" unicode="f" horiz-adv-x="404" 
d="M388 586l1 -1q-46 0 -52 -40l-7 -46h144l-16 -97h-144l-64 -403h-149l64 403h-84l16 97h84l7 46q11 73 58 114t120 41h138l-18 -114h-98z" />
    <glyph glyph-name="g" unicode="g" 
d="M244 -10v-1q-115 0 -157 61.5t-20 198.5t83 198.5t176 61.5q110 0 154 -57l27 48h116l-72 -450q-21 -136 -92.5 -198t-207.5 -62q-112 0 -162 39.5t-49 127.5h141q2 -38 20 -54.5t57 -16.5q62 0 95.5 32.5t44.5 104.5l2 12q-58 -45 -156 -45zM302 103v1q58 0 89 34.5
t43 111.5t-8 111.5t-78 34.5t-89 -34.5t-43 -111.5t8 -112t78 -35z" />
    <glyph glyph-name="h" unicode="h" horiz-adv-x="582" 
d="M59 0l110 700h149l-36 -227q53 37 138 37q103 0 140.5 -57t17.5 -183l-42 -270h-149l42 270q10 67 -5.5 96.5t-62.5 29.5q-49 0 -75.5 -29.5t-36.5 -96.5l-42 -270h-148z" />
    <glyph glyph-name="i" unicode="i" horiz-adv-x="272" 
d="M210 0h-149l79 500h149zM249 724h1q45 0 62.5 -19t10.5 -62t-30 -62t-69 -19q-45 0 -63 19t-11 62t30.5 62t68.5 19z" />
    <glyph glyph-name="j" unicode="j" horiz-adv-x="276" 
d="M-6 -66v1q29 0 47.5 15.5t22.5 41.5l81 509h149l-83 -526q-12 -73 -59 -114t-120 -41h-134l18 114h78zM254 726h1q45 0 63 -19t11 -62t-30.5 -62t-69.5 -19q-45 0 -62.5 19t-10.5 62t30 62t68 19z" />
    <glyph glyph-name="k" unicode="k" horiz-adv-x="575" 
d="M316 700l-62 -393l205 193h175l-254 -240l195 -260h-175l-161 213l-33 -213h-149l110 700h149z" />
    <glyph glyph-name="l" unicode="l" horiz-adv-x="264" 
d="M58 0l110 700h149l-110 -700h-149z" />
    <glyph glyph-name="m" unicode="m" horiz-adv-x="862" 
d="M248 270l2 -1l-43 -270h-149l80 500h116l14 -55q51 65 147 65q103 0 132 -70q55 70 164 70q97 0 131.5 -57t14.5 -183l-43 -270h-149l43 270q10 66 -3 96t-53 30q-43 0 -66.5 -30t-33.5 -96l-43 -270h-149l43 270q11 67 -2 97t-53 30q-43 0 -66.5 -30t-33.5 -96z" />
    <glyph glyph-name="n" unicode="n" horiz-adv-x="582" 
d="M253 500v-1l11 -40q57 50 155 50q103 0 140.5 -57t17.5 -183l-43 -270h-149l43 270q11 67 -5.5 97t-62.5 30q-49 0 -75 -30t-36 -96l-42 -270h-149l79 500h116z" />
    <glyph glyph-name="o" unicode="o" horiz-adv-x="592" 
d="M376 510q141 0 195 -61.5t32 -198.5t-95 -198.5t-214 -61.5t-195 61.5t-32 198.5t95 198.5t214 61.5zM215 250l-1 -1q-12 -77 11 -112t86 -35t96.5 35t45.5 112t-10.5 112t-85.5 35t-96.5 -34.5t-45.5 -111.5z" />
    <glyph glyph-name="p" unicode="p" 
d="M436 510h1q115 0 157 -61.5t20 -198.5t-83 -198.5t-176 -61.5q-98 0 -142 45l-37 -235h-149l90 572l21 128h116l12 -47q60 57 170 57zM379 396q-58 0 -89.5 -34.5t-43.5 -111.5t8.5 -111.5t78.5 -34.5t89.5 34.5t43.5 111.5t-8.5 111.5t-78.5 34.5z" />
    <glyph glyph-name="q" unicode="q" 
d="M326 510h1q110 0 152 -57l28 47h116l-21 -128l-90 -572h-149l37 235q-58 -45 -156 -45q-115 0 -157 61.5t-20 198.5t83 198.5t176 61.5zM349 396q-58 0 -89.5 -34.5t-43.5 -111.5t8.5 -111.5t78.5 -34.5t89.5 34.5t43.5 111.5t-8.5 111.5t-78.5 34.5z" />
    <glyph glyph-name="r" unicode="r" horiz-adv-x="404" 
d="M245 250l1 1l-39 -250h-149l79 500h116l14 -46q53 56 127 56h72l-20 -131h-72q-63 0 -90 -27t-39 -103z" />
    <glyph glyph-name="s" unicode="s" horiz-adv-x="504" 
d="M228 371h3q-3 -21 17.5 -34.5t54 -18.5t71.5 -15t69.5 -23.5t49.5 -45.5t10 -79q-14 -87 -75.5 -126.5t-183.5 -39.5q-113 0 -158.5 38t-32.5 122h141q-6 -38 10 -55t58 -17t63 14.5t25 46.5q5 28 -23.5 42.5t-71 21.5t-84.5 19t-67.5 45t-16.5 88q13 82 70 119t172 37
q110 0 154.5 -35.5t32.5 -114.5h-133q5 33 -11.5 47.5t-57.5 14.5q-78 0 -86 -51z" />
    <glyph glyph-name="t" unicode="t" horiz-adv-x="414" 
d="M272 171l-2 -1q-4 -26 10 -41.5t43 -15.5h82l-18 -114h-138q-73 0 -106.5 41t-22.5 114l39 249h-80l16 97h80l20 127h149l-20 -127h144l-16 -97h-144z" />
    <glyph glyph-name="u" unicode="u" horiz-adv-x="582" 
d="M408 0h-1l-12 40q-56 -50 -154 -50q-103 0 -140.5 57t-17.5 183l43 270h149l-43 -270q-11 -67 5.5 -97t62.5 -30q49 1 75 31t36 96l43 270h149l-79 -500h-116z" />
    <glyph glyph-name="v" unicode="v" horiz-adv-x="528" 
d="M283 102l167 398h157l-232 -500h-222l-74 500h157z" />
    <glyph glyph-name="w" unicode="w" horiz-adv-x="840" 
d="M685 0h-181l-21 393l-145 -393h-181h-1l-69 500h149l35 -381l142 381h181l14 -379l155 379h149z" />
    <glyph glyph-name="x" unicode="x" horiz-adv-x="512" 
d="M246 500h1l64 -153l114 153h158l-193 -240l124 -260h-158l-72 172l-126 -172h-158l206 260l-117 240h157z" />
    <glyph glyph-name="y" unicode="y" horiz-adv-x="516" 
d="M212 1v1l6 11l-139 487h141l82 -311l152 311h141l-246 -484q-28 -54 -35 -66q-41 -69 -89.5 -100t-115.5 -31h-72l15 97h64h6q28 2 45.5 17t44.5 68z" />
    <glyph glyph-name="z" unicode="z" horiz-adv-x="476" 
d="M207 105h270l-16 -105h-444l13 87l309 308h-250l17 105h424l-14 -87z" />
    <glyph glyph-name="braceleft" unicode="{" horiz-adv-x="366" 
d="M218 -29v1q-5 -30 6 -43.5t39 -13.5h90l-18 -114h-88q-95 0 -132 37.5t-24 120.5l29 184q5 34 -8.5 49t-48.5 15l16 97q35 0 53.5 15t23.5 49l28 175q14 83 62.5 120t142.5 37h88l-18 -114l-90 -1q-29 0 -44 -13.5t-19 -43.5l-24 -150q-14 -96 -77 -123q54 -27 38 -124z
" />
    <glyph glyph-name="bar" unicode="|" horiz-adv-x="280" 
d="M188 700h125l-142 -900h-125z" />
    <glyph glyph-name="braceright" unicode="}" horiz-adv-x="366" 
d="M139 -29v-2l25 160q16 97 78 124q-55 27 -39 123l24 150q5 30 -6 43.5t-39 13.5l-90 1l18 114h88q95 0 132 -37.5t24 -119.5l-28 -175q-5 -34 8.5 -49t48.5 -15l-15 -97q-35 0 -53.5 -15t-23.5 -49l-29 -184q-14 -83 -63 -120t-143 -37h-87l18 114h89q29 0 44 13.5
t19 43.5z" />
    <glyph glyph-name="asciitilde" unicode="~" horiz-adv-x="672" 
d="M68 207v1l17 106q47 40 95 52.5t89.5 2t83 -30t82 -39.5t80 -31t83.5 -1t87 47l-17 -106q-47 -40 -95 -52.5t-89.5 -2.5t-83 29t-82 39t-80 31.5t-83.5 1.5t-87 -47z" />
    <glyph glyph-name="space_" unicode="&#xa0;" horiz-adv-x="294" 
 />
    <glyph glyph-name="exclamdown" unicode="&#xa1;" horiz-adv-x="288" 
d="M196 -200h-156l30 190l72 253h92l-8 -253zM198 338h-1q-45 0 -62 20.5t-10 65.5t30.5 65t68.5 20q46 0 63.5 -20.5t10.5 -64.5q-8 -45 -31.5 -65.5t-68.5 -20.5z" />
    <glyph glyph-name="cent" unicode="&#xa2;" horiz-adv-x="572" 
d="M222 -99v1l14 91q-107 12 -147.5 74t-21.5 184q20 122 80 184t171 74l13 83h116l-13 -83q87 -10 125.5 -56.5t34.5 -136.5h-149q-1 43 -22.5 62t-65.5 19q-63 0 -97 -34.5t-46 -111.5t11 -112t86 -35q83 0 113 82h149q-24 -90 -77 -136.5t-144 -56.5l-14 -92h-116z" />
    <glyph glyph-name="sterling" unicode="&#xa3;" horiz-adv-x="656" 
d="M651 122v-1l-20 -122h-586l23 141q70 25 93 77q13 22 21 71l2 9h-90l18 114h90l13 87q17 113 80 165t185 54q31 0 46 -1q98 -7 135 -59.5t20 -158.5h-141q10 61 -6.5 88t-62.5 27h-9q-43 -1 -66.5 -28t-32.5 -86q-7 -41 -14 -87h238l-18 -114h-238l-2 -9q-6 -41 -20 -69
q-26 -67 -111 -98h453z" />
    <glyph glyph-name="currency" unicode="&#xa4;" horiz-adv-x="632" 
d="M664 476h-2l-57 -50q34 -62 16 -176q-18 -115 -72 -176l41 -50l-87 -78l-53 64q-57 -19 -138 -19t-132 19l-73 -64l-63 78l57 50q-34 62 -16 176q18 115 72 176l-41 50l87 79l53 -64q57 19 139 19t133 -19l73 64zM233 250l-1 -1q-12 -77 11 -112t86 -35t96.5 35t45.5 112
t-10.5 112t-85.5 35t-96.5 -34.5t-45.5 -111.5z" />
    <glyph glyph-name="yen" unicode="&#xa5;" horiz-adv-x="708" 
d="M478 266h1l-9 -53h204l-16 -105h-204l-17 -108h-157l17 108h-212l16 105h212l9 53l-14 33h-193l16 105h133l-122 296h181l101 -279l189 279h173l-211 -296h128l-16 -105h-186z" />
    <glyph glyph-name="section" unicode="&#xa7;" horiz-adv-x="644" 
d="M314 533l-1 3q-4 -25 14 -43t49.5 -28t69.5 -19.5t76 -24t67.5 -35t44.5 -57t7 -86.5q-18 -111 -101 -153q21 -38 12 -94q-18 -113 -85 -163.5t-197 -50.5q-119 0 -164.5 52.5t-26.5 167.5h125q-9 -56 11 -81.5t74 -25.5q52 0 78 17.5t33 57.5q5 29 -12.5 48t-48 29.5
t-68 19.5t-74.5 21.5t-66.5 31.5t-44 54.5t-6.5 85.5q18 111 109 149q-29 45 -19 108q17 107 79.5 155.5t183.5 48.5q118 0 162.5 -52t26.5 -168h-125q9 56 -10 81t-72 25q-47 0 -71 -17.5t-30 -56.5zM286 343h-1q-56 -13 -63 -64q-5 -34 26.5 -52.5t101.5 -35t102 -30.5
q37 18 44 66q3 20 -7 35t-34 25.5t-48.5 18t-60.5 18t-60 19.5z" />
    <glyph glyph-name="dieresis" unicode="&#xa8;" horiz-adv-x="445" 
d="M226 710h1q45 0 62 -20.5t10 -65.5q-7 -44 -30.5 -64.5t-69.5 -20.5q-45 0 -62.5 20t-10.5 65q8 45 31.5 65.5t68.5 20.5zM443 710h1q45 0 62 -20.5t10 -65.5q-7 -44 -30.5 -64.5t-69.5 -20.5q-45 0 -62.5 20t-10.5 65q8 45 31.5 65.5t68.5 20.5z" />
    <glyph glyph-name="copyright" unicode="&#xa9;" horiz-adv-x="852" 
d="M538 719q203 0 281 -88t47 -282t-136.5 -282t-308.5 -88q-202 0 -280 88t-47 282t136.5 282t307.5 88zM437 76l-1 1q150 0 228.5 65t100.5 208t-35.5 208t-207.5 65t-227.5 -65t-100.5 -209q-22 -143 35.5 -208t207.5 -65zM513 550l-2 -1q98 0 141 -38t39 -122h-116
q-2 38 -20 55t-57 17q-48 0 -74 -26.5t-35 -85.5q-9 -58 6.5 -84t60.5 -27h7q39 0 63 17t39 55h116q-24 -84 -79 -122t-153 -38q-109 0 -151 47.5t-25 152.5t74 152.5t166 47.5z" />
    <glyph glyph-name="guillemotleft" unicode="&#xab;" horiz-adv-x="535" 
d="M226 450h141l-149 -190l87 -200h-141l-95 200zM428 450h141l-149 -190l87 -200h-141l-95 200z" />
    <glyph glyph-name="logicalnot" unicode="&#xac;" 
d="M607 323l-39 -244h-116l21 130h-404l18 114h520z" />
    <glyph glyph-name="registered" unicode="&#xae;" horiz-adv-x="852" 
d="M540 720q202 0 280 -88t47 -282t-136.5 -282t-308.5 -88q-202 0 -280 88t-47 282t136.5 282t308.5 88zM437 77v-1q151 0 228.5 65t100.5 209t-34.5 209t-208.5 65t-228.5 -64.5t-100.5 -208.5t34.5 -209t208.5 -65zM537 170v1l-56 123h-73l-19 -123h-91l56 360h178
q81 0 113 -28.5t22 -90.5q-15 -89 -96 -110l67 -132h-101zM519 458h-86l-15 -95h86q33 0 49 11t20 36t-8.5 36.5t-45.5 11.5z" />
    <glyph glyph-name="macron" unicode="&#xaf;" horiz-adv-x="412" 
d="M123 553l14 88h340l-14 -88h-340z" />
    <glyph glyph-name="degree" unicode="&#xb0;" horiz-adv-x="436" 
d="M110 520q16 100 68 145t152 45t138 -45t22 -145t-68 -145t-152 -45t-138 45t-22 145zM202 520q-9 -54 10.5 -78t71.5 -24t78.5 24t35.5 78q8 54 -11 78t-71 24t-79 -24t-35 -78z" />
    <glyph glyph-name="plusminus" unicode="&#xb1;" horiz-adv-x="592" 
d="M36 0l18 114h520l-18 -114h-520zM618 394l-18 -114h-202l-19 -118h-116l19 118h-202l18 114h202l17 106h116l-17 -106h202z" />
    <glyph glyph-name="acute" unicode="&#xb4;" horiz-adv-x="306" 
d="M115 550l120 150h150l-152 -150h-118z" />
    <glyph glyph-name="paragraph" unicode="&#xb6;" horiz-adv-x="780" 
d="M758 586l-123 -786h-125l124 786h-163l-124 -786h-125l79 500q-112 0 -155.5 47.5t-26.5 152.5t83.5 152.5t197.5 47.5h470l-18 -114h-94z" />
    <glyph glyph-name="periodcentered" unicode="&#xb7;" horiz-adv-x="228" 
d="M168 341h1q45 0 62 -20.5t10 -65.5q-7 -44 -31 -64.5t-70 -20.5q-45 0 -62 20t-10 65t31 65.5t69 20.5z" />
    <glyph glyph-name="cedilla" unicode="&#xb8;" horiz-adv-x="262" 
d="M88 34v-2h77l-35 -84l10 -2.5t21 -8.5t26 -16t18.5 -25.5t4.5 -36.5q-8 -52 -66.5 -81t-155.5 -29l10 63q97 0 104 48q3 18 -19.5 27t-54.5 9z" />
    <glyph glyph-name="guillemotright" unicode="&#xbb;" horiz-adv-x="537" 
d="M107 450h141l99 -190l-161 -200h-141l153 200zM309 450h141l99 -190l-161 -200h-141l153 200z" />
    <glyph glyph-name="questiondown" unicode="&#xbf;" horiz-adv-x="548" 
d="M389 247q-9 -57 -32.5 -96t-51 -58t-54 -34t-47 -36t-25.5 -53q-7 -40 13.5 -58t71.5 -18t78 27.5t37 88.5h141q-19 -121 -86 -175.5t-196 -54.5t-180.5 45t-35.5 145q8 50 33.5 83.5t57.5 51t63.5 33t56 42.5t31.5 67h125zM341 337h-1q-45 0 -62.5 20.5t-10.5 65.5
q8 44 31.5 64.5t69.5 20.5q45 0 62 -20t10 -65t-30.5 -65.5t-68.5 -20.5z" />
    <glyph glyph-name="Agrave" unicode="&#xc0;" horiz-adv-x="696" 
d="M511 0l-19 140h-250l-65 -140h-165l339 700h230l103 -700h-173zM435 557l-141 -303h182zM458 870l84 -120h-110l-108 120h134z" />
    <glyph glyph-name="Aacute" unicode="&#xc1;" horiz-adv-x="696" 
d="M511 0l-19 140h-250l-65 -140h-165l339 700h230l103 -700h-173zM436 557l-141 -303h182zM402 750l114 120h142l-138 -120h-118z" />
    <glyph glyph-name="Acircumflex" unicode="&#xc2;" horiz-adv-x="696" 
d="M511 0l-19 140h-250l-65 -140h-165l339 700h230l103 -700h-173zM436 557l-141 -303h182zM565 870h1l67 -120h-102l-50 58l-68 -58h-102l105 120h149z" />
    <glyph glyph-name="Atilde" unicode="&#xc3;" horiz-adv-x="696" 
d="M511 0l-19 140h-250l-65 -140h-165l339 700h230l103 -700h-173zM436 557l-141 -303h182zM308 760q8 51 41.5 80t77.5 29q29 0 51.5 -7.5t33 -16t24.5 -16t28 -7.5q11 0 20 8.5t10 20.5h60q-8 -51 -41.5 -80t-77.5 -29q-37 0 -62 12t-41.5 23.5t-33.5 11.5q-11 0 -19.5 -8
t-10.5 -21h-60z" />
    <glyph glyph-name="Adieresis" unicode="&#xc4;" horiz-adv-x="692" 
d="M511 0l-19 140h-250l-65 -140h-165l339 700h230l103 -700h-173zM435 557l-141 -303h182zM378 878q45 0 62.5 -17.5t11.5 -55.5q-11 -73 -99 -73q-45 0 -62.5 17.5t-11.5 55.5q11 73 99 73zM611 878q45 0 62.5 -17.5t11.5 -55.5q-11 -73 -99 -73q-45 0 -62.5 17.5
t-11.5 55.5q11 73 99 73z" />
    <glyph glyph-name="Aring" unicode="&#xc5;" horiz-adv-x="696" 
d="M511 0l-19 140h-250l-65 -140h-165l339 700h230l103 -700h-173zM436 558l-141 -303h182zM503 943q65 0 90.5 -25.5t16.5 -81.5t-42.5 -81.5t-98.5 -25.5t-90.5 25.5t-16.5 81.5t42.5 81.5t98.5 25.5zM479 792h1q25 0 37.5 10.5t16.5 34.5q4 23 -6 33.5t-35 10.5
q-48 0 -55 -45q-4 -23 6 -33.5t35 -10.5z" />
    <glyph glyph-name="AE" unicode="&#xc6;" horiz-adv-x="940" 
d="M1005 578v-1h-306l-25 -155h266l-19 -122h-266l-28 -178h306l-19 -122h-454l22 140h-216l-89 -140h-165l460 700l96 -1v1h456zM553 593l-215 -340h162z" />
    <glyph glyph-name="Ccedilla" unicode="&#xc7;" horiz-adv-x="766" 
d="M344 -21q-158 11 -217.5 99.5t-30.5 269.5q31 194 129 282t285 88q153 0 221.5 -61t68.5 -196h-165q-4 67 -38.5 96.5t-107.5 29.5q-96 0 -148.5 -56.5t-71.5 -182.5q-20 -126 14.5 -182.5t130.5 -56.5q70 0 113.5 29.5t71.5 96.5h165q-50 -128 -131.5 -189t-208.5 -67
l-13 -31l10 -2.5t21 -8.5t26 -16t18.5 -25.5t4.5 -36.5q-8 -52 -67 -81t-156 -29l10 63q98 0 105 48q3 18 -19.5 27t-54.5 9z" />
    <glyph glyph-name="Egrave" unicode="&#xc8;" horiz-adv-x="608" 
d="M673 578v-1h-340l-25 -155h300l-19 -122h-300l-28 -178h340l-19 -122h-504l110 700h504zM434 869l84 -120h-110l-108 120h134z" />
    <glyph glyph-name="Eacute" unicode="&#xc9;" horiz-adv-x="608" 
d="M673 578v-1h-340l-25 -155h300l-19 -122h-300l-28 -178h340l-19 -122h-504l110 700h504zM378 749l114 120h142l-138 -120h-118z" />
    <glyph glyph-name="Ecircumflex" unicode="&#xca;" horiz-adv-x="608" 
d="M673 578v-1h-340l-25 -155h300l-19 -122h-300l-28 -178h340l-19 -122h-504l110 700h504zM541 869h1l67 -120h-102l-50 58l-68 -58h-102l105 120h149z" />
    <glyph glyph-name="Edieresis" unicode="&#xcb;" horiz-adv-x="638" 
d="M671 578v-1h-340l-25 -155h300l-19 -122h-300l-28 -178h340l-19 -122h-504l110 700h504zM351 877q45 0 63 -17.5t12 -55.5q-11 -73 -99 -73q-45 0 -62.5 17.5t-11.5 55.5t29 55.5t69 17.5zM584 877q45 0 63 -17.5t12 -55.5q-11 -73 -99 -73q-45 0 -62.5 17.5t-11.5 55.5
t29 55.5t69 17.5z" />
    <glyph glyph-name="Igrave" unicode="&#xcc;" horiz-adv-x="320" 
d="M188 700h165l-110 -700h-165zM265 870l84 -120h-110l-108 120h134z" />
    <glyph glyph-name="Iacute" unicode="&#xcd;" horiz-adv-x="324" 
d="M188 700h165l-110 -700h-165zM209 750l114 120h142l-138 -120h-118z" />
    <glyph glyph-name="Icircumflex" unicode="&#xce;" horiz-adv-x="316" 
d="M186 700h165l-110 -700h-165zM370 870h1l67 -120h-102l-50 58l-68 -58h-102l105 120h149z" />
    <glyph glyph-name="Idieresis" unicode="&#xcf;" horiz-adv-x="316" 
d="M186 700h165l-110 -700h-165zM183 878q45 0 62.5 -17.5t11.5 -55.5q-11 -73 -99 -73q-45 0 -62.5 17.5t-11.5 55.5q11 73 99 73zM416 878q45 0 62.5 -17.5t11.5 -55.5q-11 -73 -99 -73q-45 0 -62.5 17.5t-11.5 55.5q11 73 99 73z" />
    <glyph glyph-name="Ntilde" unicode="&#xd1;" horiz-adv-x="768" 
d="M644 700h157l-110 -700h-191l-189 484l-76 -484h-157l110 700h191l189 -484zM339 760q8 51 41.5 80t77.5 29q29 0 51.5 -7.5t33 -16t24.5 -16t28 -7.5q11 0 20 8.5t10 20.5h60q-8 -51 -41.5 -80t-77.5 -29q-37 0 -62 12t-41.5 23.5t-33.5 11.5q-11 0 -19.5 -8t-10.5 -21
h-60z" />
    <glyph glyph-name="Ograve" unicode="&#xd2;" horiz-adv-x="796" 
d="M512 720q188 0 259 -88t40 -282t-130 -282t-287 -88t-259 88t-40 282t130 282t287 88zM492 589q-97 0 -150 -56.5t-73 -182.5t14.5 -182.5t132.5 -56.5q97 0 150 56.5t73 182.5t-14.5 182.5t-132.5 56.5zM503 870l84 -120h-110l-108 120h134z" />
    <glyph glyph-name="Oacute" unicode="&#xd3;" horiz-adv-x="796" 
d="M512 720q188 0 259 -88t40 -282t-130 -282t-287 -88t-259 88t-40 282t130 282t287 88zM491 589q-97 0 -150 -56.5t-73 -182.5t14.5 -182.5t132.5 -56.5q97 0 150 56.5t73 182.5t-14.5 182.5t-132.5 56.5zM446 750l114 120h142l-138 -120h-118z" />
    <glyph glyph-name="Ocircumflex" unicode="&#xd4;" horiz-adv-x="796" 
d="M512 720q188 0 259 -88t40 -282t-130 -282t-287 -88t-259 88t-40 282t130 282t287 88zM492 589q-97 0 -150 -56.5t-73 -182.5t14.5 -182.5t132.5 -56.5q97 0 150 56.5t73 182.5t-14.5 182.5t-132.5 56.5zM609 870h1l67 -120h-102l-50 58l-68 -58h-102l105 120h149z" />
    <glyph glyph-name="Otilde" unicode="&#xd5;" horiz-adv-x="796" 
d="M512 720q188 0 259 -88t40 -282t-130 -282t-287 -88t-259 88t-40 282t130 282t287 88zM491 589q-97 0 -150 -56.5t-73 -182.5t14.5 -182.5t132.5 -56.5q97 0 150 56.5t73 182.5t-14.5 182.5t-132.5 56.5zM352 760q8 51 41.5 80t77.5 29q29 0 51.5 -7.5t33 -16t24.5 -16
t28 -7.5q11 0 20 8.5t10 20.5h60q-8 -51 -41.5 -80t-77.5 -29q-37 0 -62 12t-41.5 23.5t-33.5 11.5q-11 0 -19.5 -8t-10.5 -21h-60z" />
    <glyph glyph-name="Odieresis" unicode="&#xd6;" horiz-adv-x="792" 
d="M510 720q188 0 259 -88t40 -282t-130 -282t-287 -88t-259 88t-40 282t130 282t287 88zM490 589q-97 0 -150 -56.5t-73 -182.5t14.5 -182.5t132.5 -56.5q97 0 150 56.5t73 182.5t-14.5 182.5t-132.5 56.5zM421 878q45 0 62.5 -17.5t11.5 -55.5q-11 -73 -99 -73
q-45 0 -62.5 17.5t-11.5 55.5q11 73 99 73zM654 878q45 0 62.5 -17.5t11.5 -55.5q-11 -73 -99 -73q-45 0 -62.5 17.5t-11.5 55.5q11 73 99 73z" />
    <glyph glyph-name="multiply" unicode="&#xd7;" horiz-adv-x="563" 
d="M201 494l133 -158l183 158l69 -87l-181 -156l132 -156l-97 -87l-133 158l-183 -158l-69 87l180 156l-131 156z" />
    <glyph glyph-name="Oslash" unicode="&#xd8;" horiz-adv-x="796" 
d="M627 780h98l-44 -86q89 -34 120 -118t8 -225q-31 -194 -130 -282t-287 -88q-37 0 -70 3l-32 -63h-101l42 82q-94 33 -127 117.5t-10 229.5q31 194 130 282t287 88q40 0 83 -5zM526 586q-16 3 -37 3q-97 0 -150 -56.5t-73 -182.5q-25 -154 35 -207zM387 111h1q9 -1 27 -1
q97 0 150 56.5t73 182.5q23 147 -29 200z" />
    <glyph glyph-name="Ugrave" unicode="&#xd9;" horiz-adv-x="732" 
d="M109 259l67 441h165l-69 -441q-13 -78 13 -113t97 -35t108 35t50 113l69 441h165l-69 -441q-23 -146 -104.5 -212.5t-238.5 -66.5t-216.5 66.5t-36.5 212.5zM469 870l84 -120h-110l-108 120h134z" />
    <glyph glyph-name="Uacute" unicode="&#xda;" horiz-adv-x="732" 
d="M109 259l67 441h165l-69 -441q-13 -78 13 -113t97 -35t108 35t50 113l69 441h165l-69 -441q-23 -146 -104.5 -212.5t-238.5 -66.5t-216.5 66.5t-36.5 212.5zM412 750l114 120h142l-138 -120h-118z" />
    <glyph glyph-name="Ucircumflex" unicode="&#xdb;" horiz-adv-x="732" 
d="M109 259l67 441h165l-69 -441q-13 -78 13 -113t97 -35t108 35t50 113l69 441h165l-69 -441q-23 -146 -104.5 -212.5t-238.5 -66.5t-216.5 66.5t-36.5 212.5zM576 870h1l67 -120h-102l-50 58l-68 -58h-102l105 120h149z" />
    <glyph glyph-name="Udieresis" unicode="&#xdc;" horiz-adv-x="728" 
d="M107 259l67 441h165l-69 -441q-13 -78 13 -113t97 -35t108 35t50 113l69 441h165l-69 -441q-23 -146 -104.5 -212.5t-238.5 -66.5t-216.5 66.5t-36.5 212.5zM387 878q45 0 62.5 -17.5t11.5 -55.5q-11 -73 -99 -73q-45 0 -62.5 17.5t-11.5 55.5q11 73 99 73zM620 878
q45 0 62.5 -17.5t11.5 -55.5q-11 -73 -99 -73q-45 0 -62.5 17.5t-11.5 55.5q11 73 99 73z" />
    <glyph glyph-name="Yacute" unicode="&#xdd;" horiz-adv-x="665" 
d="M457 266h1l-42 -266h-157l42 266l-180 434h181l101 -279l189 279h173zM388 750l114 120h142l-138 -120h-118z" />
    <glyph glyph-name="germandbls" unicode="&#xdf;" horiz-adv-x="662" 
d="M446 720v3q136 0 191 -45t39 -145q-8 -53 -39.5 -85t-91.5 -53q70 -22 96.5 -65.5t14.5 -118.5q-17 -110 -75 -159.5t-168 -49.5q-26 0 -52 5t-39 10l-14 5l17 105q34 -11 66 -11q53 0 81.5 24.5t36.5 78.5q10 60 -21 86.5t-111 26.5l17 107q67 0 100 19t40 61
q7 46 -16 67.5t-82 20.5q-66 -1 -99 -30t-44 -94l-76 -483h-149l76 482q19 125 91 181.5t211 56.5z" />
    <glyph glyph-name="agrave" unicode="&#xe0;" horiz-adv-x="552" 
d="M376 42h-1q-55 -52 -162 -52q-99 0 -137.5 38t-25.5 121q14 89 78 129.5t192 40.5h86l3 21q7 43 -10 62.5t-61 19.5t-66 -17t-28 -55h-141q14 84 73.5 122t179.5 38q119 0 166.5 -44.5t32.5 -142.5l-51 -323h-116zM200 157l2 1q-6 -34 10 -48t59 -14q49 0 75.5 22
t37.5 71q1 4 3 18l4 24h-65h-17q-52 -2 -77 -18.5t-32 -55.5zM359 700l73 -150h-117l-106 150h150z" />
    <glyph glyph-name="aacute" unicode="&#xe1;" horiz-adv-x="552" 
d="M376 42h-1q-55 -52 -162 -52q-99 0 -137.5 38t-25.5 121q14 89 78 129.5t192 40.5h86l3 21q7 43 -10 62.5t-61 19.5t-66 -17t-28 -55h-141q14 84 73.5 122t179.5 38q119 0 166.5 -44.5t32.5 -142.5l-51 -323h-116zM200 157l2 1q-6 -34 10 -48t59 -14q49 0 75.5 22
t37.5 71q1 4 3 18l4 24h-65h-17q-52 -2 -77 -18.5t-32 -55.5zM284 550l120 150h150l-152 -150h-118z" />
    <glyph glyph-name="acircumflex" unicode="&#xe2;" horiz-adv-x="552" 
d="M376 42h-1q-55 -52 -162 -52q-99 0 -137.5 38t-25.5 121q14 89 78 129.5t192 40.5h86l3 21q7 43 -10 62.5t-61 19.5t-66 -17t-28 -55h-141q14 84 73.5 122t179.5 38q119 0 166.5 -44.5t32.5 -142.5l-51 -323h-116zM198 157l2 1q-6 -34 10 -48t59 -14q49 0 75.5 22
t37.5 71q1 4 3 18l4 24h-65h-17q-52 -2 -77 -18.5t-32 -55.5zM459 700l60 -150h-93l-53 79l-77 -79h-93l107 150h149z" />
    <glyph glyph-name="atilde" unicode="&#xe3;" horiz-adv-x="552" 
d="M376 42h-1q-55 -52 -162 -52q-99 0 -137.5 38t-25.5 121q14 89 78 129.5t192 40.5h86l3 21q7 43 -10 62.5t-61 19.5t-66 -17t-28 -55h-141q14 84 73.5 122t179.5 38q119 0 166.5 -44.5t32.5 -142.5l-51 -323h-116zM198 157l2 1q-6 -34 10 -48t59 -14q49 0 75.5 22
t37.5 71q1 4 3 18l4 24h-65h-17q-52 -2 -77 -18.5t-32 -55.5zM200 579h-1q8 52 44 89.5t78 37.5q29 0 50.5 -12t30.5 -26t20.5 -26t22.5 -12t20 10.5t12 28.5h68q-8 -52 -44 -89.5t-78 -37.5q-29 0 -50.5 12t-30.5 26t-20 26t-22 12t-20 -10.5t-12 -28.5h-68z" />
    <glyph glyph-name="adieresis" unicode="&#xe4;" horiz-adv-x="552" 
d="M377 45h-1q-55 -52 -163 -52q-99 0 -137.5 38t-24.5 121q13 89 77 129.5t192 40.5h86l4 21q7 43 -10 62.5t-61 19.5t-66.5 -17t-28.5 -55h-141q14 84 74 122t180 38q119 0 166.5 -44.5t31.5 -142.5l-51 -323h-116zM202 160l1 1q-5 -34 11 -48t58 -14q49 0 76.5 22
t37.5 71q1 4 3 18l4 24h-65h-17q-52 -2 -77.5 -18.5t-31.5 -55.5zM279 700h1q45 0 62.5 -20.5t10.5 -65.5q-8 -44 -31.5 -64.5t-69.5 -20.5q-45 0 -62 20t-10 65t30.5 65.5t68.5 20.5zM496 700h1q45 0 62.5 -20.5t10.5 -65.5q-8 -44 -31.5 -64.5t-69.5 -20.5q-45 0 -62 20
t-10 65t30.5 65.5t68.5 20.5z" />
    <glyph glyph-name="aring" unicode="&#xe5;" horiz-adv-x="552" 
d="M376 42h-1q-55 -52 -162 -52q-99 0 -137.5 38t-25.5 121q14 89 78 129.5t192 40.5h86l3 21q7 43 -10 62.5t-61 19.5t-66 -17t-28 -55h-141q14 84 73.5 122t179.5 38q119 0 166.5 -44.5t32.5 -142.5l-51 -323h-116zM199 157l2 1q-6 -34 10 -48t59 -14q49 0 75.5 22
t37.5 71q1 4 3 18l4 24h-65h-17q-52 -2 -77 -18.5t-32 -55.5zM392 743q65 0 90.5 -25.5t16.5 -81.5t-42.5 -81.5t-98.5 -25.5t-90.5 25.5t-16.5 81.5t42.5 81.5t98.5 25.5zM369 592h1q25 0 37.5 10.5t16.5 34.5q4 23 -6 33.5t-35 10.5q-48 0 -55 -45q-4 -23 6 -33.5
t35 -10.5z" />
    <glyph glyph-name="ae" unicode="&#xe6;" horiz-adv-x="900" 
d="M536 201q-2 -40 7 -65t30 -37t55 -12q42 0 67.5 16.5t42.5 54.5h141q-31 -88 -93.5 -127.5t-171.5 -39.5q-151 0 -177 111q-56 -111 -221 -111q-98 0 -137 38t-26 121q14 85 71.5 125.5t171.5 44.5h31h80l4 21v5q4 36 -14 52t-62 16q-43 0 -64 -14.5t-26 -48.5h-141
q14 84 73.5 122t179.5 38q123 0 157 -67q62 66 180 66q136 0 187.5 -62.5t29.5 -200.5l-8 -46h-367zM393 231l-1 -1h-70q-58 0 -86.5 -17.5t-34.5 -56.5v-4q-4 -30 13 -43.5t58 -13.5h7q49 1 75 25t34 77zM679 413h1q-52 0 -83.5 -29.5t-47.5 -93.5h220q10 65 -11 94t-78 29
h-1z" />
    <glyph glyph-name="ccedilla" unicode="&#xe7;" horiz-adv-x="572" 
d="M248 -8v1q-114 9 -157.5 70.5t-23.5 186.5q22 137 95 198.5t214 61.5q119 0 170.5 -46.5t46.5 -149.5h-149q-1 43 -22 62t-65 19q-63 0 -97 -34.5t-46 -111.5t11 -112t86 -35q83 0 113 82h149q-26 -95 -85 -142t-162 -53l-17 -41l10 -2.5t21 -8.5t26 -16t18.5 -25.5
t4.5 -36.5q-8 -52 -67 -81t-156 -29l10 63q98 0 105 48q3 18 -19.5 27t-54.5 9z" />
    <glyph glyph-name="egrave" unicode="&#xe8;" horiz-adv-x="572" 
d="M207 201q-2 -60 20 -87.5t72 -27.5q42 0 67 16.5t41 54.5h141q-30 -88 -92.5 -127.5t-171.5 -39.5q-136 0 -187.5 61.5t-29.5 198.5t92.5 198.5t206.5 61.5t187.5 -62.5t29.5 -200.5l-8 -46h-368zM350 413q-52 0 -83 -29.5t-47 -93.5h220q10 65 -11 94t-79 29zM369 700
l73 -150h-117l-106 150h150z" />
    <glyph glyph-name="eacute" unicode="&#xe9;" horiz-adv-x="572" 
d="M207 201q-2 -60 20 -87.5t72 -27.5q42 0 67 16.5t41 54.5h141q-30 -88 -92.5 -127.5t-171.5 -39.5q-136 0 -187.5 61.5t-29.5 198.5t92.5 198.5t206.5 61.5t187.5 -62.5t29.5 -200.5l-8 -46h-368zM351 413q-52 0 -83 -29.5t-47 -93.5h220q10 65 -11 94t-79 29zM303 550
l120 150h150l-152 -150h-118z" />
    <glyph glyph-name="ecircumflex" unicode="&#xea;" horiz-adv-x="572" 
d="M207 201q-2 -60 20 -87.5t72 -27.5q42 0 67 16.5t41 54.5h141q-30 -88 -92.5 -127.5t-171.5 -39.5q-136 0 -187.5 61.5t-29.5 198.5t92.5 198.5t206.5 61.5t187.5 -62.5t29.5 -200.5l-8 -46h-368zM350 413q-52 0 -83 -29.5t-47 -93.5h220q10 65 -11 94t-79 29zM470 700
l60 -150h-93l-53 79l-77 -79h-93l107 150h149z" />
    <glyph glyph-name="edieresis" unicode="&#xeb;" horiz-adv-x="572" 
d="M207 201q-2 -60 20 -87.5t72 -27.5q42 0 67 16.5t41 54.5h141q-30 -88 -92.5 -127.5t-171.5 -39.5q-136 0 -187.5 61.5t-29.5 198.5t92.5 198.5t206.5 61.5t187.5 -62.5t29.5 -200.5l-8 -46h-368zM351 413q-52 0 -83 -29.5t-47 -93.5h220q10 65 -11 94t-79 29zM290 700
q45 0 62.5 -20.5t10.5 -65.5q-8 -44 -31.5 -64.5t-69.5 -20.5q-45 0 -62.5 20.5t-9.5 64.5q7 45 30.5 65.5t69.5 20.5zM506 700q45 0 62.5 -20.5t10.5 -65.5q-8 -44 -31.5 -64.5t-68.5 -20.5q-46 0 -63 20.5t-9 64.5q7 45 30.5 65.5t68.5 20.5z" />
    <glyph glyph-name="igrave" unicode="&#xec;" horiz-adv-x="248" 
d="M198 0h-149l79 500h149zM207 700l73 -150h-117l-106 150h150z" />
    <glyph glyph-name="iacute" unicode="&#xed;" horiz-adv-x="256" 
d="M206 0h-149l79 500h149zM140 550l120 150h150l-152 -150h-118z" />
    <glyph glyph-name="icircumflex" unicode="&#xee;" horiz-adv-x="248" 
d="M198 0h-149l79 500h149zM308 700l60 -150h-93l-53 79l-77 -79h-93l107 150h149z" />
    <glyph glyph-name="idieresis" unicode="&#xef;" horiz-adv-x="268" 
d="M206 0h-149l79 500h149zM135 695h1q45 0 62 -20.5t10 -65.5q-7 -44 -31 -64.5t-70 -20.5q-45 0 -62 20t-10 65t31 65.5t69 20.5zM352 695h1q45 0 62 -20.5t10 -65.5q-7 -44 -31 -64.5t-70 -20.5q-45 0 -62 20t-10 65t31 65.5t69 20.5z" />
    <glyph glyph-name="ntilde" unicode="&#xf1;" horiz-adv-x="582" 
d="M253 500v-1l11 -40q57 50 155 50q103 0 140.5 -57t17.5 -183l-43 -270h-149l43 270q11 67 -5.5 97t-62.5 30q-49 0 -75 -30t-36 -96l-42 -270h-149l79 500h116zM221 578h-1q8 52 44 89.5t78 37.5q29 0 50.5 -12t30.5 -26t20.5 -26t22.5 -12t20 10.5t12 28.5h68
q-8 -52 -44 -89.5t-78 -37.5q-29 0 -50.5 12t-30.5 26t-20 26t-22 12t-20 -10.5t-12 -28.5h-68z" />
    <glyph glyph-name="ograve" unicode="&#xf2;" horiz-adv-x="592" 
d="M376 510q141 0 195 -61.5t32 -198.5t-95 -198.5t-214 -61.5t-195 61.5t-32 198.5t95 198.5t214 61.5zM216 250l-1 -1q-12 -77 11 -112t86 -35t96.5 35t45.5 112t-10.5 112t-85.5 35t-96.5 -34.5t-45.5 -111.5zM380 700l73 -150h-117l-106 150h150z" />
    <glyph glyph-name="oacute" unicode="&#xf3;" horiz-adv-x="592" 
d="M376 510q141 0 195 -61.5t32 -198.5t-95 -198.5t-214 -61.5t-195 61.5t-32 198.5t95 198.5t214 61.5zM216 250l-1 -1q-12 -77 11 -112t86 -35t96.5 35t45.5 112t-10.5 112t-85.5 35t-96.5 -34.5t-45.5 -111.5zM313 550l120 150h150l-152 -150h-118z" />
    <glyph glyph-name="ocircumflex" unicode="&#xf4;" horiz-adv-x="592" 
d="M376 510q141 0 195 -61.5t32 -198.5t-95 -198.5t-214 -61.5t-195 61.5t-32 198.5t95 198.5t214 61.5zM214 250l-1 -1q-12 -77 11 -112t86 -35t96.5 35t45.5 112t-10.5 112t-85.5 35t-96.5 -34.5t-45.5 -111.5zM480 700l60 -150h-93l-53 79l-77 -79h-93l107 150h149z" />
    <glyph glyph-name="otilde" unicode="&#xf5;" horiz-adv-x="592" 
d="M376 510q141 0 195 -61.5t32 -198.5t-95 -198.5t-214 -61.5t-195 61.5t-32 198.5t95 198.5t214 61.5zM214 250l-1 -1q-12 -77 11 -112t86 -35t96.5 35t45.5 112t-10.5 112t-85.5 35t-96.5 -34.5t-45.5 -111.5zM221 579h-1q8 52 44 89.5t78 37.5q29 0 50.5 -12t30.5 -26
t20.5 -26t22.5 -12t20 10.5t12 28.5h68q-8 -52 -44 -89.5t-78 -37.5q-29 0 -50.5 12t-30.5 26t-20 26t-22 12t-20 -10.5t-12 -28.5h-68z" />
    <glyph glyph-name="odieresis" unicode="&#xf6;" horiz-adv-x="592" 
d="M376 510q141 0 195 -61.5t32 -198.5t-95 -198.5t-214 -61.5t-195 61.5t-32 198.5t95 198.5t214 61.5zM215 250l-1 -1q-12 -77 11 -112t86 -35t96.5 35t45.5 112t-10.5 112t-85.5 35t-96.5 -34.5t-45.5 -111.5zM300 700q45 0 62.5 -20.5t10.5 -65.5q-8 -44 -31.5 -64.5
t-69.5 -20.5q-45 0 -62.5 20.5t-9.5 64.5q7 45 30.5 65.5t69.5 20.5zM516 700q45 0 62.5 -20.5t10.5 -65.5q-8 -44 -31.5 -64.5t-68.5 -20.5q-46 0 -63 20.5t-9 64.5q7 45 30.5 65.5t68.5 20.5z" />
    <glyph glyph-name="divide" unicode="&#xf7;" horiz-adv-x="592" 
d="M227 70q5 35 30.5 57t61.5 22t54.5 -22t13.5 -57q-6 -35 -31.5 -56.5t-61.5 -21.5t-54.5 21.5t-12.5 56.5zM587 199h-520l18 114h520zM287 450q5 35 30.5 57t61.5 22t54.5 -22t13.5 -57q-6 -35 -31.5 -56.5t-61.5 -21.5t-54.5 21.5t-12.5 56.5z" />
    <glyph glyph-name="oslash" unicode="&#xf8;" horiz-adv-x="592" 
d="M376 510v1q28 0 54 -3l32 62h68l-38 -74q74 -22 101 -82t10 -164q-22 -137 -95 -198.5t-214 -61.5q-28 0 -54 3l-30 -62h-69l36 74q-73 22 -100 82t-10 163q22 137 95 198.5t214 61.5zM215 251h-1q-15 -93 22 -125l136 271h-15q-63 0 -96 -34.5t-46 -111.5zM431 377
l-136 -273h16q63 0 96.5 35t45.5 112q15 95 -22 126z" />
    <glyph glyph-name="ugrave" unicode="&#xf9;" horiz-adv-x="582" 
d="M408 0h-1l-12 40q-56 -50 -154 -50q-103 0 -140.5 57t-17.5 183l43 270h149l-43 -270q-11 -67 5.5 -97t62.5 -30q49 1 75 31t36 96l43 270h149l-79 -500h-116zM387 700l73 -150h-117l-106 150h150z" />
    <glyph glyph-name="uacute" unicode="&#xfa;" horiz-adv-x="582" 
d="M408 0h-1l-12 40q-56 -50 -154 -50q-103 0 -140.5 57t-17.5 183l43 270h149l-43 -270q-11 -67 5.5 -97t62.5 -30q49 1 75 31t36 96l43 270h149l-79 -500h-116zM280 550l120 150h150l-152 -150h-118z" />
    <glyph glyph-name="ucircumflex" unicode="&#xfb;" horiz-adv-x="582" 
d="M408 0h-1l-12 40q-56 -50 -154 -50q-103 0 -140.5 57t-17.5 183l43 270h149l-43 -270q-11 -67 5.5 -97t62.5 -30q49 1 75 31t36 96l43 270h149l-79 -500h-116zM467 700l60 -150h-93l-53 79l-77 -79h-93l107 150h149z" />
    <glyph glyph-name="udieresis" unicode="&#xfc;" horiz-adv-x="582" 
d="M408 0h-1l-12 40q-56 -50 -154 -50q-103 0 -140.5 57t-17.5 183l43 270h149l-43 -270q-11 -67 5.5 -97t62.5 -30q49 1 75 31t36 96l43 270h149l-79 -500h-116zM277 700q45 0 62.5 -20.5t10.5 -65.5q-8 -44 -31.5 -64.5t-69.5 -20.5q-45 0 -62.5 20.5t-9.5 64.5
q7 45 30.5 65.5t69.5 20.5zM493 700q45 0 62.5 -20.5t10.5 -65.5q-8 -44 -31.5 -64.5t-68.5 -20.5q-46 0 -63 20.5t-9 64.5q7 45 30.5 65.5t68.5 20.5z" />
    <glyph glyph-name="yacute" unicode="&#xfd;" horiz-adv-x="516" 
d="M212 1v1l6 11l-139 487h141l82 -311l152 311h141l-246 -484q-28 -54 -35 -66q-41 -69 -89.5 -100t-115.5 -31h-72l15 97h64h6q28 2 45.5 17t44.5 68zM291 550l120 150h150l-152 -150h-118z" />
    <glyph glyph-name="ydieresis" unicode="&#xff;" horiz-adv-x="516" 
d="M212 1v1l6 11l-139 487h141l82 -311l152 311h141l-246 -484q-28 -54 -35 -66q-41 -69 -89.5 -100t-115.5 -31h-72l15 97h64h6q28 2 45.5 17t44.5 68zM271 701q45 0 62 -20.5t10 -65.5q-7 -44 -31 -64.5t-70 -20.5q-45 0 -62 20.5t-10 64.5q7 45 31 65.5t70 20.5zM487 701
q45 0 62 -20.5t10 -65.5q-7 -44 -31 -64.5t-69 -20.5t-62 20t-10 65t31 65.5t69 20.5z" />
    <glyph glyph-name="Amacron" unicode="&#x100;" horiz-adv-x="696" 
d="M511 0l-19 140h-250l-65 -140h-165l339 700h230l103 -700h-173zM436 557l-141 -303h182zM303 753l14 88h340l-14 -88h-340z" />
    <glyph glyph-name="amacron" unicode="&#x101;" horiz-adv-x="552" 
d="M376 42h-1q-55 -52 -162 -52q-99 0 -137.5 38t-25.5 121q14 89 78 129.5t192 40.5h86l3 21q7 43 -10 62.5t-61 19.5t-66 -17t-28 -55h-141q14 84 73.5 122t179.5 38q119 0 166.5 -44.5t32.5 -142.5l-51 -323h-116zM200 157l2 1q-6 -34 10 -48t59 -14q49 0 75.5 22
t37.5 71q1 4 3 18l4 24h-65h-17q-52 -2 -77 -18.5t-32 -55.5zM192 553l14 88h340l-14 -88h-340z" />
    <glyph glyph-name="Abreve" unicode="&#x102;" horiz-adv-x="696" 
d="M511 0l-19 140h-250l-65 -140h-165l339 700h230l103 -700h-173zM436 557l-141 -303h182zM657 870q-10 -63 -54 -91.5t-131 -28.5t-122 28.5t-25 91.5h108q-4 -26 8 -37.5t43 -11.5t46 11.5t19 37.5h108z" />
    <glyph glyph-name="abreve" unicode="&#x103;" horiz-adv-x="552" 
d="M376 42h-1q-55 -52 -162 -52q-99 0 -137.5 38t-25.5 121q14 89 78 129.5t192 40.5h86l3 21q7 43 -10 62.5t-61 19.5t-66 -17t-28 -55h-141q14 84 73.5 122t179.5 38q119 0 166.5 -44.5t32.5 -142.5l-51 -323h-116zM201 158l1 1q-6 -34 10 -48t59 -14q49 0 76 22t38 71
q0 4 2 18l4 24h-65h-17q-52 -2 -77 -18.5t-31 -55.5zM551 700l2 1q-13 -79 -58 -114.5t-132 -35.5t-121 35.5t-21 114.5h100q-6 -38 6.5 -54.5t46.5 -16.5h9q31 1 47 18t21 52h100z" />
    <glyph glyph-name="Aogonek" unicode="&#x104;" horiz-adv-x="692" 
d="M567 0l-1 1h-56l-19 140h-250l-65 -140h-165l340 700h230l102 -700h-41q-53 -40 -62 -82q-5 -36 34 -37h6q9 0 20 3t17 6l6 3l-20 -123q-33 -20 -73 -20q-12 0 -17 1q-51 7 -69 50t4.5 99.5t78.5 98.5zM435 558l-141 -303h182z" />
    <glyph glyph-name="aogonek" unicode="&#x105;" horiz-adv-x="552" 
d="M385 6l-9 35q-55 -52 -162 -52q-99 0 -138 38t-25 121q14 89 78 129.5t192 40.5h86l3 21q7 43 -10 62.5t-61 19.5t-66 -17t-28 -55h-141q14 84 73.5 122t179.5 38q119 0 166.5 -44.5t31.5 -142.5l-51 -323h-52q-53 -41 -61 -83q-8 -36 33 -36q11 0 23 3t19 7l7 3
l-20 -123q-33 -20 -73 -20q-36 0 -59.5 18t-29.5 46.5t0.5 62t31.5 68.5t62 61zM201 156l1 1q-5 -34 11 -48t59 -14q49 0 75.5 22t37.5 71q1 4 3 18l4 24h-65h-17q-52 -2 -77.5 -19t-31.5 -55z" />
    <glyph glyph-name="Cacute" unicode="&#x106;" horiz-adv-x="766" 
d="M599 237h164q-52 -135 -140 -196t-230 -61q-187 0 -257.5 88t-39.5 282t129.5 282t285.5 88q153 0 221 -61t68 -196h-165q-5 67 -38.5 96.5t-106.5 29.5q-96 0 -148.5 -56.5t-72.5 -182.5t14.5 -182.5t130.5 -56.5q70 0 113.5 29.5t71.5 96.5zM445 750l114 120h142
l-138 -120h-118z" />
    <glyph glyph-name="cacute" unicode="&#x107;" horiz-adv-x="572" 
d="M425 186v2h149q-27 -103 -93.5 -149.5t-185.5 -46.5q-141 0 -194.5 61.5t-32.5 198.5q22 136 95.5 198t214.5 62q119 0 170.5 -46.5t46.5 -149.5h-149q-1 43 -22.5 62t-65.5 19q-63 0 -97 -34.5t-46 -111.5t11 -112t86 -35q83 0 113 82zM313 552l121 150h150l-153 -150
h-118z" />
    <glyph glyph-name="Ccircumflex" unicode="&#x108;" horiz-adv-x="766" 
d="M599 237h164q-52 -135 -140 -196t-230 -61q-187 0 -257.5 88t-39.5 282t129.5 282t285.5 88q153 0 221 -61t68 -196h-165q-5 67 -38.5 96.5t-106.5 29.5q-96 0 -148.5 -56.5t-72.5 -182.5t14.5 -182.5t130.5 -56.5q70 0 113.5 29.5t71.5 96.5zM609 870h1l67 -120h-102
l-50 58l-68 -58h-102l105 120h149z" />
    <glyph glyph-name="ccircumflex" unicode="&#x109;" horiz-adv-x="572" 
d="M425 186v2h149q-27 -103 -93.5 -149.5t-185.5 -46.5q-141 0 -194.5 61.5t-32.5 198.5q22 136 95.5 198t214.5 62q119 0 170.5 -46.5t46.5 -149.5h-149q-1 43 -22.5 62t-65.5 19q-63 0 -97 -34.5t-46 -111.5t11 -112t86 -35q83 0 113 82zM482 702l59 -150h-93l-53 79
l-77 -79h-93l108 150h149z" />
    <glyph glyph-name="Cdotaccent" unicode="&#x10a;" horiz-adv-x="766" 
d="M599 237h164q-52 -135 -140 -196t-230 -61q-187 0 -257.5 88t-39.5 282t129.5 282t285.5 88q153 0 221 -61t68 -196h-165q-5 67 -38.5 96.5t-106.5 29.5q-96 0 -148.5 -56.5t-72.5 -182.5t14.5 -182.5t130.5 -56.5q70 0 113.5 29.5t71.5 96.5zM539 887q45 0 63 -17.5
t11 -55.5q-6 -38 -29 -55.5t-69 -17.5q-45 0 -63 17.5t-12 55.5q7 38 30 55.5t69 17.5z" />
    <glyph glyph-name="cdotaccent" unicode="&#x10b;" horiz-adv-x="564" 
d="M425 186v2h149q-27 -103 -93.5 -149.5t-185.5 -46.5q-141 0 -194.5 61.5t-32.5 198.5q22 136 95.5 198t214.5 62q119 0 170.5 -46.5t46.5 -149.5h-149q-1 43 -22.5 62t-65.5 19q-63 0 -97 -34.5t-46 -111.5t11 -112t86 -35q83 0 113 82zM409 706h1q45 0 62.5 -19.5
t10.5 -62.5q-7 -42 -30 -61t-69 -19q-45 0 -62.5 19.5t-11.5 61.5q8 43 31 62t68 19z" />
    <glyph glyph-name="Ccaron" unicode="&#x10c;" horiz-adv-x="766" 
d="M599 237h164q-52 -135 -140 -196t-230 -61q-187 0 -257.5 88t-39.5 282t129.5 282t285.5 88q153 0 221 -61t68 -196h-165q-5 67 -38.5 96.5t-106.5 29.5q-96 0 -148.5 -56.5t-72.5 -182.5t14.5 -182.5t130.5 -56.5q70 0 113.5 29.5t71.5 96.5zM686 870l-105 -120h-149
l-67 120h102l50 -58l68 58h101z" />
    <glyph glyph-name="ccaron" unicode="&#x10d;" horiz-adv-x="572" 
d="M425 186v2h149q-27 -103 -93.5 -149.5t-185.5 -46.5q-141 0 -194.5 61.5t-32.5 198.5q22 136 95.5 198t214.5 62q119 0 170.5 -46.5t46.5 -149.5h-149q-1 43 -22.5 62t-65.5 19q-63 0 -97 -34.5t-46 -111.5t11 -112t86 -35q83 0 113 82zM566 702h1l-108 -150h-149
l-60 150h93l52 -79l78 79h93z" />
    <glyph glyph-name="Dcaron" unicode="&#x10e;" horiz-adv-x="740" 
d="M755 350q-29 -184 -124.5 -267t-278.5 -83h-274l110 700h274q183 0 252.5 -83t40.5 -267zM434 578h-102l-72 -456h102q97 0 149 54t71 174t-16 174t-132 54zM630 870l-105 -120h-149l-67 120h102l50 -58l68 58h101z" />
    <glyph glyph-name="dcaron" unicode="&#x10f;" horiz-adv-x="705" 
d="M244 -10h-1q-115 0 -157 61.5t-20 198.5t83 198.5t176 61.5q98 0 142 -45l37 235h149l-90 -572l-20 -128h-116l-13 47q-60 -57 -170 -57zM302 105q58 0 89.5 34.5t43.5 111.5t-8.5 111.5t-78.5 34.5t-89.5 -34.5t-43.5 -111.5t8.5 -111.5t78.5 -34.5zM760 709v1
q52 0 51 -56q0 -14 -3 -30q-10 -60 -41.5 -87t-90.5 -27l9 54q46 0 53 43q-29 0 -40.5 11t-7.5 35q0 2 1 6t1 6q11 44 68 44z" />
    <glyph glyph-name="Dcroat" unicode="&#x110;" horiz-adv-x="750" 
d="M765 350q-29 -184 -124.5 -267t-278.5 -83h-274l52 332h-90l17 105h90l41 263h274q183 0 252.5 -83t40.5 -267zM445 578h-102l-22 -141h149l-17 -105h-149l-33 -210h102q97 0 149 54t71 174t-16 174t-132 54z" />
    <glyph glyph-name="dcroat" unicode="&#x111;" horiz-adv-x="642" 
d="M732 630l-11 -71h-90l-68 -431l-20 -128h-116l-13 47q-60 -57 -170 -57q-115 0 -157 61.5t-20 198.5t83 198.5t176 61.5q98 0 142 -45l15 94h-174l11 71h174l11 70h149l-11 -70h89zM301 104q58 0 89.5 34.5t43.5 111.5t-8.5 111.5t-78.5 34.5t-89.5 -34.5t-43.5 -111.5
t8.5 -111.5t78.5 -34.5z" />
    <glyph glyph-name="Emacron" unicode="&#x112;" horiz-adv-x="608" 
d="M673 578v-1h-340l-25 -155h300l-19 -122h-300l-28 -178h340l-19 -122h-504l110 700h504zM279 752l14 88h340l-14 -88h-340z" />
    <glyph glyph-name="emacron" unicode="&#x113;" horiz-adv-x="572" 
d="M207 201q-2 -60 20 -87.5t72 -27.5q42 0 67 16.5t41 54.5h141q-30 -88 -92.5 -127.5t-171.5 -39.5q-136 0 -187.5 61.5t-29.5 198.5t92.5 198.5t206.5 61.5t187.5 -62.5t29.5 -200.5l-8 -46h-368zM351 413q-52 0 -83 -29.5t-47 -93.5h220q10 65 -11 94t-79 29zM203 553
l14 88h340l-14 -88h-340z" />
    <glyph glyph-name="Ebreve" unicode="&#x114;" horiz-adv-x="608" 
d="M673 578v-1h-340l-25 -155h300l-19 -122h-300l-28 -178h340l-19 -122h-504l110 700h504zM633 869q-10 -63 -54 -91.5t-131 -28.5t-122 28.5t-25 91.5h108q-4 -26 7.5 -37.5t42.5 -11.5q59 0 66 49h108z" />
    <glyph glyph-name="ebreve" unicode="&#x115;" horiz-adv-x="572" 
d="M207 201q-2 -60 20 -87.5t72 -27.5q42 0 67 16.5t41 54.5h141q-30 -88 -92.5 -127.5t-171.5 -39.5q-136 0 -187.5 61.5t-29.5 198.5t92.5 198.5t206.5 61.5t187.5 -62.5t29.5 -200.5l-8 -46h-368zM352 414q-52 0 -83 -29.5t-46 -93.5h220q10 65 -11.5 94t-79.5 29z
M562 700l2 1q-13 -79 -58 -114.5t-132 -35.5t-121 35.5t-21 114.5h100q-6 -38 6.5 -54.5t46.5 -16.5h9q31 1 47 18t21 52h100z" />
    <glyph glyph-name="Edotaccent" unicode="&#x116;" horiz-adv-x="632" 
d="M673 578v-1h-340l-25 -155h300l-19 -122h-300l-28 -178h340l-19 -122h-504l110 700h504zM472 886q45 0 62.5 -17.5t11.5 -55.5t-29 -55.5t-69 -17.5q-45 0 -63 17.5t-12 55.5q11 73 99 73z" />
    <glyph glyph-name="edotaccent" unicode="&#x117;" horiz-adv-x="572" 
d="M207 201q-2 -60 20 -87.5t72 -27.5q42 0 67 16.5t41 54.5h141q-30 -88 -92.5 -127.5t-171.5 -39.5q-136 0 -187.5 61.5t-29.5 198.5t92.5 198.5t206.5 61.5t187.5 -62.5t29.5 -200.5l-8 -46h-368zM352 413q-52 0 -83 -29.5t-47 -93.5h220q10 65 -11 94t-79 29zM399 703h1
q45 0 62.5 -19.5t10.5 -62.5q-7 -42 -30.5 -61t-69.5 -19q-45 0 -62.5 19.5t-10.5 61.5q7 43 30.5 62t68.5 19z" />
    <glyph glyph-name="Eogonek" unicode="&#x118;" horiz-adv-x="612" 
d="M455 0h-1h-377l110 700h504l-19 -122h-340l-25 -155h300l-19 -122h-300l-28 -178h340l-19 -122h-51q-53 -40 -62 -82q-5 -36 34 -37h6q9 0 20 3t17 6l6 3l-20 -123q-33 -20 -73 -20q-12 0 -17 1q-51 7 -69 50t4.5 99.5t78.5 98.5z" />
    <glyph glyph-name="eogonek" unicode="&#x119;" horiz-adv-x="572" 
d="M290 -10h-2h-6q-136 0 -187.5 61.5t-29.5 198.5t92.5 198.5t206.5 61.5t187.5 -62.5t29.5 -200.5l-8 -46h-368q-2 -60 20 -87.5t72 -27.5q42 0 67 16.5t41 54.5h141q-45 -131 -171 -158q-52 -41 -59 -82q-4 -35 34 -36h6q9 0 20 3t17 6l6 3l-20 -123q-33 -20 -73 -20
q-12 0 -17 1q-49 7 -67.5 47.5t0 94.5t68.5 97zM349 413q-52 0 -83 -29.5t-47 -93.5h220q10 65 -11 94t-79 29z" />
    <glyph glyph-name="Ecaron" unicode="&#x11a;" horiz-adv-x="608" 
d="M673 578v-1h-340l-25 -155h300l-19 -122h-300l-28 -178h340l-19 -122h-504l110 700h504zM618 869l-105 -120h-149l-67 120h102l50 -58l68 58h101z" />
    <glyph glyph-name="ecaron" unicode="&#x11b;" horiz-adv-x="572" 
d="M207 201q-2 -60 20 -87.5t72 -27.5q42 0 67 16.5t41 54.5h141q-30 -88 -92.5 -127.5t-171.5 -39.5q-136 0 -187.5 61.5t-29.5 198.5t92.5 198.5t206.5 61.5t187.5 -62.5t29.5 -200.5l-8 -46h-368zM352 413q-52 0 -83 -29.5t-47 -93.5h220q10 65 -11 94t-79 29zM554 700h1
l-107 -150h-149l-61 150h93l53 -79l77 79h93z" />
    <glyph glyph-name="Gbreve" unicode="&#x11e;" horiz-adv-x="776" 
d="M443 290h1l18 113h338l-8 -54q-31 -194 -125 -282t-272 -88q-188 0 -259 88t-40 282t129.5 282t286.5 88q147 0 216 -57t74 -183h-157q-4 58 -40.5 83.5t-112.5 25.5q-98 0 -151.5 -56.5t-72.5 -182.5q-20 -126 14.5 -182.5t132.5 -56.5q96 0 145.5 42.5t64.5 137.5h-181
v-1zM702 869q-10 -63 -54 -91.5t-131 -28.5t-122 28.5t-25 91.5h108q-4 -26 7.5 -37.5t42.5 -11.5q59 0 66 49h108z" />
    <glyph glyph-name="gbreve" unicode="&#x11f;" 
d="M244 -10v-1q-115 0 -157 61.5t-20 198.5t83 198.5t176 61.5q110 0 154 -57l27 48h116l-72 -450q-21 -136 -92.5 -198t-207.5 -62q-112 0 -162 39.5t-49 127.5h141q2 -38 20 -54.5t57 -16.5q62 0 95.5 32.5t44.5 104.5l2 12q-58 -45 -156 -45zM303 104v1q58 0 89 34.5
t43 111.5q13 77 -7.5 111.5t-78.5 34.5t-88.5 -34.5t-43.5 -111.5q-12 -77 8 -112t78 -35zM568 699l1 1q-12 -79 -57 -114.5t-132 -35.5t-121 35.5t-22 114.5h100q-6 -37 6.5 -54t47.5 -17h9q58 3 68 70h100z" />
    <glyph glyph-name="Gdotaccent" unicode="&#x120;" horiz-adv-x="776" 
d="M443 290h1l18 113h338l-8 -54q-31 -194 -125 -282t-272 -88q-188 0 -259 88t-40 282t129.5 282t286.5 88q147 0 216 -57t74 -183h-157q-4 58 -40.5 83.5t-112.5 25.5q-98 0 -151.5 -56.5t-72.5 -182.5q-20 -126 14.5 -182.5t132.5 -56.5q96 0 145.5 42.5t64.5 137.5h-181
v-1zM541 885q45 0 62.5 -17.5t11.5 -55.5t-29 -55.5t-69 -17.5q-45 0 -63 17.5t-12 55.5q11 73 99 73z" />
    <glyph glyph-name="gdotaccent" unicode="&#x121;" 
d="M244 -10v-1q-115 0 -157 61.5t-20 198.5t83 198.5t176 61.5q110 0 154 -57l27 48h116l-72 -450q-21 -136 -92.5 -198t-207.5 -62q-112 0 -162 39.5t-49 127.5h141q2 -38 20 -54.5t57 -16.5q62 0 95.5 32.5t44.5 104.5l2 12q-58 -45 -156 -45zM303 103v1q58 0 89 34.5
t43 111.5t-8 111.5t-78 34.5t-89 -34.5t-43 -111.5t8 -112t78 -35zM365 703h1q45 0 62.5 -19.5t10.5 -62.5q-7 -42 -30.5 -61t-69.5 -19q-45 0 -62.5 19.5t-10.5 61.5q7 43 30.5 62t68.5 19z" />
    <glyph glyph-name="Gcedilla" unicode="&#x122;" horiz-adv-x="772" 
d="M441 290h1l18 113h338l-8 -54q-31 -194 -125 -282t-272 -88q-188 0 -259 88t-40 282t129.5 282t286.5 88q147 0 216 -57t74 -183h-157q-4 58 -40.5 83.5t-112.5 25.5q-98 0 -151.5 -56.5t-72.5 -182.5q-20 -126 14.5 -182.5t132.5 -56.5q96 0 145.5 42.5t64.5 137.5h-181
v-1zM390 -43v1q52 0 51 -56q0 -14 -3 -30q-10 -60 -41.5 -87t-90.5 -27l9 54q46 0 53 43q-29 0 -40.5 11t-7.5 35q0 4 2 12q11 44 68 44z" />
    <glyph glyph-name="gcedilla" unicode="&#x123;" horiz-adv-x="574" 
d="M242 -10v-1q-115 0 -157 61.5t-20 198.5t83 198.5t176 61.5q110 0 154 -57l27 48h116l-72 -450q-21 -136 -92.5 -198t-207.5 -62q-112 0 -162 39.5t-49 127.5h141q2 -38 20 -54.5t57 -16.5q62 0 95.5 32.5t44.5 104.5l2 12q-58 -45 -156 -45zM299 101l1 1q58 0 88.5 34.5
t43.5 111.5q12 77 -8 111.5t-78 34.5t-89 -34.5t-43 -111.5q-13 -77 7 -112t78 -35zM369 550l-1 -1q-52 0 -51 56q0 2 1 13t2 17q11 60 42 87t90 27l-8 -54q-46 0 -53 -43q29 0 40 -11t7 -35q0 -2 -0.5 -6t-0.5 -6q-11 -44 -68 -44z" />
    <glyph glyph-name="Itilde" unicode="&#x128;" horiz-adv-x="320" 
d="M188 700h165l-110 -700h-165zM115 760q8 51 41.5 80t77.5 29q29 0 51.5 -7.5t33 -16t24.5 -16t28 -7.5q11 0 20 8.5t10 20.5h60q-8 -51 -41.5 -80t-77.5 -29q-37 0 -62 12t-41.5 23.5t-33.5 11.5q-11 0 -19.5 -8t-10.5 -21h-60z" />
    <glyph glyph-name="itilde" unicode="&#x129;" horiz-adv-x="264" 
d="M206 0h-149l79 500h149zM56 579h-1q8 52 44 89.5t78 37.5q29 0 50.5 -12t30.5 -26t20.5 -26t22.5 -12t20 10.5t12 28.5h68q-8 -52 -44 -89.5t-78 -37.5q-29 0 -50.5 12t-30.5 26t-20 26t-22 12t-20 -10.5t-12 -28.5h-68z" />
    <glyph glyph-name="Imacron" unicode="&#x12a;" horiz-adv-x="320" 
d="M188 700h165l-110 -700h-165zM109 753l14 88h340l-14 -88h-340z" />
    <glyph glyph-name="imacron" unicode="&#x12b;" horiz-adv-x="264" 
d="M207 0h-149l79 500h149zM49 553l14 88h340l-14 -88h-340z" />
    <glyph glyph-name="Iogonek" unicode="&#x12e;" horiz-adv-x="320" 
d="M136 0l-1 1h-58l111 700h165l-111 -700h-31q-53 -40 -62 -82q-5 -36 34 -37h6q9 0 20 3t17 6l6 3l-20 -123q-33 -20 -73 -20q-12 0 -17 1q-51 7 -69 50t4.5 99.5t78.5 98.5z" />
    <glyph glyph-name="iogonek" unicode="&#x12f;" horiz-adv-x="280" 
d="M107 0l-1 1h-42l79 500h149l-79 -500h-31q-53 -40 -62 -82q-5 -36 34 -37h6q9 0 20 3t17 6l6 3l-20 -123q-33 -20 -73 -20q-12 0 -17 1q-51 7 -68.5 50t5 99.5t77.5 98.5zM250 728h1q45 0 62.5 -19t10.5 -62t-30.5 -62t-69.5 -19q-45 0 -62.5 19t-10.5 62t30.5 62
t68.5 19z" />
    <glyph glyph-name="Idotaccent" unicode="&#x130;" horiz-adv-x="324" 
d="M188 700h165l-110 -700h-165zM303 887q45 0 63 -17.5t11 -55.5q-6 -38 -29 -55.5t-69 -17.5q-45 0 -63 17.5t-12 55.5q7 38 30 55.5t69 17.5z" />
    <glyph glyph-name="dotlessi" unicode="&#x131;" horiz-adv-x="264" 
d="M206 0h-149l79 500h149z" />
    <glyph glyph-name="IJ" unicode="&#x132;" horiz-adv-x="907" 
d="M188 700h165l-110 -700h-165zM378 210h-2l5 36h157l-5 -36q-8 -53 7.5 -76t58.5 -23q44 0 67 23.5t31 75.5l77 490h165l-77 -490q-19 -116 -85.5 -168.5t-195.5 -52.5q-125 0 -173.5 52.5t-29.5 168.5z" />
    <glyph glyph-name="ij" unicode="&#x133;" horiz-adv-x="557" 
d="M214 0h-149l79 500h149zM273 -66v1q30 0 48.5 15.5t22.5 41.5l81 509h149l-83 -526q-12 -73 -59 -114t-120 -41h-135l18 114h78zM251 729h1q45 0 62.5 -19t10.5 -62t-30.5 -62t-69.5 -19q-45 0 -62.5 19t-10.5 62t30.5 62t68.5 19zM537 729h1q45 0 62.5 -19t10.5 -62
t-30.5 -62t-69.5 -19q-45 0 -62.5 19t-10.5 62t30.5 62t68.5 19z" />
    <glyph glyph-name="Kcedilla" unicode="&#x136;" horiz-adv-x="704" 
d="M353 700l-43 -273l280 273h199l-349 -340l259 -360h-199l-211 293l-46 -293h-165l110 700h165zM338 -42v1q52 0 51 -56q0 -13 -3 -30q-10 -60 -41.5 -87t-90.5 -27l9 54q46 0 53 43q-29 0 -40.5 11t-7.5 35q0 2 1 6t1 6q11 44 68 44z" />
    <glyph glyph-name="kcedilla" unicode="&#x137;" horiz-adv-x="575" 
d="M317 700l-62 -393l205 193h175l-254 -240l195 -260h-175l-161 213l-33 -213h-149l110 700h149zM280 -42v1q52 0 51 -56q0 -13 -3 -30q-10 -60 -41.5 -87t-90.5 -27l9 54q46 0 53 43q-29 0 -40.5 11t-7.5 35q0 2 1 6t1 6q11 44 68 44z" />
    <glyph glyph-name="Lacute" unicode="&#x139;" horiz-adv-x="558" 
d="M562 131l-21 -131h-464l110 700h165l-90 -569h300zM215 750l114 120h142l-138 -120h-118z" />
    <glyph glyph-name="lacute" unicode="&#x13a;" horiz-adv-x="289" 
d="M58 0l110 700h149l-110 -700h-149zM186 750l114 120h142l-138 -120h-118z" />
    <glyph glyph-name="Lcedilla" unicode="&#x13b;" horiz-adv-x="558" 
d="M562 131l-21 -131h-464l110 700h165l-90 -569h300zM302 -41v1q52 0 51 -56q0 -8 -2 -30q-10 -60 -42 -87t-91 -27l9 54q46 0 53 43q-29 0 -40.5 11t-7.5 35q0 2 1 6t1 6q11 44 68 44z" />
    <glyph glyph-name="lcedilla" unicode="&#x13c;" horiz-adv-x="260" 
d="M56 0l110 700h149l-110 -700h-149zM123 -41v1q52 0 51 -56q0 -8 -2 -30q-10 -60 -42 -87t-91 -27l9 54q46 0 53 43q-29 0 -40.5 11t-7.5 35q1 2 1 6t1 6q11 44 68 44z" />
    <glyph glyph-name="Lcaron" unicode="&#x13d;" horiz-adv-x="562" 
d="M562 131l-21 -131h-464l110 700h165l-90 -569h300zM458 709v1q52 0 51 -56q0 -14 -3 -30q-10 -60 -41.5 -87t-90.5 -27l9 54q46 0 53 43q-29 0 -40.5 11t-7.5 35q0 2 1 6t1 6q11 44 68 44z" />
    <glyph glyph-name="lcaron" unicode="&#x13e;" horiz-adv-x="351" 
d="M58 0l110 700h149l-110 -700h-149zM423 708v1q52 0 51 -56q0 -2 -1 -13t-2 -17q-10 -60 -41.5 -87t-90.5 -27l9 54q46 0 52 43q-28 0 -39.5 11t-7.5 35q0 4 2 12q11 44 68 44z" />
    <glyph glyph-name="Lslash" unicode="&#x141;" horiz-adv-x="572" 
d="M576 131l-21 -131h-464l48 305l-101 -55l18 114l101 55l44 281h165l-29 -183l212 115l-18 -114l-212 -115l-43 -272h300z" />
    <glyph glyph-name="lslash" unicode="&#x142;" horiz-adv-x="388" 
d="M70 266l18 114l100 55l42 265h149l-28 -176l101 55l-18 -114l-101 -55l-64 -410h-149l50 321z" />
    <glyph glyph-name="Nacute" unicode="&#x143;" horiz-adv-x="768" 
d="M644 700h157l-110 -700h-191l-189 484l-76 -484h-157l110 700h191l189 -484zM433 750l114 120h142l-138 -120h-118z" />
    <glyph glyph-name="nacute" unicode="&#x144;" horiz-adv-x="582" 
d="M253 500v-1l11 -40q57 50 155 50q103 0 140.5 -57t17.5 -183l-43 -270h-149l43 270q11 67 -5.5 97t-62.5 30q-49 0 -75 -30t-36 -96l-42 -270h-149l79 500h116zM312 549l121 150h150l-153 -150h-118z" />
    <glyph glyph-name="Ncedilla" unicode="&#x145;" horiz-adv-x="764" 
d="M642 700h157l-110 -700h-191l-189 484l-76 -484h-157l110 700h191l189 -484zM376 -41v1q52 0 51 -56q0 -8 -2 -30q-10 -60 -42 -87t-91 -27l9 54q46 0 53 43q-29 0 -40.5 11t-7.5 35q0 2 1 6t1 6q11 44 68 44z" />
    <glyph glyph-name="ncedilla" unicode="&#x146;" horiz-adv-x="578" 
d="M253 500v-1l11 -40q57 50 155 50q103 0 140.5 -57t17.5 -183l-43 -270h-149l43 270q11 67 -5.5 97t-62.5 30q-49 0 -75 -30t-36 -96l-42 -270h-149l79 500h116zM289 -42v1q52 0 51 -56q0 -13 -3 -30q-10 -60 -41.5 -87t-90.5 -27l9 54q46 0 53 43q-29 0 -40.5 11t-7.5 35
q1 2 1 6t1 6q11 44 68 44z" />
    <glyph glyph-name="Ncaron" unicode="&#x147;" horiz-adv-x="768" 
d="M644 700h157l-110 -700h-191l-189 484l-76 -484h-157l110 700h191l189 -484zM673 870l-105 -120h-149l-67 120h102l50 -58l68 58h101z" />
    <glyph glyph-name="ncaron" unicode="&#x148;" horiz-adv-x="582" 
d="M253 500v-1l11 -40q57 50 155 50q103 0 140.5 -57t17.5 -183l-43 -270h-149l43 270q11 67 -5.5 97t-62.5 30q-49 0 -75 -30t-36 -96l-42 -270h-149l79 500h116zM564 699h1l-108 -150h-149l-60 150h93l53 -79l77 79h93z" />
    <glyph glyph-name="Omacron" unicode="&#x14c;" horiz-adv-x="796" 
d="M512 720q188 0 259 -88t40 -282t-130 -282t-287 -88t-259 88t-40 282t130 282t287 88zM491 589q-97 0 -150 -56.5t-73 -182.5t14.5 -182.5t132.5 -56.5q97 0 150 56.5t73 182.5t-14.5 182.5t-132.5 56.5zM347 753l14 88h340l-14 -88h-340z" />
    <glyph glyph-name="omacron" unicode="&#x14d;" horiz-adv-x="592" 
d="M376 510q141 0 195 -61.5t32 -198.5t-95 -198.5t-214 -61.5t-195 61.5t-32 198.5t95 198.5t214 61.5zM216 250l-1 -1q-12 -77 11 -112t86 -35t96.5 35t45.5 112t-10.5 112t-85.5 35t-96.5 -34.5t-45.5 -111.5zM213 553l14 88h340l-14 -88h-340z" />
    <glyph glyph-name="Obreve" unicode="&#x14e;" horiz-adv-x="796" 
d="M512 720q188 0 259 -88t40 -282t-130 -282t-287 -88t-259 88t-40 282t130 282t287 88zM491 589q-97 0 -150 -56.5t-73 -182.5t14.5 -182.5t132.5 -56.5q97 0 150 56.5t73 182.5t-14.5 182.5t-132.5 56.5zM701 870q-10 -63 -54 -91.5t-131 -28.5t-122 28.5t-25 91.5h108
q-4 -26 8 -37.5t43 -11.5t46 11.5t19 37.5h108z" />
    <glyph glyph-name="obreve" unicode="&#x14f;" horiz-adv-x="592" 
d="M376 510q141 0 195 -61.5t32 -198.5t-95 -198.5t-214 -61.5t-195 61.5t-32 198.5t95 198.5t214 61.5zM216 251l-1 -1q-12 -77 11 -112t86 -35t96.5 35t45.5 112t-10.5 112t-85.5 35t-96 -34.5t-46 -111.5zM572 700l2 1q-13 -79 -58 -114.5t-132 -35.5t-121 35.5
t-21 114.5h100q-6 -38 6.5 -54.5t46.5 -16.5h9q31 1 47 18t21 52h100z" />
    <glyph glyph-name="Ohungarumlaut" unicode="&#x150;" horiz-adv-x="796" 
d="M512 720q188 0 259 -88t40 -282t-130 -282t-287 -88t-259 88t-40 282t130 282t287 88zM490 589q-97 0 -150 -56.5t-73 -182.5t14.5 -182.5t132.5 -56.5q97 0 150 56.5t73 182.5t-14.5 182.5t-132.5 56.5zM356 750l110 150h142l-143 -150h-109zM564 750h-1l111 150h142
l-143 -150h-109z" />
    <glyph glyph-name="ohungarumlaut" unicode="&#x151;" horiz-adv-x="608" 
d="M376 510q141 0 195 -61.5t32 -198.5t-95 -198.5t-214 -61.5t-195 61.5t-32 198.5t95 198.5t214 61.5zM214 250l-1 -1q-12 -77 11 -112t86 -35t96.5 35t45.5 112t-10.5 112t-85.5 35t-96.5 -34.5t-45.5 -111.5zM223 550l109 150h142l-142 -150h-109zM431 550h-1l110 150
h142l-142 -150h-109z" />
    <glyph glyph-name="OE" unicode="&#x152;" horiz-adv-x="1098" 
d="M1163 578l-1 -1h-324l-25 -155h284l-19 -122h-284l-28 -178h324l-19 -122h-472l11 75q-77 -92 -220 -95q-36 0 -67 3q-148 13 -202.5 101t-25.5 266q31 194 126.5 282t275.5 88q152 0 201 -96l12 76h472zM490 588q-98 0 -151 -56.5t-72 -182.5q-20 -126 14.5 -182.5
t132.5 -56.5q97 0 150 56.5t73 182.5t-15 182.5t-132 56.5z" />
    <glyph glyph-name="oe" unicode="&#x153;" horiz-adv-x="944" 
d="M580 201q-4 -112 92 -112q78 0 108 70h141q-27 -77 -99 -122t-166 -45q-108 0 -161 59q-66 -60 -201 -60q-141 0 -195 61.5t-32 198.5t95 198.5t214 61.5q135 0 182 -60q71 59 180 59q120 0 178 -70.5t39 -192.5l-8 -46h-367zM215 252l-1 -1q-12 -77 11 -112t86 -35
t96.5 35t45.5 112q13 77 -9.5 112t-85.5 35t-96.5 -34.5t-46.5 -111.5zM721 414q-55 0 -85 -33.5t-45 -90.5h220q10 59 -13.5 91.5t-76.5 32.5h1h-1z" />
    <glyph glyph-name="Racute" unicode="&#x154;" horiz-adv-x="716" 
d="M407 254h-123l-40 -254h-165l110 700h320q136 0 192 -63.5t40 -163.5q-24 -157 -175 -202l114 -271h-173zM303 368h147q110 0 127 105q8 49 -15.5 77t-78.5 28h-147zM386 750l114 120h142l-138 -120h-118z" />
    <glyph glyph-name="racute" unicode="&#x155;" horiz-adv-x="413" 
d="M246 250l1 1l-39 -250h-149l79 500h116l14 -46q53 56 127 56h72l-20 -131h-72q-63 0 -90 -27t-39 -103zM237 551l121 150h150l-153 -150h-118z" />
    <glyph glyph-name="Rcedilla" unicode="&#x156;" horiz-adv-x="728" 
d="M405 254h-123l-40 -254h-165l110 700h320q136 0 192 -63.5t40 -163.5q-24 -157 -175 -202l114 -271h-173zM300 369h147q55 0 87.5 28t40.5 77t-16 77t-79 28h-147zM351 -42v1q52 0 51 -56q0 -13 -3 -30q-10 -60 -41.5 -87t-90.5 -27l9 54q46 0 53 43q-29 0 -40.5 11
t-7.5 35q1 2 1 6t1 6q11 44 68 44z" />
    <glyph glyph-name="rcedilla" unicode="&#x157;" horiz-adv-x="405" 
d="M246 250l1 1l-39 -250h-149l79 500h116l14 -46q53 56 127 56h72l-20 -131h-72q-63 0 -90 -27t-39 -103zM125 -41v1q52 0 51 -56q0 -8 -2 -30q-10 -60 -42 -87t-91 -27l9 54q46 0 53 43q-29 0 -40.5 11t-7.5 35q1 2 1 6t1 6q11 44 68 44z" />
    <glyph glyph-name="Rcaron" unicode="&#x158;" horiz-adv-x="716" 
d="M401 254l1 1h-118l-40 -254h-165l111 700h320q135 0 191 -65t40 -163q-25 -159 -181 -204l121 -269h-173zM301 370h155q55 0 84.5 29t36.5 76q16 104 -88 104h-155zM626 871l-105 -120h-149l-67 120h102l50 -58l68 58h101z" />
    <glyph glyph-name="rcaron" unicode="&#x159;" horiz-adv-x="405" 
d="M246 250l1 1l-39 -250h-149l79 500h116l14 -46q53 56 127 56h72l-20 -131h-72q-63 0 -90 -27t-39 -103zM489 701h1l-108 -150h-149l-60 150h93l52 -79l78 79h93z" />
    <glyph glyph-name="Sacute" unicode="&#x15a;" horiz-adv-x="656" 
d="M288 520v-2q-5 -29 22 -49t71 -29.5t94.5 -26t93 -37.5t66 -65.5t13.5 -107.5q-19 -119 -96 -172.5t-228 -53.5q-152 0 -212 52.5t-41 167.5h149q-9 -56 19.5 -81t102.5 -25q70 0 104 20.5t42 66.5q5 31 -14.5 52.5t-53.5 34t-76 23.5t-83.5 25.5t-74.5 34.5t-49.5 57
t-8.5 88q19 119 93 172.5t220 53.5t204 -52t40 -168h-149q8 56 -18.5 81.5t-94.5 25.5q-64 0 -95.5 -20t-39.5 -66zM375 748l114 120h142l-138 -120h-118z" />
    <glyph glyph-name="sacute" unicode="&#x15b;" horiz-adv-x="504" 
d="M228 371h3q-3 -21 17.5 -34.5t54 -18.5t71.5 -15t69.5 -23.5t49.5 -45.5t10 -79q-14 -87 -75.5 -126.5t-183.5 -39.5q-113 0 -158.5 38t-32.5 122h141q-6 -38 10 -55t58 -17t63 14.5t25 46.5q5 28 -23.5 42.5t-71 21.5t-84.5 19t-67.5 45t-16.5 88q13 82 70 119t172 37
q110 0 154.5 -35.5t32.5 -114.5h-133q5 33 -11.5 47.5t-57.5 14.5q-78 0 -86 -51zM268 550l120 150h150l-152 -150h-118z" />
    <glyph glyph-name="Scircumflex" unicode="&#x15c;" horiz-adv-x="656" 
d="M288 520v-2q-5 -29 22 -49t71 -29.5t94.5 -26t93 -37.5t66 -65.5t13.5 -107.5q-19 -119 -96 -172.5t-228 -53.5q-152 0 -212 52.5t-41 167.5h149q-9 -56 19.5 -81t102.5 -25q70 0 104 20.5t42 66.5q5 31 -14.5 52.5t-53.5 34t-76 23.5t-83.5 25.5t-74.5 34.5t-49.5 57
t-8.5 88q19 119 93 172.5t220 53.5t204 -52t40 -168h-149q8 56 -18.5 81.5t-94.5 25.5q-64 0 -95.5 -20t-39.5 -66zM539 868h1l67 -120h-102l-50 58l-68 -58h-102l105 120h149z" />
    <glyph glyph-name="scircumflex" unicode="&#x15d;" horiz-adv-x="504" 
d="M228 371h3q-3 -21 17.5 -34.5t54 -18.5t71.5 -15t69.5 -23.5t49.5 -45.5t10 -79q-14 -87 -75.5 -126.5t-183.5 -39.5q-113 0 -158.5 38t-32.5 122h141q-6 -38 10 -55t58 -17t63 14.5t25 46.5q5 28 -23.5 42.5t-71 21.5t-84.5 19t-67.5 45t-16.5 88q13 82 70 119t172 37
q110 0 154.5 -35.5t32.5 -114.5h-133q5 33 -11.5 47.5t-57.5 14.5q-78 0 -86 -51zM435 700l60 -150h-93l-53 79l-77 -79h-93l107 150h149z" />
    <glyph glyph-name="Scedilla" unicode="&#x15e;" horiz-adv-x="656" 
d="M274 -21q-122 8 -170.5 60.5t-31.5 157.5h149q-9 -56 19.5 -81t102.5 -25q70 0 104 20.5t42 66.5q5 31 -14.5 52.5t-53.5 34t-76 23.5t-83.5 25.5t-74.5 34.5t-49.5 57t-8.5 88q19 119 93 172.5t220 53.5t204 -52t40 -168h-149q8 56 -18.5 81.5t-94.5 25.5
q-64 0 -95.5 -20t-39.5 -66q-4 -26 16 -43.5t54.5 -28t76.5 -21t83 -26t73.5 -38t49 -63t7.5 -95.5q-18 -113 -88.5 -167t-206.5 -59l-13 -31l10 -2.5t21 -8.5t26 -16t18.5 -25.5t4.5 -36.5q-8 -52 -67 -81t-156 -29l10 63q98 0 105 48q3 18 -19.5 27t-54.5 9z" />
    <glyph glyph-name="scedilla" unicode="&#x15f;" horiz-adv-x="504" 
d="M199 -11q-88 7 -123 45.5t-23 113.5h141q-6 -38 10 -55t58 -17t62.5 14.5t25.5 46.5q5 28 -23.5 42.5t-71 21.5t-84.5 19t-68 45t-17 88q14 82 71 119t172 37q110 0 154.5 -35.5t31.5 -114.5h-133q5 33 -11 47.5t-57 14.5q-78 0 -86 -51q-3 -21 17.5 -34.5t53.5 -18.5
t71 -15t70 -23.5t50 -45.5t10 -79q-13 -81 -66 -120.5t-156 -44.5l-17 -41l10 -2.5t21 -8.5t26 -16t18.5 -25.5t4.5 -36.5q-8 -52 -67 -81t-156 -29l10 63q98 0 105 48q3 18 -19.5 27t-54.5 9z" />
    <glyph glyph-name="Scaron" unicode="&#x160;" horiz-adv-x="656" 
d="M288 520v-2q-5 -29 22 -49t71 -29.5t94.5 -26t93 -37.5t66 -65.5t13.5 -107.5q-19 -119 -96 -172.5t-228 -53.5q-152 0 -212 52.5t-41 167.5h149q-9 -56 19.5 -81t102.5 -25q70 0 104 20.5t42 66.5q5 31 -14.5 52.5t-53.5 34t-76 23.5t-83.5 25.5t-74.5 34.5t-49.5 57
t-8.5 88q19 119 93 172.5t220 53.5t204 -52t40 -168h-149q8 56 -18.5 81.5t-94.5 25.5q-64 0 -95.5 -20t-39.5 -66zM616 868l-105 -120h-149l-67 120h102l50 -58l68 58h101z" />
    <glyph glyph-name="scaron" unicode="&#x161;" horiz-adv-x="504" 
d="M228 371h3q-3 -21 17.5 -34.5t54 -18.5t71.5 -15t69.5 -23.5t49.5 -45.5t10 -79q-14 -87 -75.5 -126.5t-183.5 -39.5q-113 0 -158.5 38t-32.5 122h141q-6 -38 10 -55t58 -17t63 14.5t25 46.5q5 28 -23.5 42.5t-71 21.5t-84.5 19t-67.5 45t-16.5 88q13 82 70 119t172 37
q110 0 154.5 -35.5t32.5 -114.5h-133q5 33 -11.5 47.5t-57.5 14.5q-78 0 -86 -51zM519 700h1l-107 -150h-149l-61 150h93l53 -79l77 79h93z" />
    <glyph glyph-name="Tcedilla" unicode="&#x162;" horiz-adv-x="608" 
d="M260 -2h-38l89 561h-206l22 139h576l-22 -139h-206l-89 -561h-48l-21 -50l10 -2.5t21 -8.5t26 -16t18.5 -25.5t4.5 -36.5q-8 -52 -67 -81t-156 -29l10 63q98 0 105 48q3 18 -19.5 27t-54.5 9z" />
    <glyph glyph-name="tcedilla" unicode="&#x163;" horiz-adv-x="415" 
d="M199 4q-47 13 -68 51.5t-11 96.5l39 249h-80l15 97h80l20 127h149l-20 -127h144l-15 -97h-144l-37 -232q-4 -26 10 -41.5t43 -15.5h82l-18 -114h-112l-21 -50l10 -2.5t21 -8.5t26 -16t18.5 -25.5t4.5 -36.5q-8 -52 -67 -81t-156 -29l10 63q98 0 105 48q3 18 -19.5 27
t-54.5 9z" />
    <glyph glyph-name="Tcaron" unicode="&#x164;" horiz-adv-x="608" 
d="M702 700h1l-22 -139h-206l-88 -561h-165l88 561h-206l22 139h576zM593 870l-105 -120h-149l-67 120h102l50 -58l68 58h101z" />
    <glyph glyph-name="tcaron" unicode="&#x165;" horiz-adv-x="429" 
d="M272 171l-2 -1q-4 -26 10 -41.5t43 -15.5h82l-18 -114h-138q-73 0 -106.5 41t-22.5 114l39 249h-80l16 97h80l20 127h149l-20 -127h144l-16 -97h-144zM454 723v2q54 0 51 -56q0 -8 -2 -30q-11 -61 -42.5 -88.5t-90.5 -27.5l9 54q46 0 53 44q-29 0 -40.5 11t-7.5 35
q0 2 1 6t1 6q11 44 68 44z" />
    <glyph glyph-name="Utilde" unicode="&#x168;" horiz-adv-x="732" 
d="M109 259l67 441h165l-69 -441q-13 -78 13 -113t97 -35t108 35t50 113l69 441h165l-69 -441q-23 -146 -104.5 -212.5t-238.5 -66.5t-216.5 66.5t-36.5 212.5zM318 760q8 51 41.5 80t77.5 29q29 0 51.5 -7.5t33 -16t24.5 -16t28 -7.5q11 0 20 8.5t10 20.5h60
q-8 -51 -41.5 -80t-77.5 -29q-37 0 -62 12t-41.5 23.5t-33.5 11.5q-11 0 -19.5 -8t-10.5 -21h-60z" />
    <glyph glyph-name="utilde" unicode="&#x169;" horiz-adv-x="582" 
d="M408 0h-1l-12 40q-56 -50 -154 -50q-103 0 -140.5 57t-17.5 183l43 270h149l-43 -270q-11 -67 5.5 -97t62.5 -30q49 1 75 31t36 96l43 270h149l-79 -500h-116zM214 600h-1q8 52 44 89.5t78 37.5q29 0 50.5 -12t30.5 -26t20.5 -26t22.5 -12t20 10.5t12 28.5h68
q-8 -52 -44 -89.5t-78 -37.5q-29 0 -50.5 12t-30.5 26t-20 26t-22 12t-20.5 -10.5t-11.5 -28.5h-68z" />
    <glyph glyph-name="Umacron" unicode="&#x16a;" horiz-adv-x="732" 
d="M109 259l67 441h165l-69 -441q-13 -78 13 -113t97 -35t108 35t50 113l69 441h165l-69 -441q-23 -146 -104.5 -212.5t-238.5 -66.5t-216.5 66.5t-36.5 212.5zM313 753l14 88h340l-14 -88h-340z" />
    <glyph glyph-name="umacron" unicode="&#x16b;" horiz-adv-x="582" 
d="M408 0h-1l-12 40q-56 -50 -154 -50q-103 0 -140.5 57t-17.5 183l43 270h149l-43 -270q-11 -67 5.5 -97t62.5 -30q49 1 75 31t36 96l43 270h149l-79 -500h-116zM192 553l14 88h340l-14 -88h-340z" />
    <glyph glyph-name="Ubreve" unicode="&#x16c;" horiz-adv-x="732" 
d="M109 259l67 441h165l-69 -441q-13 -78 13 -113t97 -35t108 35t50 113l69 441h165l-69 -441q-23 -146 -104.5 -212.5t-238.5 -66.5t-216.5 66.5t-36.5 212.5zM667 870q-10 -63 -54 -91.5t-131 -28.5t-122 28.5t-25 91.5h108q-4 -26 8 -37.5t43 -11.5t46 11.5t19 37.5h108z
" />
    <glyph glyph-name="ubreve" unicode="&#x16d;" horiz-adv-x="582" 
d="M408 0h-1l-12 40q-56 -50 -154 -50q-103 0 -140.5 57t-17.5 183l43 270h149l-43 -270q-11 -67 5.5 -97t62.5 -30q49 1 75 31t36 96l43 270h149l-79 -500h-116zM551 700l2 1q-13 -79 -58 -114.5t-132 -35.5t-121 35.5t-21 114.5h100q-6 -38 6.5 -54.5t46.5 -16.5h9
q31 1 47 18t21 52h100z" />
    <glyph glyph-name="Uring" unicode="&#x16e;" horiz-adv-x="732" 
d="M109 259l67 441h165l-69 -441q-13 -78 13 -113t97 -35t108 35t50 113l69 441h165l-69 -441q-23 -146 -104.5 -212.5t-238.5 -66.5t-216.5 66.5t-36.5 212.5zM507 904q65 0 90.5 -25.5t16.5 -81.5t-42.5 -81.5t-98.5 -25.5t-90.5 25.5t-16.5 81.5t42.5 81.5t98.5 25.5z
M483 753h1q25 0 37.5 10.5t16.5 34.5q4 23 -6 33.5t-35 10.5q-48 0 -55 -45q-4 -23 6 -33.5t35 -10.5z" />
    <glyph glyph-name="uring" unicode="&#x16f;" horiz-adv-x="582" 
d="M408 0h-1l-12 40q-56 -50 -154 -50q-103 0 -140.5 57t-17.5 183l43 270h149l-43 -270q-11 -67 5.5 -97t62.5 -30q49 1 75 31t36 96l43 270h149l-79 -500h-116zM392 743q65 0 90.5 -25.5t16.5 -81.5t-42.5 -81.5t-98.5 -25.5t-90.5 25.5t-16.5 81.5t42.5 81.5t98.5 25.5z
M368 592h1q25 0 37.5 10.5t16.5 34.5q4 23 -6 33.5t-35 10.5q-48 0 -55 -45q-4 -23 6 -33.5t35 -10.5z" />
    <glyph glyph-name="Uhungarumlaut" unicode="&#x170;" horiz-adv-x="732" 
d="M109 259l67 441h165l-69 -441q-13 -78 13 -113t97 -35t108 35t50 113l69 441h165l-69 -441q-23 -146 -104.5 -212.5t-238.5 -66.5t-216.5 66.5t-36.5 212.5zM322 750l110 150h142l-143 -150h-109zM530 750h-1l111 150h142l-143 -150h-109z" />
    <glyph glyph-name="uhungarumlaut" unicode="&#x171;" horiz-adv-x="582" 
d="M408 0h-1l-12 40q-56 -50 -154 -50q-103 0 -140.5 57t-17.5 183l43 270h149l-43 -270q-11 -67 5.5 -97t62.5 -30q49 1 75 31t36 96l43 270h149l-79 -500h-116zM202 550l109 150h142l-142 -150h-109zM410 550h-1l110 150h142l-142 -150h-109z" />
    <glyph glyph-name="Uogonek" unicode="&#x172;" horiz-adv-x="732" 
d="M402 -19h-2q-13 -1 -40 -1q-157 0 -216.5 66.5t-36.5 212.5l69 441h165l-69 -441q-13 -78 13 -113t97 -35t108 35t50 113l69 441h165l-69 -441q-18 -112 -69 -176.5t-142 -87.5q-51 -43 -56 -82q2 -30 35 -32h6q9 0 20 3t17 6l6 3l-20 -123q-33 -20 -73 -20q-12 0 -17 1
q-48 6 -66.5 44.5t-3 90.5t59.5 95z" />
    <glyph glyph-name="uogonek" unicode="&#x173;" horiz-adv-x="582" 
d="M407 1h-2l-11 39q-56 -50 -154 -50q-103 0 -140.5 57t-17.5 183l43 270h149l-43 -270q-11 -67 5.5 -97t62.5 -30q49 1 75 31t36 96l43 270h149l-79 -500h-43q-53 -40 -62 -82q-5 -36 34 -37h6q9 0 20 3t17 6l6 3l-20 -123q-33 -20 -73 -20q-12 0 -17 1q-52 7 -69.5 50.5
t6 100.5t79.5 99z" />
    <glyph glyph-name="Wcircumflex" unicode="&#x174;" horiz-adv-x="1001" 
d="M511 700h2h197l18 -542l204 542h165l-281 -700h-214l-23 538l-180 -538h-214l-61 700h165l34 -541zM709 870h1l67 -120h-102l-50 58l-68 -58h-102l105 120h149z" />
    <glyph glyph-name="wcircumflex" unicode="&#x175;" horiz-adv-x="841" 
d="M685 0h-181l-21 393l-145 -393h-181h-1l-69 500h149l35 -381l142 381h181l14 -379l155 379h149zM607 700l60 -150h-93l-53 79l-77 -79h-93l107 150h149z" />
    <glyph glyph-name="Ycircumflex" unicode="&#x176;" horiz-adv-x="665" 
d="M457 266h1l-42 -266h-157l42 266l-180 434h181l101 -279l189 279h173zM551 870h1l67 -120h-102l-50 58l-68 -58h-102l105 120h149z" />
    <glyph glyph-name="ycircumflex" unicode="&#x177;" horiz-adv-x="516" 
d="M212 1v1l6 11l-139 487h141l82 -311l152 311h141l-246 -484q-28 -54 -35 -66q-41 -69 -89.5 -100t-115.5 -31h-72l15 97h64h6q28 2 45.5 17t44.5 68zM451 700l60 -150h-93l-53 79l-77 -79h-93l107 150h149z" />
    <glyph glyph-name="Ydieresis" unicode="&#x178;" horiz-adv-x="664" 
d="M450 266h1l-42 -266h-157l42 266l-180 434h181l101 -279l189 279h173zM357 878q45 0 62.5 -17.5t11.5 -55.5q-11 -73 -99 -73q-45 0 -62.5 17.5t-11.5 55.5q11 73 99 73zM590 878q45 0 62.5 -17.5t11.5 -55.5q-11 -73 -99 -73q-45 0 -62.5 17.5t-11.5 55.5q11 73 99 73z
" />
    <glyph glyph-name="Zacute" unicode="&#x179;" horiz-adv-x="592" 
d="M224 122h374l-19 -122h-564l16 104l439 474h-354l19 122h544l-16 -104zM337 750l114 120h142l-138 -120h-118z" />
    <glyph glyph-name="zacute" unicode="&#x17a;" horiz-adv-x="476" 
d="M207 105h270l-16 -105h-444l13 87l309 308h-250l17 105h424l-14 -87zM256 550l120 150h150l-152 -150h-118z" />
    <glyph glyph-name="Zdotaccent" unicode="&#x17b;" horiz-adv-x="608" 
d="M232 122h374l-19 -122h-564l16 104l439 474h-354l19 122h544l-16 -104zM447 886q45 0 62.5 -17.5t11.5 -55.5t-29 -55.5t-69 -17.5q-45 0 -63 17.5t-12 55.5q11 73 99 73z" />
    <glyph glyph-name="zdotaccent" unicode="&#x17c;" horiz-adv-x="476" 
d="M207 105h270l-16 -105h-444l13 87l309 308h-250l17 105h424l-14 -87zM352 704h1q45 0 62.5 -19.5t10.5 -62.5q-7 -42 -30.5 -61t-69.5 -19q-45 0 -62.5 19.5t-10.5 61.5q7 43 30.5 62t68.5 19z" />
    <glyph glyph-name="Zcaron" unicode="&#x17d;" horiz-adv-x="592" 
d="M224 122h374l-19 -122h-564l16 104l439 474h-354l19 122h544l-16 -104zM585 870l-105 -120h-149l-67 120h102l50 -58l68 58h101z" />
    <glyph glyph-name="zcaron" unicode="&#x17e;" horiz-adv-x="476" 
d="M207 105h270l-16 -105h-444l13 87l309 308h-250l17 105h424l-14 -87zM507 700h1l-107 -150h-149l-61 150h93l53 -79l77 79h93z" />
    <glyph glyph-name="Aacutering" unicode="&#x1fa;" horiz-adv-x="696" 
d="M12 0l341 700h72h68h88l104 -700h-173l-18 140h-254l-63 -140h-165zM294 254h188l-40 327zM554 896h1q57 -21 48 -80q-7 -44 -43.5 -66.5t-94.5 -22.5t-87.5 23t-22.5 66q7 42 41.5 64.5t89.5 24.5l48 55h94zM473 782q56 0 62 34q2 17 -11.5 25.5t-39.5 8.5
q-57 0 -61 -34q-3 -17 10.5 -25.5t39.5 -8.5z" />
    <glyph glyph-name="aacutering" unicode="&#x1fb;" horiz-adv-x="552" 
d="M376 42h-1q-55 -52 -162 -52q-99 0 -137.5 38t-25.5 121q14 89 78 129.5t192 40.5h86l3 21q7 43 -10 62.5t-61 19.5t-66 -17t-28 -55h-141q14 84 73.5 122t179.5 38q119 0 166.5 -44.5t32.5 -142.5l-51 -323h-116zM199 157l2 1q-6 -34 10 -48t59 -14q49 0 75.5 22
t37.5 71q1 4 3 18l4 24h-65h-17q-52 -2 -77 -18.5t-32 -55.5zM473 702q33 -26 25 -75q-8 -45 -45 -71.5t-95 -26.5t-87 26.5t-21 71.5q7 45 44 71.5t95 26.5h15l58 55h110zM369 592q27 0 39 8.5t15 27.5t-6.5 27.5t-35.5 8.5q-27 0 -39 -8.5t-15 -27.5t6.5 -27.5t35.5 -8.5z
" />
    <glyph glyph-name="AEacute" unicode="&#x1fc;" horiz-adv-x="940" 
d="M1005 578v-1h-306l-25 -155h266l-19 -122h-266l-28 -178h306l-19 -122h-454l22 140h-216l-89 -140h-165l460 700l96 -1v1h456zM553 593l-215 -340h162zM594 749l114 120h142l-138 -120h-118z" />
    <glyph glyph-name="aeacute" unicode="&#x1fd;" horiz-adv-x="900" 
d="M536 201q-2 -40 7 -65t30 -37t55 -12q42 0 67.5 16.5t42.5 54.5h141q-31 -88 -93.5 -127.5t-171.5 -39.5q-151 0 -177 111q-56 -111 -221 -111q-98 0 -137 38t-26 121q14 85 71.5 125.5t171.5 44.5h31h80l4 21v5q4 36 -14 52t-62 16q-43 0 -64 -14.5t-26 -48.5h-141
q14 84 73.5 122t179.5 38q123 0 157 -67q62 66 180 66q136 0 187.5 -62.5t29.5 -200.5l-8 -46h-367zM393 231l-1 -1h-70q-58 0 -86.5 -17.5t-34.5 -56.5v-4q-4 -30 13 -43.5t58 -13.5h7q49 1 75 25t34 77zM679 413h1q-52 0 -83.5 -29.5t-47.5 -93.5h220q10 65 -11 94t-78 29
h-1zM464 551l121 150h150l-153 -150h-118z" />
    <glyph glyph-name="Oslashacute" unicode="&#x1fe;" horiz-adv-x="796" 
d="M627 780h98l-44 -86q89 -34 120 -118t8 -225q-31 -194 -130 -282t-287 -88q-37 0 -70 3l-32 -63h-101l42 82q-94 33 -127 117.5t-10 229.5q31 194 130 282t287 88q40 0 83 -5zM525 586q-16 3 -37 3q-97 0 -150 -56.5t-73 -182.5q-25 -154 35 -207zM386 111h1q9 -1 27 -1
q97 0 150 56.5t73 182.5q23 147 -29 200zM419 750l114 120h142l-138 -120h-118z" />
    <glyph glyph-name="oslashacute" unicode="&#x1ff;" horiz-adv-x="592" 
d="M376 510v1q28 0 54 -3l32 62h68l-38 -74q74 -22 101 -82t10 -164q-22 -137 -95 -198.5t-214 -61.5q-28 0 -54 3l-30 -62h-69l36 74q-73 22 -100 82t-10 163q22 137 95 198.5t214 61.5zM216 251h-1q-15 -93 22 -125l136 271h-15q-63 0 -96 -34.5t-46 -111.5zM432 377
l-136 -273h16q63 0 96.5 35t45.5 112q15 95 -22 126zM281 551l121 150h150l-153 -150h-118z" />
    <glyph glyph-name="Scommaaccent" unicode="&#x218;" horiz-adv-x="656" 
d="M288 520v-2q-5 -29 22 -49t71 -29.5t94.5 -26t93 -37.5t66 -65.5t13.5 -107.5q-19 -119 -96 -172.5t-228 -53.5q-152 0 -212 52.5t-41 167.5h149q-9 -56 19.5 -81t102.5 -25q70 0 104 20.5t42 66.5q5 31 -14.5 52.5t-53.5 34t-76 23.5t-83.5 25.5t-74.5 34.5t-49.5 57
t-8.5 88q19 119 93 172.5t220 53.5t204 -52t40 -168h-149q8 56 -18.5 81.5t-94.5 25.5q-64 0 -95.5 -20t-39.5 -66zM321 -44v1q52 0 51 -56q0 -2 -1 -13t-2 -17q-11 -60 -42 -87t-90 -27l9 54q46 0 52 43q-28 0 -39.5 11t-7.5 35q0 4 2 12q10 44 68 44z" />
    <glyph glyph-name="scommaaccent" unicode="&#x219;" horiz-adv-x="500" 
d="M226 371h3q-3 -21 17.5 -34.5t54 -18.5t71.5 -15t69.5 -23.5t49.5 -45.5t10 -79q-14 -87 -75.5 -126.5t-183.5 -39.5q-113 0 -158.5 38t-32.5 122h141q-6 -38 10 -55t58 -17t63 14.5t25 46.5q5 28 -23.5 42.5t-71 21.5t-84.5 19t-67.5 45t-16.5 88q13 82 70 119t172 37
q110 0 154.5 -35.5t32.5 -114.5h-133q5 33 -11.5 47.5t-57.5 14.5q-78 0 -86 -51zM242 -42v1q52 0 51 -56q0 -13 -3 -30q-10 -60 -41.5 -87t-90.5 -27l9 54q46 0 53 43q-29 0 -40.5 11t-7.5 35q0 2 1 6t1 6q11 44 68 44z" />
    <glyph glyph-name="uni021A" unicode="&#x21a;" horiz-adv-x="608" 
d="M702 700h1l-22 -139h-206l-88 -561h-165l88 561h-206l22 139h576zM298 -41v1q52 0 51 -56q0 -8 -2 -30q-10 -60 -42 -87t-91 -27l9 54q46 0 53 43q-29 0 -40.5 11t-7.5 35q0 2 1 6t1 6q11 44 68 44z" />
    <glyph glyph-name="uni021B" unicode="&#x21b;" horiz-adv-x="414" 
d="M272 171l-2 -1q-4 -26 10 -41.5t43 -15.5h82l-18 -114h-138q-73 0 -106.5 41t-22.5 114l39 249h-80l16 97h80l20 127h149l-20 -127h144l-16 -97h-144zM219 -43v1q52 0 51 -56q0 -14 -3 -30q-10 -60 -41.5 -87t-90.5 -27l9 54q46 0 53 43q-29 0 -40.5 11t-7.5 35q0 4 2 12
q11 44 68 44z" />
    <glyph glyph-name="circumflex" unicode="&#x2c6;" horiz-adv-x="372" 
d="M370 700l60 -150h-93l-53 79l-77 -79h-93l107 150h149z" />
    <glyph glyph-name="caron" unicode="&#x2c7;" horiz-adv-x="372" 
d="M454 700h1l-107 -150h-149l-61 150h93l53 -79l77 79h93z" />
    <glyph glyph-name="breve" unicode="&#x2d8;" horiz-adv-x="388" 
d="M470 700l2 1q-13 -79 -58 -114.5t-132 -35.5t-121 35.5t-21 114.5h100q-6 -38 6.5 -54.5t46.5 -16.5h9q31 1 47 18t21 52h100z" />
    <glyph glyph-name="dotaccent" unicode="&#x2d9;" horiz-adv-x="228" 
d="M228 726h1q45 0 62.5 -19.5t10.5 -62.5q-6 -42 -29.5 -61t-69.5 -19q-45 0 -62.5 19.5t-10.5 61.5q7 43 30 62t68 19z" />
    <glyph glyph-name="ring" unicode="&#x2da;" horiz-adv-x="304" 
d="M267 727q65 0 90.5 -25.5t16.5 -81.5t-42.5 -81.5t-98.5 -25.5t-90.5 25.5t-16.5 81.5t42.5 81.5t98.5 25.5zM243 576h1q25 0 37.5 10.5t16.5 34.5q4 23 -6 33.5t-35 10.5q-48 0 -55 -45q-4 -23 6 -33.5t35 -10.5z" />
    <glyph glyph-name="ogonek" unicode="&#x2db;" horiz-adv-x="235" 
d="M119 17v1h76q-58 -33 -81 -81q-20 -44 13 -53q6 -2 15 -2h6q9 0 20 3t17 6l6 3l-20 -123q-33 -20 -73 -20q-12 0 -17 1q-33 4 -52.5 25t-22 51t7.5 63.5t37.5 67.5t67.5 58z" />
    <glyph glyph-name="tilde" unicode="&#x2dc;" horiz-adv-x="388" 
d="M123 600h-1q8 52 44 89.5t78 37.5q29 0 50.5 -12t30.5 -26t20.5 -26t22.5 -12t20 10.5t12 28.5h68q-8 -52 -44 -89.5t-78 -37.5q-29 0 -50.5 12t-30.5 26t-20 26t-22 12t-20.5 -10.5t-11.5 -28.5h-68z" />
    <glyph glyph-name="hungarumlaut" unicode="&#x2dd;" horiz-adv-x="492" 
d="M115 550l109 150h142l-142 -150h-109zM323 550h-1l110 150h142l-142 -150h-109z" />
    <glyph glyph-name="Wgrave" unicode="&#x1e80;" horiz-adv-x="1000" 
d="M511 700h2h197l18 -542l204 542h165l-281 -700h-214l-23 538l-180 -538h-214l-61 700h165l34 -541zM602 870l84 -120h-110l-108 120h134z" />
    <glyph glyph-name="wgrave" unicode="&#x1e81;" horiz-adv-x="841" 
d="M685 0h-181l-21 393l-145 -393h-181h-1l-69 500h149l35 -381l142 381h181l14 -379l155 379h149zM506 700l73 -150h-117l-106 150h150z" />
    <glyph glyph-name="Wacute" unicode="&#x1e82;" horiz-adv-x="1000" 
d="M511 700h2h197l18 -542l204 542h165l-281 -700h-214l-23 538l-180 -538h-214l-61 700h165l34 -541zM546 750l114 120h142l-138 -120h-118z" />
    <glyph glyph-name="wacute" unicode="&#x1e83;" horiz-adv-x="841" 
d="M685 0h-181l-21 393l-145 -393h-181h-1l-69 500h149l35 -381l142 381h181l14 -379l155 379h149zM431 550l120 150h150l-152 -150h-118z" />
    <glyph glyph-name="Wdieresis" unicode="&#x1e84;" horiz-adv-x="996" 
d="M509 700h2h197l18 -542l204 542h165l-281 -700h-214l-23 538l-180 -538h-214l-61 700h165l34 -541zM520 878q45 0 62.5 -17.5t11.5 -55.5q-11 -73 -99 -73q-45 0 -62.5 17.5t-11.5 55.5q11 73 99 73zM753 878q45 0 62.5 -17.5t11.5 -55.5q-11 -73 -99 -73
q-45 0 -62.5 17.5t-11.5 55.5q11 73 99 73z" />
    <glyph glyph-name="wdieresis" unicode="&#x1e85;" horiz-adv-x="841" 
d="M685 0h-181l-21 393l-145 -393h-181h-1l-69 500h149l35 -381l142 381h181l14 -379l155 379h149zM424 695h1q45 0 62 -20.5t10 -65.5q-7 -44 -31 -64.5t-70 -20.5q-45 0 -62 20t-10 65t31 65.5t69 20.5zM641 695h1q45 0 62 -20.5t10 -65.5q-7 -44 -31 -64.5t-70 -20.5
q-45 0 -62 20t-10 65t31 65.5t69 20.5z" />
    <glyph glyph-name="uni1E9E" unicode="&#x1e9e;" horiz-adv-x="662" 
d="M446 720v3q136 0 191 -45t39 -145q-8 -53 -39.5 -85t-91.5 -53q70 -22 96.5 -65.5t14.5 -118.5q-17 -110 -75 -159.5t-168 -49.5q-26 0 -52 5t-39 10l-14 5l17 105q34 -11 66 -11q53 0 81.5 24.5t36.5 78.5q10 60 -21 86.5t-111 26.5l17 107q67 0 100 19t40 61
q7 46 -16 67.5t-82 20.5q-66 -1 -99 -30t-44 -94l-76 -483h-149l76 482q19 125 91 181.5t211 56.5z" />
    <glyph glyph-name="Ygrave" unicode="&#x1ef2;" horiz-adv-x="665" 
d="M457 266h1l-42 -266h-157l42 266l-180 434h181l101 -279l189 279h173zM444 870l84 -120h-110l-108 120h134z" />
    <glyph glyph-name="ygrave" unicode="&#x1ef3;" horiz-adv-x="516" 
d="M212 1v1l6 11l-139 487h141l82 -311l152 311h141l-246 -484q-28 -54 -35 -66q-41 -69 -89.5 -100t-115.5 -31h-72l15 97h64h6q28 2 45.5 17t44.5 68zM350 700l73 -150h-117l-106 150h150z" />
    <glyph glyph-name="endash" unicode="&#x2013;" horiz-adv-x="576" 
d="M599 323l-18 -114h-520l18 114h520z" />
    <glyph glyph-name="emdash" unicode="&#x2014;" horiz-adv-x="796" 
d="M819 323l-18 -114h-740l18 114h740z" />
    <glyph glyph-name="quoteleft" unicode="&#x2018;" horiz-adv-x="276" 
d="M203 364l1 1q-41 0 -60 21.5t-18 67.5q2 31 5 47q16 105 62.5 152.5t131.5 47.5l-12 -71q-37 0 -57 -23t-28 -73q41 0 57 -20t10 -64q-2 -14 -4 -20q-19 -66 -88 -66z" />
    <glyph glyph-name="quoteright" unicode="&#x2019;" horiz-adv-x="276" 
d="M241 707l-2 -1q42 0 60.5 -21.5t17.5 -67.5q0 -13 -4 -47q-16 -105 -62.5 -152.5t-131.5 -47.5l11 71q37 0 57.5 23t28.5 73q-41 0 -57 20t-9 64q2 14 4 20q17 66 87 66z" />
    <glyph glyph-name="quotesinglbase" unicode="&#x201a;" horiz-adv-x="228" 
d="M131 161l-2 -1q42 0 60.5 -21.5t17.5 -67.5q0 -19 -5 -47q-16 -105 -62 -152.5t-131 -47.5l11 71q37 0 57 23t28 73q-41 0 -57 20t-9 64q1 9 5 20q17 66 87 66z" />
    <glyph glyph-name="quotedblleft" unicode="&#x201c;" horiz-adv-x="507" 
d="M203 364l1 1q-41 0 -60 21.5t-18 67.5q2 31 5 47q16 105 62.5 152.5t131.5 47.5l-12 -71q-37 0 -57 -23t-28 -73q41 0 57 -20t10 -64q-2 -14 -4 -20q-19 -66 -88 -66zM435 365l1 1q-41 0 -59.5 21.5t-17.5 67.5q0 24 4 47q16 105 62.5 152.5t131.5 47.5l-12 -71
q-37 0 -57 -23t-28 -73q41 0 57 -20t10 -64q-2 -14 -4 -20q-19 -66 -88 -66z" />
    <glyph glyph-name="quotedblright" unicode="&#x201d;" horiz-adv-x="507" 
d="M241 707l-2 -1q42 0 60.5 -21.5t17.5 -67.5q0 -13 -4 -47q-16 -105 -62.5 -152.5t-131.5 -47.5l11 71q37 0 57.5 23t28.5 73q-41 0 -57 20t-9 64q2 14 4 20q17 66 87 66zM470 706l-2 -1q42 0 60.5 -21.5t17.5 -67.5q0 -13 -4 -47q-17 -105 -63 -152.5t-131 -47.5l11 71
q37 0 57.5 23t27.5 73q-41 0 -56.5 20t-8.5 64q2 14 4 20q17 66 87 66z" />
    <glyph glyph-name="quotedblbase" unicode="&#x201e;" horiz-adv-x="507" 
d="M155 161l-2 -1q42 0 60.5 -21.5t17.5 -67.5q0 -19 -5 -47q-16 -105 -62 -152.5t-131 -47.5l11 71q37 0 57 23t28 73q-41 0 -57 20t-9 64q1 9 5 20q17 66 87 66zM384 160l-2 -1q41 0 60 -21.5t18 -67.5q-2 -31 -5 -47q-16 -105 -62.5 -152.5t-131.5 -47.5l12 71
q37 0 57 23t28 73q-41 0 -57 20t-9 64q2 14 4 20q19 66 88 66z" />
    <glyph glyph-name="ellipsis" unicode="&#x2026;" horiz-adv-x="770" 
d="M139 162h1q45 0 62.5 -20.5t10.5 -65.5q-8 -44 -31.5 -64.5t-69.5 -20.5q-45 0 -62 20t-10 65t30.5 65.5t68.5 20.5zM411 162h1q45 0 62.5 -20.5t10.5 -65.5q-8 -44 -31.5 -64.5t-69.5 -20.5q-45 0 -62 20t-10 65t30.5 65.5t68.5 20.5zM683 162h1q45 0 62.5 -20.5
t10.5 -65.5q-8 -44 -31.5 -64.5t-69.5 -20.5q-45 0 -62 20t-10 65t30.5 65.5t68.5 20.5z" />
    <glyph glyph-name="perthousand" unicode="&#x2030;" horiz-adv-x="1310" 
d="M326 710q92 1 125.5 -46t17.5 -151q-17 -104 -66 -151.5t-140 -47.5t-125 47.5t-17 151.5t65.5 151t139.5 46zM278 402h1q34 0 53.5 26t29.5 85q9 59 -2.5 85t-45.5 26q-35 0 -54.5 -26t-28.5 -85q-10 -58 1 -84.5t46 -26.5zM296 -30h-133l560 760h133zM756 390
q92 1 125.5 -46t17.5 -151q-17 -104 -65.5 -151.5t-139.5 -47.5t-125.5 47.5t-17.5 151.5t65.5 151t139.5 46zM706 82h1q35 0 54.5 26.5t28.5 84.5q9 59 -2 85t-45 26q-35 0 -55 -26.5t-29 -84.5q-9 -59 2 -85t45 -26zM1158 390q92 1 125.5 -46t17.5 -151
q-17 -104 -65.5 -151.5t-139.5 -47.5t-125.5 47.5t-17.5 151.5t65.5 151t139.5 46zM1109 82h1q35 0 54.5 26.5t28.5 84.5q9 59 -2 85t-45 26q-35 0 -55 -26.5t-29 -84.5q-9 -59 2 -85t45 -26z" />
    <glyph glyph-name="guilsinglleft" unicode="&#x2039;" horiz-adv-x="340" 
d="M234 450h141l-149 -190l87 -200h-141l-95 200z" />
    <glyph glyph-name="guilsinglright" unicode="&#x203a;" horiz-adv-x="340" 
d="M107 450h141l97 -190l-159 -200h-141l151 200z" />
    <glyph glyph-name="lira" unicode="&#x20a4;" horiz-adv-x="680" 
d="M683 122l-2 -2l-20 -122h-586l23 141q70 25 93 77q3 5 7 17h-85l13 80h90l7 42h-90l12 80h90l11 64q16 113 79 165t185 54q31 0 46 -1q98 -7 135.5 -59.5t20.5 -158.5h-141q9 61 -7.5 88t-62.5 27h-9q-43 -1 -66.5 -28t-32.5 -86q-5 -28 -10 -64h238l-13 -80h-238l-7 -42
h238l-12 -80h-242q-4 -10 -6 -14q-26 -67 -111 -98h453z" />
    <glyph glyph-name="Euro" unicode="&#x20ac;" horiz-adv-x="846" 
d="M679 240h165q-50 -136 -140.5 -198t-239.5 -62q-163 0 -239.5 64t-75.5 202h-91l13 80h84q1 4 2 12t2 12q1 5 2.5 13.5t1.5 12.5h-84l13 80h91q43 138 139.5 201.5t259.5 63.5q159 0 229 -61.5t68 -198.5h-165q-2 68 -38.5 98.5t-115.5 30.5q-150 0 -202 -134h243
l-13 -80h-253q0 -4 -1.5 -12.5t-2.5 -13.5q-1 -4 -2 -12t-2 -12h213l-13 -80h-203q6 -70 45 -102.5t116 -32.5t122.5 30.5t71.5 98.5z" />
    <glyph glyph-name="trademark" unicode="&#x2122;" horiz-adv-x="1254" 
d="M578 700h1l-19 -122h-154l-60 -378h-141l60 378h-154l19 122h448zM762 517h-1l-50 -317h-141l79 500h74h67h50l78 -342l186 342h42h67h74l-79 -500h-141l50 317l-171 -305l-6 -12h-100l-10 50z" />
    <glyph glyph-name="minus" unicode="&#x2212;" horiz-adv-x="402" 
d="M399 209h-330l18 114h330z" />
    <glyph glyph-name="approxequal" unicode="&#x2248;" horiz-adv-x="672" 
d="M55 121v1l17 106q47 40 95 52.5t89 2t82.5 -30t82 -39.5t80 -31t84 -1t87.5 47l-17 -106q-47 -40 -95 -52.5t-89.5 -2.5t-83 29t-82 39t-80 31.5t-83.5 1.5t-87 -47zM86 317v1l17 106q47 40 95 52.5t89.5 2t83 -30t82 -39.5t80 -31t83.5 -1t87 47l-17 -106
q-47 -40 -95 -52.5t-89.5 -2.5t-83 29t-82 39t-80 31.5t-83.5 1.5t-87 -47z" />
    <glyph glyph-name="notequal" unicode="&#x2260;" horiz-adv-x="664" 
d="M198 0l57 110h-198l18 114h239l42 82h-268l18 114h309l42 80h85l-42 -80h191l-18 -114h-232l-42 -82h261l-18 -114h-302l-57 -110h-85z" />
    <glyph glyph-name="lessequal" unicode="&#x2264;" horiz-adv-x="508" 
d="M436 0h-400l19 122h400zM119 529l1 2l427 171l-22 -140l-276 -110l241 -110l-23 -140l-372 171l2 17l20 122z" />
    <glyph glyph-name="greaterequal" unicode="&#x2265;" horiz-adv-x="508" 
d="M472 0h-400l19 122h400zM182 700v-2l373 -171l-3 -17l-19 -122l-3 -17l-427 -171l22 140l276 110l-241 110z" />
    <glyph glyph-name="uniE132" unicode="&#xe132;" horiz-adv-x="561" 
d="M210 0h-149l79 500h149zM265 -66v1q30 0 48.5 15.5t22.5 41.5l81 509h149l-83 -526q-12 -73 -59 -114t-120 -41h-135l18 114h78zM145 551l121 150h150l-153 -150h-118zM422 551l121 150h150l-153 -150h-118z" />
    <glyph glyph-name="uniE133" unicode="&#xe133;" horiz-adv-x="930" 
d="M192 700h165l-110 -700h-165zM382 210h-2l5 36h157l-5 -36q-8 -53 7.5 -76t58.5 -23q44 0 67 23.5t31 75.5l77 490h165l-77 -490q-19 -116 -85.5 -168.5t-195.5 -52.5q-125 0 -173.5 52.5t-29.5 168.5zM211 750l114 120h142l-138 -120h-118zM797 750l114 120h142
l-138 -120h-118z" />
    <glyph glyph-name="a.alt1" 
d="M244 -10q-115 0 -157 61.5t-20 198.5t83 198.5t176 61.5q109 0 152 -56l29 46h116l-58 -365l-21 -135h-116l-14 46q-60 -56 -170 -56zM302 104q58 0 89.5 34.5t43.5 111.5t-8.5 111.5t-78.5 34.5t-89.5 -34.5t-43.5 -111.5t8.5 -111.5t78.5 -34.5z" />
    <glyph glyph-name="aacute.alt1" 
d="M244 -10q-115 0 -157 61.5t-20 198.5t83 198.5t176 61.5q109 0 152 -56l29 46h116l-58 -365l-21 -135h-116l-14 46q-60 -56 -170 -56zM302 104q58 0 89.5 34.5t43.5 111.5t-8.5 111.5t-78.5 34.5t-89.5 -34.5t-43.5 -111.5t8.5 -111.5t78.5 -34.5zM290 550l120 150h150
l-152 -150h-118z" />
    <glyph glyph-name="aacutering.alt1" 
d="M244 -10q-115 0 -157 61.5t-20 198.5t83 198.5t176 61.5q109 0 152 -56l29 46h116l-58 -365l-21 -135h-116l-14 46q-60 -56 -170 -56zM302 103q58 0 89.5 34.5t43.5 111.5t-8.5 111.5t-78.5 34.5t-89.5 -34.5t-43.5 -111.5t8.5 -111.5t78.5 -34.5zM494 702q33 -26 25 -75
q-8 -45 -45 -71.5t-95 -26.5t-87 26.5t-21 71.5q7 45 44 71.5t95 26.5h15l58 55h110zM389 590q27 0 39 8.5t15 27.5t-6.5 27.5t-36.5 8.5q-26 0 -38 -8.5t-15 -27.5t6.5 -27.5t35.5 -8.5z" />
    <glyph glyph-name="abreve.alt1" 
d="M244 -10q-115 0 -157 61.5t-20 198.5t83 198.5t176 61.5q109 0 152 -56l29 46h116l-58 -365l-21 -135h-116l-14 46q-60 -56 -170 -56zM303 105q58 0 89.5 34.5t43.5 111.5t-8.5 111.5t-78.5 34.5t-89.5 -34.5t-43.5 -111.5t8.5 -111.5t78.5 -34.5zM562 700l2 1
q-13 -79 -58 -114.5t-132 -35.5t-121 35.5t-21 114.5h100q-6 -38 6.5 -54.5t46.5 -16.5h9q31 1 47 18t21 52h100z" />
    <glyph glyph-name="acircumflex.alt1" 
d="M244 -10q-115 0 -157 61.5t-20 198.5t83 198.5t176 61.5q109 0 152 -56l29 46h116l-58 -365l-21 -135h-116l-14 46q-60 -56 -170 -56zM301 104q58 0 89.5 34.5t43.5 111.5t-8.5 111.5t-78.5 34.5t-89.5 -34.5t-43.5 -111.5t8.5 -111.5t78.5 -34.5zM480 700l60 -150h-93
l-53 79l-77 -79h-93l107 150h149z" />
    <glyph glyph-name="acute.case" horiz-adv-x="296" 
d="M115 550l114 120h142l-138 -120h-118z" />
    <glyph glyph-name="adieresis.alt1" 
d="M244 -10q-115 0 -157 61.5t-20 198.5t83 198.5t176 61.5q109 0 152 -56l29 46h116l-58 -365l-21 -135h-116l-14 46q-60 -56 -170 -56zM304 104q58 0 89.5 34.5t43.5 111.5t-8.5 111.5t-78.5 34.5t-89.5 -34.5t-43.5 -111.5t8.5 -111.5t78.5 -34.5zM294 700h1
q45 0 62.5 -20.5t10.5 -65.5q-8 -44 -31.5 -64.5t-69.5 -20.5q-45 0 -62 20t-10 65t30.5 65.5t68.5 20.5zM511 700h1q45 0 62.5 -20.5t10.5 -65.5q-8 -44 -31.5 -64.5t-69.5 -20.5q-45 0 -62 20t-10 65t30.5 65.5t68.5 20.5z" />
    <glyph glyph-name="agrave.alt1" 
d="M244 -10q-115 0 -157 61.5t-20 198.5t83 198.5t176 61.5q109 0 152 -56l29 46h116l-58 -365l-21 -135h-116l-14 46q-60 -56 -170 -56zM302 104q58 0 89.5 34.5t43.5 111.5t-8.5 111.5t-78.5 34.5t-89.5 -34.5t-43.5 -111.5t8.5 -111.5t78.5 -34.5zM381 700l73 -150h-117
l-106 150h150z" />
    <glyph glyph-name="amacron.alt1" 
d="M244 -10q-115 0 -157 61.5t-20 198.5t83 198.5t176 61.5q109 0 152 -56l29 46h116l-58 -365l-21 -135h-116l-14 46q-60 -56 -170 -56zM302 104q58 0 89.5 34.5t43.5 111.5t-8.5 111.5t-78.5 34.5t-89.5 -34.5t-43.5 -111.5t8.5 -111.5t78.5 -34.5zM209 562l13 88h340
l-13 -88h-340z" />
    <glyph glyph-name="aogonek.alt1" 
d="M428 1h-1l-14 46q-60 -56 -170 -56q-115 0 -157 61.5t-20 198.5t83 198.5t176 61.5q110 0 153 -56l28 46h116l-58 -365l-21 -135h-41q-53 -40 -62 -82q-5 -36 34 -37h6q9 0 20 3t17 6l6 3l-20 -123q-33 -20 -73 -20q-12 0 -17 1q-51 7 -68.5 50t5 100t78.5 99zM301 104
q58 0 89.5 34.5t43.5 111.5t-8.5 111.5t-78.5 34.5t-89.5 -34.5t-43.5 -111.5t8.5 -111.5t78.5 -34.5z" />
    <glyph glyph-name="aring.alt1" 
d="M244 -10q-115 0 -157 61.5t-20 198.5t83 198.5t176 61.5q109 0 152 -56l29 46h116l-58 -365l-21 -135h-116l-14 46q-60 -56 -170 -56zM302 104q58 0 89.5 34.5t43.5 111.5t-8.5 111.5t-78.5 34.5t-89.5 -34.5t-43.5 -111.5t8.5 -111.5t78.5 -34.5zM417 753
q65 0 90.5 -25.5t16.5 -81.5t-42.5 -81.5t-98.5 -25.5t-90.5 25.5t-16.5 81.5t42.5 81.5t98.5 25.5zM393 602h1q25 0 37.5 10.5t16.5 34.5q4 23 -6 33.5t-35 10.5q-48 0 -55 -45q-4 -23 6 -33.5t35 -10.5z" />
    <glyph glyph-name="atilde.alt1" 
d="M244 -10q-115 0 -157 61.5t-20 198.5t83 198.5t176 61.5q109 0 152 -56l29 46h116l-58 -365l-21 -135h-116l-14 46q-60 -56 -170 -56zM301 104q58 0 89.5 34.5t43.5 111.5t-8.5 111.5t-78.5 34.5t-89.5 -34.5t-43.5 -111.5t8.5 -111.5t78.5 -34.5zM212 582h-1
q8 52 44 89.5t78 37.5q29 0 50.5 -12t30.5 -26t20.5 -26t22.5 -12t20 10.5t12 28.5h68q-8 -52 -44 -89.5t-78 -37.5q-29 0 -50.5 12t-30.5 26t-20 26t-22 12t-20 -10.5t-12 -28.5h-68z" />
    <glyph glyph-name="breve.case" horiz-adv-x="388" 
d="M466 670q-11 -63 -54.5 -91.5t-130.5 -28.5t-122 28.5t-25 91.5h108q-4 -26 7.5 -37.5t42.5 -11.5q58 0 66 49h108z" />
    <glyph glyph-name="caron.case" horiz-adv-x="376" 
d="M453 670l-105 -120h-149l-67 120h102l49 -58l69 58h101z" />
    <glyph glyph-name="circumflex.case" horiz-adv-x="376" 
d="M368 670h1l67 -120h-102l-50 58l-68 -58h-102l105 120h149z" />
    <glyph glyph-name="commaaccent" horiz-adv-x="180" 
d="M83 -41v1q52 0 51 -56q0 -8 -2 -30q-10 -60 -41.5 -87t-90.5 -27l8 54q46 0 53 43q-29 0 -40.5 11t-7.5 35q1 2 1 6t1 6q11 44 68 44z" />
    <glyph glyph-name="dieresis.case" horiz-adv-x="461" 
d="M227 717q45 0 63 -17.5t11 -55.5q-6 -38 -29 -55.5t-69 -17.5q-45 0 -63 17.5t-12 55.5q7 38 30 55.5t69 17.5zM460 717q45 0 63 -17.5t11 -55.5q-6 -38 -29 -55.5t-69 -17.5q-45 0 -63 17.5t-12 55.5q7 38 30 55.5t69 17.5z" />
    <glyph glyph-name="dotaccent.case" horiz-adv-x="228" 
d="M224 697q45 0 62.5 -17.5t11.5 -55.5t-29 -55.5t-69 -17.5q-45 0 -63 17.5t-12 55.5q11 73 99 73z" />
    <glyph glyph-name="grave.case" horiz-adv-x="292" 
d="M268 670l84 -120h-110l-108 120h134z" />
    <glyph glyph-name="hungarumlaut.case" horiz-adv-x="477" 
d="M115 550l106 120h134l-130 -120h-110zM316 550l106 120h134l-130 -120h-110z" />
    <glyph glyph-name="tilde.case" horiz-adv-x="388" 
d="M119 580q8 51 42 80t78 29q37 0 61.5 -11.5t41 -23.5t33.5 -12q11 0 20 8t11 21h60q-8 -51 -41.5 -80t-77.5 -29q-37 0 -62 12t-41.5 23.5t-33.5 11.5q-11 0 -20 -8t-11 -21h-60z" />
    </font>
</defs>
</svg>
