<?xml version="1.0" standalone="no"?>
<!DOCTYPE svg PUBLIC "-//W3C//DTD SVG 1.1//EN" "http://www.w3.org/Graphics/SVG/1.1/DTD/svg11.dtd" >
<svg xmlns="http://www.w3.org/2000/svg" xmlns:xlink="http://www.w3.org/1999/xlink" version="1.1">
<metadata>
Created by FontForge 20170731 at Fri Jun 16 02:16:25 2017
 By Aleksey,,,
Copyright (c) 2017 by Alexander Slobzheninov. All rights reserved.
</metadata>
<defs>
<font id="FivoSans-Oblique" horiz-adv-x="555" >
  <font-face 
    font-family="Fivo Sans"
    font-weight="400"
    font-style="oblique"
    font-stretch="normal"
    units-per-em="1000"
    panose-1="0 0 0 0 0 0 0 0 0 0"
    ascent="800"
    descent="-200"
    x-height="500"
    cap-height="700"
    bbox="-89 -252 1243.45 960"
    underline-thickness="50"
    underline-position="875"
    unicode-range="U+000D-E133"
  />
<missing-glyph horiz-adv-x="192" 
 />
    <glyph glyph-name=".notdef" horiz-adv-x="192" 
 />
    <glyph glyph-name=".null" horiz-adv-x="0" 
 />
    <glyph glyph-name="nonmarkingreturn" horiz-adv-x="333" 
 />
    <glyph glyph-name="NULL" horiz-adv-x="785" 
d="M205 700h595l-110 -700h-595zM271 623l-86 -546h439l86 546h-439z" />
    <glyph glyph-name="NULL" horiz-adv-x="785" 
d="M205 700h595l-110 -700h-595zM271 623l-86 -546h439l86 546h-439z" />
    <glyph glyph-name="CR" unicode="&#xd;" horiz-adv-x="250" 
 />
    <glyph glyph-name="space" unicode=" " horiz-adv-x="282" 
 />
    <glyph glyph-name="exclam" unicode="!" horiz-adv-x="263" 
d="M147 107v-1q30 0 41.5 -14t6.5 -45q-9 -58 -66 -58q-30 0 -41.5 14t-6.5 45t20.5 45t45.5 14zM198 699h85l-30 -190l-56 -261h-55l26 261z" />
    <glyph glyph-name="quotedbl" unicode="&#x22;" horiz-adv-x="333" 
d="M240 700h1l-22 -140l-35 -173h-59l19 173l22 140h74zM387 700h1l-22 -140l-35 -173h-59l19 173l22 140h74z" />
    <glyph glyph-name="numbersign" unicode="#" horiz-adv-x="771" 
d="M411 0l61 204h-151l-61 -204h-63l61 204h-166l10 64h175l44 146h-166l10 64h175l67 222h63l-67 -222h151l67 222h63l-67 -222h169l-10 -64h-178l-44 -146h169l-10 -64h-178l-61 -204h-63zM535 414h-151l-44 -146h151z" />
    <glyph glyph-name="dollar" unicode="$" horiz-adv-x="648" 
d="M275 -100h1l12 80q-119 6 -165.5 58.5t-29.5 160.5h82q-13 -81 23.5 -116t133.5 -35q95 0 141 31t57 101q6 35 -9 60t-43 38.5t-65 25t-76 19.5t-75.5 22.5t-64 32.5t-40.5 51t-6 78q17 105 77 156t177 57l12 81h66l-12 -81q114 -6 158 -58.5t27 -160.5h-82
q13 80 -22 115.5t-126 35.5q-89 0 -133 -30.5t-55 -100.5q-8 -49 32 -76t101.5 -41t122 -31.5t98 -61.5t25.5 -117q-17 -105 -79.5 -156t-184.5 -57l-12 -81h-65v-1z" />
    <glyph glyph-name="percent" unicode="%" horiz-adv-x="883" 
d="M334 710q85 1 116 -45t14 -148q-16 -102 -61 -148t-130 -46t-116 46t-15 148q17 102 62 148t130 45zM281 376v-1q53 0 81.5 32.5t40.5 106.5t-6 107t-71 33t-81.5 -32.5t-40.5 -106.5t6 -106.5t71 -32.5zM254 -30h-76l560 760h76zM722 390q85 1 116 -45t15 -148
q-17 -102 -62 -148t-130 -46t-115.5 46t-14.5 148t61 148t130 45zM670 57l-1 -1q53 0 82 32.5t40 106.5q12 74 -6 107t-70 33q-53 0 -82 -32.5t-40 -106.5q-12 -74 6 -106.5t71 -32.5z" />
    <glyph glyph-name="ampersand" unicode="&#x26;" horiz-adv-x="796" 
d="M751 0v-2h-107l-80 89q-116 -108 -273 -108q-113 0 -165 52.5t-37 142.5q12 72 67 122.5t144 95.5q-72 93 -60 172q24 155 212 155q96 0 136 -38t28 -108q-5 -32 -22.5 -59.5t-49 -51t-59.5 -39.5t-72 -38l162 -187q50 72 72 152h67q-27 -112 -95 -201zM523 135h-2
l-185 210q-71 -38 -112.5 -75.5t-49.5 -88.5q-21 -135 135 -135q67 0 116.5 21.5t97.5 67.5zM373 427v1q81 38 123 67.5t49 68.5q8 51 -15.5 73.5t-85.5 21.5q-117 0 -131 -95q-9 -57 60 -137z" />
    <glyph glyph-name="quotesingle" unicode="'" horiz-adv-x="186" 
d="M240 700h1l-22 -140l-35 -173h-59l19 173l22 140h74z" />
    <glyph glyph-name="parenleft" unicode="(" horiz-adv-x="253" 
d="M157 -200q-2 8 -14.5 43t-22 68.5t-20.5 93t-10 116.5t11 139q13 86 44 167.5t58 126.5t59.5 92t36.5 54h68q-4 -6 -36 -53.5t-58.5 -92t-57 -126.5t-43.5 -168q-10 -82 -11 -139t9 -116.5t19.5 -93t21.5 -68.5t14 -43h-68z" />
    <glyph glyph-name="parenright" unicode=")" horiz-adv-x="253" 
d="M32 -200h-67q1 2 35.5 56t60 100.5t57 132t45.5 171.5q10 81 10.5 137t-10 111.5t-21 87t-22.5 63.5t-14 41h68q2 -9 14.5 -40.5t23 -64t21.5 -87.5t11 -111.5t-10 -136.5q-14 -86 -45.5 -171.5t-58.5 -132.5t-61.5 -99.5t-36.5 -56.5z" />
    <glyph glyph-name="asterisk" unicode="*" horiz-adv-x="371" 
d="M227 400l9 60l11 40l3 18l-18 -9l-37 -24l-56 -30l-16 40l57 30l39 16l16 8l-13 9l-35 16l-47 30l28 40l48 -30l29 -24l15 -10l3 18l3 40l9 60h43l-9 -60l-11 -40l-3 -18l19 10l37 24l56 30l16 -40l-57 -30l-39 -16l-18 -9l14 -9l34 -16l48 -30l-29 -40l-47 30l-29 24
l-15 10l-3 -18l-3 -40l-9 -60h-43z" />
    <glyph glyph-name="plus" unicode="+" horiz-adv-x="617" 
d="M614 292l-11 -68h-227l-35 -224h-66l35 224h-227l11 68h227l33 208h66l-33 -208h227z" />
    <glyph glyph-name="comma" unicode="," horiz-adv-x="203" 
d="M114 107h1q28 0 39.5 -16t9.5 -50q-1 -11 -5 -35q-13 -76 -43 -111t-83 -35l7 45q25 0 39.5 20t22.5 64q-56 0 -50 54l3 15q10 49 59 49z" />
    <glyph glyph-name="hyphen" unicode="-" horiz-adv-x="427" 
d="M415 234h-330l10 68h330z" />
    <glyph glyph-name="period" unicode="." horiz-adv-x="203" 
d="M117 107v-1q30 0 41.5 -14t6.5 -45q-9 -58 -66 -58q-30 0 -41.5 14t-6.5 45t20.5 45t45.5 14z" />
    <glyph glyph-name="slash" unicode="/" horiz-adv-x="306" 
d="M346 700l75 -1l-350 -700l-74 1z" />
    <glyph glyph-name="zero" unicode="0" horiz-adv-x="695" 
d="M462 720q151 0 205 -88t23 -282t-113 -282t-233 -88t-205 88t-23 282t113 282t233 88zM355 48q106 0 164.5 71t84.5 231t-10.5 231t-142.5 71t-164.5 -71t-84.5 -231t10.5 -231t142.5 -71z" />
    <glyph glyph-name="one" unicode="1" horiz-adv-x="333" 
d="M137 632l10 68h202l-110 -700h-82l100 632h-120z" />
    <glyph glyph-name="two" unicode="2" horiz-adv-x="579" 
d="M175 68l2 -1h361l-11 -68h-483l9 54q50 38 116 85t110.5 78t93.5 69.5t80 69.5t53.5 69t28.5 76q13 80 -19 115t-118 35q-85 0 -129 -42.5t-59 -138.5h-82q20 131 86.5 190.5t193.5 59.5t176 -52t31 -167q-8 -49 -34 -93t-76.5 -89.5t-92 -77.5t-118.5 -86.5t-119 -85.5z
" />
    <glyph glyph-name="three" unicode="3" horiz-adv-x="652" 
d="M368 334v1h-32l10 64h32q90 0 135 29.5t55 94.5q11 69 -21.5 99t-118.5 30t-130 -40t-58 -131h-74q19 126 84.5 183t189.5 57t172.5 -46t32.5 -147q-7 -43 -26 -75t-39.5 -47t-45 -23.5t-36.5 -10t-20 -1.5q9 0 23 -1.5t40.5 -11.5t46 -27.5t31 -53t3.5 -83.5
q-17 -112 -88.5 -162.5t-211.5 -50.5t-193.5 59.5t-32.5 190.5h78q-15 -97 22 -139.5t137 -42.5q98 0 146.5 34t60.5 111q12 73 -29 106.5t-143 33.5z" />
    <glyph glyph-name="four" unicode="4" horiz-adv-x="594" 
d="M592 700v-1h14l-69 -438h70l-11 -68h-70l-31 -194h-82l31 194h-377l8 51l5 32l430 424h14h68zM153 261h302l56 357z" />
    <glyph glyph-name="five" unicode="5" horiz-adv-x="666" 
d="M347 632h-3l-64 -195q59 43 161 43q124 0 171 -59.5t26 -190.5t-93 -190.5t-210 -59.5q-121 0 -171.5 52t-40.5 168h74q-4 -80 32 -115.5t122 -35.5q95 0 143.5 42.5t63.5 138.5q15 97 -18 139.5t-124 42.5q-74 0 -115.5 -25.5t-63.5 -85.5h-70l129 399h369l-10 -68h-308
z" />
    <glyph glyph-name="six" unicode="6" horiz-adv-x="642" 
d="M114 340l-1 -1q31 199 108.5 289.5t217.5 90.5q103 0 152 -47.5t53 -152.5h-78q-6 73 -37 104.5t-99 31.5q-99 0 -152.5 -70.5t-79.5 -232.5q1 5 4 13.5t17.5 31t35.5 39t62.5 30.5t93.5 14q130 0 179 -59.5t28 -190.5t-91.5 -190.5t-204.5 -59.5q-150 0 -194 83.5
t-14 276.5zM390 411h-1q-91 0 -139 -43t-63 -138t19.5 -138.5t125.5 -43.5q92 0 139.5 42.5t63.5 139.5q15 96 -19 138.5t-126 42.5z" />
    <glyph glyph-name="seven" unicode="7" horiz-adv-x="528" 
d="M594 646l-403 -646h-87l398 632h-365l10 68h455z" />
    <glyph glyph-name="eight" unicode="8" horiz-adv-x="672" 
d="M174 527q16 101 82 147t195 46t180 -46t35 -147q-19 -118 -119 -157q118 -39 96 -180q-18 -110 -91.5 -159.5t-218.5 -49.5t-202.5 50t-39.5 159q22 141 152 180q-88 39 -69 157zM343 48q103 0 153.5 33.5t62.5 109.5t-28 109.5t-144 33.5q-103 0 -153 -33.5t-62 -109.5
t28 -109.5t143 -33.5zM439 651v1q-89 0 -133 -30t-55 -98q-10 -68 24 -97.5t123 -29.5t133 29.5t54 97.5q11 68 -23 97.5t-123 29.5z" />
    <glyph glyph-name="nine" unicode="9" horiz-adv-x="642" 
d="M639 360l1 1q-31 -199 -109 -289.5t-218 -90.5q-103 0 -151 47.5t-53 152.5h78q6 -73 37.5 -104.5t98.5 -31.5q99 0 152.5 70.5t79.5 232.5q-1 -5 -4 -13.5t-17.5 -31t-35.5 -39t-62.5 -30.5t-93.5 -14q-130 0 -179 59.5t-28 190.5t91.5 190.5t204.5 59.5
q150 0 194 -83.5t14 -276.5zM363 289h1q91 0 139 43t63 138t-19.5 138.5t-125.5 43.5q-92 0 -140 -42.5t-63 -139.5q-15 -96 19 -138.5t126 -42.5z" />
    <glyph glyph-name="colon" unicode=":" horiz-adv-x="226" 
d="M129 107v-1q30 0 41.5 -14t6.5 -45q-9 -58 -66 -58q-30 0 -41.5 14t-6.5 45t20.5 45t45.5 14zM192 505v-1q30 0 41.5 -14t6.5 -45q-9 -58 -66 -58q-30 0 -41.5 14t-6.5 45t20.5 45t45.5 14z" />
    <glyph glyph-name="semicolon" unicode=";" horiz-adv-x="226" 
d="M193 506l-1 -1q58 0 48 -59q-9 -58 -66 -58q-30 0 -41.5 14t-6.5 45q10 59 67 59zM125 106h1q28 0 39.5 -16t9.5 -50q-1 -11 -5 -35q-13 -76 -43 -111t-83 -35l7 45q25 0 39.5 20t22.5 64q-56 0 -50 54l3 15q10 49 59 49z" />
    <glyph glyph-name="less" unicode="&#x3c;" horiz-adv-x="525" 
d="M95 297l1 1l432 203l-13 -83l-356 -167l302 -167l-13 -83l-368 203l1 10l12 73z" />
    <glyph glyph-name="equal" unicode="=" horiz-adv-x="672" 
d="M644 208l-10 -68h-551l10 68h551zM673 391l-10 -68h-551l10 68h551z" />
    <glyph glyph-name="greater" unicode="&#x3e;" horiz-adv-x="512" 
d="M143 500l1 -1l367 -203l-1 -10l-12 -73l-1 -10l-432 -203l13 83l354 167l-302 167z" />
    <glyph glyph-name="question" unicode="?" horiz-adv-x="523" 
d="M272 107v-1q30 0 41.5 -14t6.5 -45q-9 -58 -66 -58q-30 0 -41.5 14t-6.5 45t20.5 45t45.5 14zM253 231q9 55 33.5 93.5t53.5 58.5t58 38t51.5 44t28.5 64q11 64 -17 93t-99 29t-110 -38.5t-52 -123.5h-78q19 121 79 175.5t174 54.5t158.5 -45t28.5 -145q-8 -50 -33 -84
t-56.5 -53t-63 -37t-56.5 -49t-32 -75h-68z" />
    <glyph glyph-name="at" unicode="@" horiz-adv-x="849" 
d="M683 460l-42 -270q-19 -115 34 -115q63 0 90 175q28 176 -28 254.5t-209 78.5q-166 0 -252 -78.5t-113 -254.5q-28 -170 25 -247t198 -77q90 0 167 48l-10 -66q-73 -41 -168 -41q-177 -1 -242.5 90.5t-33.5 292.5q33 207 136.5 300.5t299.5 93.5q185 0 254.5 -93.5
t36.5 -299.5q-19 -120 -58 -175t-103 -55q-86 0 -96 82q-51 -63 -154 -63q-96 0 -131.5 50t-18.5 160q18 115 70 167.5t149 52.5q95 0 129 -67l19 57h51zM437 95l-1 -2q65 0 100 36.5t48 118.5q13 85 -10 123t-88 38q-69 0 -104.5 -37t-49.5 -123q-13 -83 11.5 -118.5
t93.5 -35.5z" />
    <glyph glyph-name="A" unicode="A" horiz-adv-x="654" 
d="M541 0l-33 169h-312l-86 -169h-90l359 700h123l132 -700h-93zM425 616l-193 -378h264z" />
    <glyph glyph-name="B" unicode="B" horiz-adv-x="682" 
d="M532 370q6 -1 15.5 -2.5t33 -12t40.5 -27t27.5 -50.5t3.5 -79q-17 -104 -83.5 -151.5t-196.5 -47.5h-277l110 700h273q117 0 163.5 -42.5t31.5 -136.5q-6 -39 -23 -68.5t-36.5 -44.5t-38 -24.5t-31.5 -11.5zM369 68q89 0 133.5 30.5t55.5 100.5t-23.5 102t-122.5 32h-176
l-42 -265h175zM282 631h-1l-37 -234h172q74 0 112.5 28.5t48.5 90.5q10 61 -19 88t-104 27h-172z" />
    <glyph glyph-name="C" unicode="C" horiz-adv-x="758" 
d="M643 229v1h90q-58 -131 -140.5 -190t-208.5 -59q-171 0 -235 88t-33 282t123 282t263 88q138 0 201.5 -59t67.5 -190h-90q-8 92 -52 131.5t-141 39.5q-122 0 -188 -69t-91 -224t19.5 -224t167.5 -69q88 0 144.5 39.5t102.5 132.5z" />
    <glyph glyph-name="D" unicode="D" horiz-adv-x="719" 
d="M714 350q-29 -184 -119 -267t-259 -83h-241l110 700h241q170 0 233.5 -83t34.5 -267zM431 627l-147 -1l-88 -555h147q124 0 189.5 65.5t88.5 212.5t-21.5 212.5t-168.5 65.5z" />
    <glyph glyph-name="E" unicode="E" horiz-adv-x="604" 
d="M664 627v1h-381l-36 -225h341l-11 -73h-341l-41 -257h381l-11 -73h-471l110 700h471z" />
    <glyph glyph-name="F" unicode="F" horiz-adv-x="594" 
d="M664 627h-381l-36 -225h341l-11 -73h-341l-52 -329h-90l110 700h471z" />
    <glyph glyph-name="G" unicode="G" horiz-adv-x="768" 
d="M444 319l-2 1l11 68h313l-6 -38q-31 -194 -119.5 -282t-252.5 -88q-175 0 -240 88t-34 282t124 282t268 88q134 0 197 -57t69 -183h-86q-7 86 -52 124.5t-140 38.5q-127 0 -193.5 -69t-91.5 -224t20.5 -224t172.5 -69q121 0 184 61.5t85 200.5h-227z" />
    <glyph glyph-name="H" unicode="H" horiz-adv-x="735" 
d="M661 700h90l-110 -700h-90l52 334h-367l-52 -334h-90l110 700h90l-45 -289h367z" />
    <glyph glyph-name="I" unicode="I" horiz-adv-x="279" 
d="M205 700h90l-110 -700h-90z" />
    <glyph glyph-name="J" unicode="J" horiz-adv-x="562" 
d="M70 210h-2l3 23h86l-3 -23q-13 -82 11.5 -117.5t92.5 -35.5t103 35.5t49 117.5l77 490h90l-77 -490q-19 -119 -79 -172.5t-174 -53.5q-112 0 -154 53.5t-23 172.5z" />
    <glyph glyph-name="K" unicode="K" horiz-adv-x="631" 
d="M294 700l-48 -305l344 305h111l-382 -340l292 -360h-111l-265 325l-51 -325h-90l110 700h90z" />
    <glyph glyph-name="L" unicode="L" horiz-adv-x="545" 
d="M537 77l-12 -77h-431l110 700h90l-98 -623h341z" />
    <glyph glyph-name="M" unicode="M" horiz-adv-x="903" 
d="M180 0h-83l110 700h47h38h37l147 -566l325 566h33h38h47l-110 -700h-86l91 578l-323 -556l-10 -22h-59l-3 15l-148 563z" />
    <glyph glyph-name="N" unicode="N" horiz-adv-x="743" 
d="M673 700h86l-110 -700h-107l-270 579l-91 -579h-86l110 700h107l270 -579z" />
    <glyph glyph-name="O" unicode="O" horiz-adv-x="788" 
d="M508 720q175 0 240 -88t34 -282t-124 -282t-268 -88t-240 88t-34 282t124 282t268 88zM495 643q-127 0 -193.5 -69t-91.5 -224t20.5 -224t172.5 -69t193.5 69t91.5 224t-20.5 224t-172.5 69z" />
    <glyph glyph-name="P" unicode="P" horiz-adv-x="659" 
d="M697 481h1q-36 -219 -278 -219h-194l-41 -262h-90l110 700h283q243 0 209 -219zM608 481l-1 -1q11 75 -20.5 110.5t-113.5 35.5h-190l-47 -292h190q83 0 126.5 36t55.5 111z" />
    <glyph glyph-name="Q" unicode="Q" horiz-adv-x="788" 
d="M508 720q175 0 240 -88t34 -282q-34 -216 -146 -301l79 -119h-86l-54 83q-78 -33 -185 -33q-175 0 -240 88t-34 282t124 282t268 88zM495 643q-127 0 -193.5 -69t-91.5 -224t20.5 -224t172.5 -69q77 0 127 23l-127 190h86l100 -151q74 68 99 231q25 155 -20.5 224
t-172.5 69z" />
    <glyph glyph-name="R" unicode="R" horiz-adv-x="708" 
d="M440 267l1 1h-3h-210l-42 -267h-90l111 700h299q242 0 208 -219q-28 -172 -186 -206l111 -276h-95zM238 336h206q82 0 125 36t55 110q12 75 -20 110.5t-114 35.5h-206z" />
    <glyph glyph-name="S" unicode="S" horiz-adv-x="648" 
d="M238 520l1 -1q-8 -49 32 -76t101.5 -41t122 -31.5t98 -61.5t25.5 -117q-18 -112 -88.5 -162.5t-208.5 -50.5t-192 52t-36 168h82q-13 -81 23.5 -116t133.5 -35q95 0 141 31t57 101q6 35 -9 60t-43 38.5t-65 25t-76 19.5t-75.5 22.5t-64 32.5t-40.5 51t-6 78
q17 112 85.5 162.5t201.5 50.5t184.5 -52t33.5 -168h-82q13 80 -22 115.5t-126 35.5q-89 0 -133 -30.5t-55 -100.5z" />
    <glyph glyph-name="T" unicode="T" horiz-adv-x="566" 
d="M656 700l-12 -81h-218l-98 -619h-90l98 619h-218l12 81h526z" />
    <glyph glyph-name="U" unicode="U" horiz-adv-x="715" 
d="M125 254l68 446h90l-70 -446q-17 -104 19.5 -150.5t133.5 -46.5t147.5 46.5t67.5 150.5l70 446h90l-70 -446q-23 -144 -98.5 -209t-218.5 -65t-197.5 65t-31.5 209z" />
    <glyph glyph-name="V" unicode="V" horiz-adv-x="650" 
d="M220 700h1l114 -637l316 637h90l-352 -700h-127l-132 700h90z" />
    <glyph glyph-name="W" unicode="W" horiz-adv-x="974" 
d="M543 700h107l51 -617l262 617h90l-305 -700h-115l-53 617l-240 -617h-115l-85 700h90l68 -616z" />
    <glyph glyph-name="X" unicode="X" horiz-adv-x="650" 
d="M250 700l142 -290l232 290h96l-275 -340l175 -360h-100l-145 309l-249 -309h-96l292 360l-172 340h100z" />
    <glyph glyph-name="Y" unicode="Y" horiz-adv-x="610" 
d="M394 282h1l-44 -282h-86l44 282l-178 418h99l135 -335l240 335h95z" />
    <glyph glyph-name="Z" unicode="Z" horiz-adv-x="617" 
d="M161 73h424l-11 -73h-531l9 59l504 568h-404l11 73h511l-9 -59z" />
    <glyph glyph-name="bracketleft" unicode="[" horiz-adv-x="271" 
d="M205 700v-1h180l-11 -68h-110l-120 -763h110l-11 -68h-180z" />
    <glyph glyph-name="backslash" unicode="\" horiz-adv-x="306" 
d="M106 699l75 1l129 -700l-76 -1z" />
    <glyph glyph-name="bracketright" unicode="]" horiz-adv-x="271" 
d="M106 700l1 1h180l-143 -900h-179l11 68h109l121 763h-110z" />
    <glyph glyph-name="asciicircum" unicode="^" horiz-adv-x="475" 
d="M388 670h3l93 -350h-68l-79 295l-173 -295h-68l205 350h20h47h20z" />
    <glyph glyph-name="underscore" unicode="_" horiz-adv-x="512" 
d="M516 0l-11 -68h-519l10 68h520z" />
    <glyph glyph-name="grave" unicode="`" horiz-adv-x="285" 
d="M240 700l87 -150h-70l-103 150h86z" />
    <glyph glyph-name="a" unicode="a" horiz-adv-x="535" 
d="M404 58l-1 1q-56 -68 -177 -68q-97 0 -135 36.5t-25 117.5q14 89 74 129.5t179 40.5h119l5 26q9 61 -15.5 87.5t-89.5 26.5q-66 0 -98.5 -24.5t-41.5 -80.5h-78q14 84 68 122t160 38t148 -42.5t27 -136.5l-52 -331h-66zM149 150l-1 -1q-8 -51 16.5 -73t90.5 -22
q71 0 110.5 33.5t53.5 106.5q1 2 5 32l6 34h-96h-21q-77 -1 -116 -27t-48 -83z" />
    <glyph glyph-name="b" unicode="b" horiz-adv-x="585" 
d="M325 -10h-1q-124 0 -162 77l-22 -67h-66l20 129l90 571h82l-41 -262q62 72 182 72q113 0 154 -62t19 -198q-22 -137 -82.5 -198.5t-172.5 -61.5zM316 58q79 0 122 45.5t59 146.5t-12.5 146.5t-107.5 45.5q-80 0 -123 -46t-59 -146q-16 -101 13 -146.5t108 -45.5z" />
    <glyph glyph-name="c" unicode="c" 
d="M456 173l1 1h82q-29 -96 -89 -139.5t-164 -43.5q-128 0 -176 62t-26 198q22 137 89.5 198.5t194.5 61.5q104 0 150.5 -43.5t44.5 -139.5h-82q-2 60 -31 87t-91 27q-85 0 -130.5 -46t-61.5 -146q-16 -101 15 -146t116 -45q61 0 98.5 27t59.5 87z" />
    <glyph glyph-name="d" unicode="d" horiz-adv-x="585" 
d="M256 -10h-1q-113 0 -154 62t-19 198q22 137 82.5 198.5t172.5 61.5q122 0 160 -72l41 262h82l-90 -571l-20 -129h-66l-2 67q-61 -77 -186 -77zM285 58q79 0 122 45.5t59 146.5t-12.5 146.5t-107.5 45.5q-80 0 -123 -46t-59 -146q-16 -101 13 -146.5t108 -45.5z" />
    <glyph glyph-name="e" unicode="e" 
d="M159 206h-1q-6 -82 23.5 -119.5t102.5 -37.5q58 0 92.5 23t58.5 77h78q-31 -83 -87.5 -121t-150.5 -38q-122 0 -168 62t-24 198q22 137 87 198.5t188 61.5q122 0 167 -64.5t23 -206.5l-5 -33h-384zM348 451l-1 1q-79 0 -122 -45t-60 -145h304q16 101 -12.5 145t-108.5 44
z" />
    <glyph glyph-name="f" unicode="f" horiz-adv-x="371" 
d="M388 632h-1q-80 0 -90 -69l-10 -62h152l-9 -59h-152l-70 -441h-82l70 441h-92l9 59h92l10 62q10 64 52 100.5t111 36.5h93l-10 -68h-73z" />
    <glyph glyph-name="g" unicode="g" horiz-adv-x="585" 
d="M256 -10q-112 0 -153 62t-19 198q22 137 82.5 198.5t172.5 61.5q126 0 164 -80l21 70h66l-72 -450q-22 -137 -87 -198.5t-187 -61.5q-97 0 -142 38t-47 121h78q4 -54 31 -77t85 -23q82 0 125.5 44t59.5 143l4 26q-31 -36 -76 -54t-106 -18zM287 58h-1q80 0 122.5 44.5
t58.5 146.5t-12.5 147t-108.5 45t-122.5 -45t-58.5 -147q-11 -67 -1.5 -109.5t39 -62t83.5 -19.5h-1h2z" />
    <glyph glyph-name="h" unicode="h" horiz-adv-x="565" 
d="M77 0l110 700h82l-40 -253q57 63 166 63q98 0 133.5 -57t15.5 -183l-42 -270h-82l42 270q15 92 -7.5 132t-89.5 40q-73 0 -112 -40t-54 -132l-41 -270l-1 4v-4h-80z" />
    <glyph glyph-name="i" unicode="i" horiz-adv-x="255" 
d="M169 0h-82l79 500h82zM240 708q30 0 41.5 -13.5t6.5 -42.5q-9 -56 -66 -56q-30 0 -41.5 13.5t-6.5 42.5q9 56 66 56z" />
    <glyph glyph-name="j" unicode="j" horiz-adv-x="247" 
d="M-25 -112v-1q86 0 98 78l85 534h82l-86 -542q-10 -64 -52.5 -100.5t-110.5 -36.5h-80l11 68h53zM231 706q58 0 48 -56q-5 -29 -20 -42.5t-45 -13.5q-58 0 -49 56q10 56 66 56z" />
    <glyph glyph-name="k" unicode="k" horiz-adv-x="500" 
d="M266 700l-65 -415l258 215h100l-287 -240l228 -260h-100l-207 235l-37 -235h-82l110 700h82z" />
    <glyph glyph-name="l" unicode="l" horiz-adv-x="231" 
d="M75 0l110 700h82l-110 -700h-82z" />
    <glyph glyph-name="m" unicode="m" horiz-adv-x="845" 
d="M198 270l2 4l-43 -270h-82l79 500h66l1 -71q52 80 161 80q111 0 133 -94q54 94 176 94q90 0 121.5 -57t11.5 -183l-43 -270h-82l43 270q14 90 -5.5 130t-76.5 41q-64 1 -99 -40t-50 -133l-42 -270h-82l42 270q15 91 -4 131.5t-78 40.5q-65 0 -100.5 -41t-48.5 -132z" />
    <glyph glyph-name="n" unicode="n" horiz-adv-x="565" 
d="M220 500l2 -1l2 -58q59 69 171 69q98 0 133.5 -57t15.5 -183l-42 -270h-82l42 270q15 91 -8 131t-89 41q-73 1 -112.5 -40t-53.5 -132l-42 -270h-82l79 500h66z" />
    <glyph glyph-name="o" unicode="o" horiz-adv-x="575" 
d="M368 510q128 0 176 -62t26 -198q-22 -137 -89.5 -198.5t-194.5 -61.5q-128 0 -176 62t-26 198q22 137 89.5 198.5t194.5 61.5zM166 250q-16 -102 15 -147t116 -45t130 45t61 146q16 102 -15 147t-116 45q-86 0 -130 -44.5t-61 -146.5z" />
    <glyph glyph-name="p" unicode="p" horiz-adv-x="585" 
d="M407 510h1q113 0 154 -62t19 -198q-22 -137 -82.5 -198.5t-172.5 -61.5q-120 0 -160 72l-41 -262h-82l90 571l21 129h66l1 -67q61 77 186 77zM379 442q-80 0 -123 -46t-59 -146q-16 -101 13 -146.5t108 -45.5t122 45.5t59 146.5t-12.5 146.5t-107.5 45.5z" />
    <glyph glyph-name="q" unicode="q" horiz-adv-x="585" 
d="M338 510h1q124 0 162 -77l23 67h66l-21 -129l-90 -571h-82l41 262q-60 -72 -182 -72q-113 0 -154 62t-19 198q22 137 82.5 198.5t172.5 61.5zM348 442q-80 0 -123 -46t-59 -146q-16 -101 13 -146.5t108 -45.5t122 45.5t59 146.5t-12.5 146.5t-107.5 45.5z" />
    <glyph glyph-name="r" unicode="r" horiz-adv-x="356" 
d="M195 250v1l-39 -250h-82l79 500h66l3 -59q50 68 138 68h55l-12 -77h-55q-72 0 -104.5 -40t-48.5 -143z" />
    <glyph glyph-name="s" unicode="s" horiz-adv-x="492" 
d="M188 375l1 -1q-5 -30 15.5 -48.5t55 -25t74 -16.5t73 -22t52 -42.5t11.5 -77.5q-13 -80 -67.5 -116.5t-162.5 -36.5q-104 0 -144.5 38t-27.5 122h78q-9 -56 15 -80.5t89 -24.5t97 21t39 69q6 39 -23.5 59t-74 28.5t-89.5 19.5t-72.5 41.5t-18.5 84.5q11 75 62.5 109
t152.5 34q100 0 139.5 -35.5t27.5 -114.5h-74q8 51 -15.5 73t-84.5 22q-62 0 -91.5 -18.5t-36.5 -61.5z" />
    <glyph glyph-name="t" unicode="t" horiz-adv-x="363" 
d="M213 146h1q-13 -78 74 -78h65l-10 -68h-93q-69 0 -100 36.5t-21 100.5l48 303h-80l10 59h80l18 119h82l-18 -119h152l-10 -59h-152z" />
    <glyph glyph-name="u" unicode="u" horiz-adv-x="565" 
d="M425 0h-2l-3 58q-58 -68 -171 -68q-98 0 -133.5 57t-15.5 183l43 270h82l-43 -270q-14 -91 8.5 -131t89.5 -41q73 -1 112 40t53 132l43 270h82l-79 -500h-66z" />
    <glyph glyph-name="v" unicode="v" horiz-adv-x="503" 
d="M261 56l224 444h87l-261 -500h-119l-103 500h87z" />
    <glyph glyph-name="w" unicode="w" horiz-adv-x="810" 
d="M626 0h-98l-53 438l-191 -438h-99l-85 500h82l65 -432l190 432h99l48 -433l203 433h82z" />
    <glyph glyph-name="x" unicode="x" horiz-adv-x="494" 
d="M198 500l97 -195l159 195h89l-204 -240l135 -260h-89l-105 214l-171 -214h-89l217 260l-128 240h89z" />
    <glyph glyph-name="y" unicode="y" horiz-adv-x="486" 
d="M226 6v-1l3 7l-141 488h79l112 -388l197 388h79l-240 -467q-12 -22 -29 -53q-49 -88 -79.5 -120t-76.5 -37q-22 -2 -36 -2h-55l9 59h52q13 0 19 1q29 4 49 28t58 97z" />
    <glyph glyph-name="z" unicode="z" horiz-adv-x="468" 
d="M138 64h311l-10 -64h-411l8 51l362 386h-291l10 64h391l-8 -51z" />
    <glyph glyph-name="braceleft" unicode="{" horiz-adv-x="340" 
d="M211 149l-6 -45l-25 -159q-7 -40 14 -58t73 -20h52l-10 -68h-56q-88 0 -122 36.5t-21 118.5l31 194q4 22 -5.5 45.5t-40.5 31.5l3 20l3 19l3 20q26 0 45.5 23t25.5 53l29 188q10 76 53.5 112t128.5 39h64l-11 -68h-52q-52 1 -78.5 -18t-33.5 -60l-30 -192
q-13 -74 -74 -106q53 -21 40 -106z" />
    <glyph glyph-name="bar" unicode="|" horiz-adv-x="259" 
d="M205 700h70l-142 -900h-70z" />
    <glyph glyph-name="braceright" unicode="}" horiz-adv-x="340" 
d="M168 105l8 45q14 85 74 106q-51 33 -40 106l30 192q7 41 -14 60t-73 18h-52l10 68h64q85 -3 117 -39t17 -112l-29 -188q-4 -30 8 -53t38 -23l-4 -20l-3 -19l-3 -20q-33 -8 -50 -31t-20 -46l-31 -194q-13 -82 -58 -118.5t-133 -36.5h-55l11 68h51q53 2 79.5 20t32.5 58z
" />
    <glyph glyph-name="asciitilde" unicode="~" horiz-adv-x="697" 
d="M84 228l11 67q48 39 96 50t89 0t81.5 -31t80.5 -40t79.5 -31t84 1t88.5 51l-10 -67q-48 -40 -96 -51.5t-89 -1t-82 30.5t-81 40t-79.5 31.5t-84 0.5t-88.5 -50v-1v1z" />
    <glyph glyph-name="space_" unicode="&#xa0;" horiz-adv-x="282" 
 />
    <glyph glyph-name="exclamdown" unicode="&#xa1;" horiz-adv-x="263" 
d="M151 -200h-85l30 190l56 261h55l-26 -261zM194 387v-1q-58 0 -48 59q9 59 66 59t48 -58q-9 -59 -66 -59z" />
    <glyph glyph-name="cent" unicode="&#xa2;" 
d="M240 -94l1 4l14 85q-109 7 -149 69t-20 190t80 190t171 69l13 81h66l-13 -81q85 -7 124 -50.5t37 -132.5h-82q-3 60 -32 87t-91 27q-85 0 -130 -45.5t-62 -146.5q-16 -101 15 -146t116 -45q62 0 99.5 27t58.5 87h82q-26 -89 -78.5 -132.5t-140.5 -50.5l-13 -86h-66z" />
    <glyph glyph-name="sterling" unicode="&#xa3;" horiz-adv-x="668" 
d="M647 73l-1 -1l-12 -73h-557l14 87q105 37 124 113q6 14 14 61l10 63h-111l10 68h111l18 108q17 108 70 160.5t153 58.5q21 2 44 0q96 -4 132 -56.5t19 -162.5h-78q13 83 -10.5 119.5t-90.5 36.5q-18 0 -26 -1q-57 -5 -87.5 -41.5t-42.5 -112.5q-9 -52 -17 -108h275
l-11 -68h-275l-10 -63q-9 -50 -14 -60q-20 -89 -132 -128h481z" />
    <glyph glyph-name="currency" unicode="&#xa4;" horiz-adv-x="616" 
d="M621 491l-53 -48q44 -62 23 -194q-21 -133 -85 -194l39 -48l-51 -47l-45 56q-58 -27 -143 -27q-86 0 -135 27l-63 -56l-35 47l53 48q-44 62 -23 194q21 133 85 194l-39 48l51 47l45 -56q59 27 143 27q86 0 135 -27l63 56zM186 250q-16 -102 15 -147t116 -45t130 45
t61 146q16 102 -15 147t-116 45q-86 0 -130 -44.5t-61 -146.5z" />
    <glyph glyph-name="yen" unicode="&#xa5;" horiz-adv-x="683" 
d="M430 282l-14 -90h212l-10 -64h-212l-21 -129h-86l21 129h-216l10 64h216l14 90l-5 12h-209l10 64h172l-146 342h99l135 -335l240 335h95l-250 -342h169l-10 -64h-205z" />
    <glyph glyph-name="section" unicode="&#xa7;" horiz-adv-x="652" 
d="M274 541l-2 1q-7 -47 29.5 -76.5t93.5 -46.5t113 -36t91 -60.5t25 -105.5q-18 -110 -101 -147q21 -38 12 -92q-17 -104 -77 -150.5t-177 -46.5q-114 0 -157.5 52.5t-24.5 167.5h70q-13 -81 16 -116.5t108 -35.5q76 0 113 27t47 89q6 37 -12 62.5t-51 39.5t-73.5 25.5
t-81 25.5t-72.5 32.5t-49 53t-9 81.5q16 106 112 141q-32 43 -22 108q16 98 73 142.5t167 44.5q111 0 152.5 -52t23.5 -168h-70q13 81 -14 116t-103 35q-70 0 -105 -26t-45 -85zM265 382h-1q-72 -22 -82 -89q-6 -40 25.5 -66.5t76 -38t104 -31t92.5 -42.5q53 25 63 93
q6 38 -22 64.5t-68 39t-97.5 31.5t-90.5 39z" />
    <glyph glyph-name="dieresis" unicode="&#xa8;" horiz-adv-x="370" 
d="M213 710v-1q30 0 41 -14t6 -45q-9 -58 -66 -58q-30 0 -41 14t-6 45q9 59 66 59zM379 709v-1q30 0 41 -14t6 -45q-9 -58 -66 -58q-30 0 -41.5 14t-6.5 45q10 59 67 59z" />
    <glyph glyph-name="copyright" unicode="&#xa9;" horiz-adv-x="877" 
d="M554 720q198 0 273.5 -88t44.5 -282t-134.5 -282t-301.5 -88t-273.5 88t-44.5 282t134.5 282t301.5 88zM446 39v1q168 0 255 73.5t113 236.5t-38.5 236.5t-231.5 73.5q-168 0 -255.5 -73.5t-112.5 -237.5q-26 -163 38.5 -236.5t231.5 -73.5zM526 550h1q93 0 133.5 -38
t37.5 -122h-66q-1 56 -27.5 80t-87.5 24q-73 0 -110.5 -34t-49.5 -110q-11 -72 10 -105.5t82 -37.5q7 -1 22 -1q62 0 96 24t53 80h66q-24 -84 -77 -122t-146 -38q-107 0 -148 47.5t-24 152.5q16 105 72 152.5t163 47.5z" />
    <glyph glyph-name="guillemotleft" unicode="&#xab;" horiz-adv-x="439" 
d="M238 450h80l-148 -190l86 -200h-80l-90 200zM382 450h80l-148 -190l86 -200h-80l-90 200z" />
    <glyph glyph-name="logicalnot" unicode="&#xac;" horiz-adv-x="627" 
d="M615 302l-31 -198h-66l21 130h-454l10 68h520z" />
    <glyph glyph-name="registered" unicode="&#xae;" horiz-adv-x="877" 
d="M552 720q198 0 273.5 -88t44.5 -282t-134.5 -282t-301.5 -88t-273.5 88t-44.5 282t134.5 282t301.5 88zM444 39v1q169 0 255.5 73t112.5 237t-37.5 237t-232.5 73t-255.5 -73t-112.5 -238q-26 -164 37.5 -237t232.5 -73zM581 170l-63 131h-6h-119l-21 -131h-54l56 360
h174q74 0 103.5 -27t19.5 -87q-13 -90 -98 -109l69 -137h-61zM540 484h-119l-21 -136h119q47 0 69.5 15.5t27.5 52.5q6 37 -11.5 52.5t-64.5 15.5z" />
    <glyph glyph-name="macron" unicode="&#xaf;" horiz-adv-x="437" 
d="M136 561l9 55h340l-9 -55h-340z" />
    <glyph glyph-name="degree" unicode="&#xb0;" horiz-adv-x="469" 
d="M127 520q16 100 68 145t152 45t138 -45t22 -145t-68 -145t-152 -45t-138 45t-22 145zM182 520q-12 -73 14 -104t99 -31t109 31t48 104q11 73 -15 104t-99 31t-109 -31t-47 -104z" />
    <glyph glyph-name="plusminus" unicode="&#xb1;" horiz-adv-x="617" 
d="M48 0l10 68h520l-10 -68h-520zM623 348l-11 -68h-227l-27 -167h-66l27 167h-227l11 68h227l24 152h66l-24 -152h227z" />
    <glyph glyph-name="acute" unicode="&#xb4;" horiz-adv-x="298" 
d="M132 550l134 150h85l-149 -150h-70z" />
    <glyph glyph-name="paragraph" unicode="&#xb6;" horiz-adv-x="821" 
d="M778 632l-132 -832h-70l132 832h-255l-132 -832h-70l79 500q-117 0 -162.5 47.5t-28.5 152.5t83.5 152.5t197.5 47.5h470l-10 -68h-102z" />
    <glyph glyph-name="periodcentered" unicode="&#xb7;" horiz-adv-x="203" 
d="M151 316l-1 -1q58 0 48 -59q-9 -58 -66 -58q-30 0 -41.5 14t-6.5 45q10 59 67 59z" />
    <glyph glyph-name="cedilla" unicode="&#xb8;" horiz-adv-x="287" 
d="M114 18l1 1h49l-32 -69q4 -1 11 -2t23.5 -7.5t28.5 -15.5t20.5 -26t4.5 -38q-8 -53 -63 -81.5t-152 -28.5l7 42q135 0 145 68q2 15 -6.5 26t-24.5 16t-31 7.5t-30 2.5z" />
    <glyph glyph-name="guillemotright" unicode="&#xbb;" horiz-adv-x="445" 
d="M119 450h80l98 -190l-160 -200h-80l156 200zM263 450h80l98 -190l-160 -200h-80l156 200z" />
    <glyph glyph-name="questiondown" unicode="&#xbf;" horiz-adv-x="523" 
d="M349 268q-9 -55 -33.5 -93.5t-53.5 -58.5t-58 -38t-51.5 -44t-28.5 -64q-11 -64 17 -93t99 -29t109.5 38.5t52.5 123.5h78q-19 -121 -79 -175.5t-174 -54.5t-158.5 45t-28.5 145q8 50 33 84t56.5 53t63 37t56.5 49t32 75h68zM333 387q-30 0 -41.5 14t-6.5 45t20.5 45
t45.5 14q58 0 48 -59q-9 -59 -66 -59z" />
    <glyph glyph-name="Agrave" unicode="&#xc0;" horiz-adv-x="654" 
d="M541 0l-33 169h-312l-86 -169h-90l359 700h123l132 -700h-93zM426 616l-193 -378h264zM404 870h1l89 -120h-67l-101 120h78z" />
    <glyph glyph-name="Aacute" unicode="&#xc1;" horiz-adv-x="654" 
d="M541 0l-33 169h-312l-86 -169h-90l359 700h123l132 -700h-93zM425 616l-193 -378h264zM395 750l123 120h82l-135 -120h-70z" />
    <glyph glyph-name="Acircumflex" unicode="&#xc2;" horiz-adv-x="654" 
d="M541 0l-33 169h-312l-86 -169h-90l359 700h123l132 -700h-93zM424 616l-193 -378h264zM503 870l79 -120h-62l-64 79l-90 -79h-62l118 120h81z" />
    <glyph glyph-name="Atilde" unicode="&#xc3;" horiz-adv-x="654" 
d="M541 0l-33 169h-312l-86 -169h-90l359 700h123l132 -700h-93zM425 616l-193 -378h264zM288 760q8 50 36 77t66 27q33 0 57.5 -17t44 -34t40.5 -17q37 0 46 54h39q-8 -50 -36 -77t-66 -27q-33 0 -57.5 17t-44 34t-40.5 17q-37 0 -46 -54h-39z" />
    <glyph glyph-name="Adieresis" unicode="&#xc4;" horiz-adv-x="654" 
d="M541 0l-33 169h-312l-86 -169h-90l359 700h123l132 -700h-93zM423 614l-193 -378h264zM378 845l-1 -1q59 0 50 -52t-65 -52q-58 0 -49 52q5 28 20 40.5t45 12.5zM551 844l-1 -1q30 0 42 -12.5t8 -39.5q-9 -52 -65 -52q-58 0 -49 52q5 28 20 40.5t45 12.5z" />
    <glyph glyph-name="Aring" unicode="&#xc5;" horiz-adv-x="654" 
d="M541 0l-33 169h-312l-86 -169h-90l359 700h123l132 -700h-93zM426 616l-193 -378h264zM472 922h1q58 0 80.5 -23.5t14.5 -75.5t-38.5 -75.5t-89.5 -23.5q-58 0 -80.5 23.5t-14.5 75.5t38.5 75.5t88.5 23.5zM448 767h1q35 0 51.5 13t21.5 44t-8 44t-48 13t-52 -13t-22 -44
t8 -44t48 -13z" />
    <glyph glyph-name="AE" unicode="&#xc6;" horiz-adv-x="902" 
d="M963 627l-1 1h-339l-36 -225h299l-11 -73h-299l-41 -257h339l-11 -73h-421l26 169h-244l-114 -169h-91l481 700l47 -3v3h427zM543 642l-273 -404h209z" />
    <glyph glyph-name="Ccedilla" unicode="&#xc7;" horiz-adv-x="758" 
d="M356 -19l3 3q-155 7 -212.5 95t-28.5 274q31 194 123 282t263 88q138 0 201.5 -59t68.5 -190h-90q-8 92 -52 131.5t-141 39.5q-123 0 -189 -69t-91 -224t19.5 -224t167.5 -69q88 0 144.5 39.5t102.5 132.5h90q-55 -126 -133 -185.5t-195 -63.5l-15 -32q4 -1 11 -2
t23.5 -7.5t28.5 -15.5t20.5 -26t4.5 -38q-8 -53 -63 -81.5t-152 -28.5l7 42q135 0 145 68q2 15 -6.5 26t-24.5 16t-31 7.5t-30 2.5z" />
    <glyph glyph-name="Egrave" unicode="&#xc8;" horiz-adv-x="604" 
d="M664 627v1h-381l-36 -225h341l-11 -73h-341l-41 -257h381l-11 -73h-471l110 700h471zM408 871h1l89 -120h-67l-101 120h78z" />
    <glyph glyph-name="Eacute" unicode="&#xc9;" horiz-adv-x="604" 
d="M664 627v1h-381l-36 -225h341l-11 -73h-341l-41 -257h381l-11 -73h-471l110 700h471zM399 751l123 120h82l-135 -120h-70z" />
    <glyph glyph-name="Ecircumflex" unicode="&#xca;" horiz-adv-x="604" 
d="M664 627v1h-381l-36 -225h341l-11 -73h-341l-41 -257h381l-11 -73h-471l110 700h471zM507 871l79 -120h-62l-64 79l-90 -79h-62l118 120h81z" />
    <glyph glyph-name="Edieresis" unicode="&#xcb;" horiz-adv-x="634" 
d="M658 627v1h-381l-36 -225h341l-11 -73h-341l-41 -257h381l-11 -73h-471l110 700h471zM375 846l-1 -1q59 0 50 -52t-65 -52q-58 0 -49 52q5 28 20 40.5t45 12.5zM548 845l-1 -1q59 0 50 -52t-65 -52q-58 0 -49 52q5 28 20 40.5t45 12.5z" />
    <glyph glyph-name="Igrave" unicode="&#xcc;" horiz-adv-x="279" 
d="M205 700h90l-110 -700h-90zM219 870h1l89 -120h-67l-101 120h78z" />
    <glyph glyph-name="Iacute" unicode="&#xcd;" horiz-adv-x="291" 
d="M205 700h90l-110 -700h-90zM210 750l123 120h82l-135 -120h-70z" />
    <glyph glyph-name="Icircumflex" unicode="&#xce;" horiz-adv-x="266" 
d="M198 700h90l-110 -700h-90zM310 870l79 -120h-62l-64 79l-90 -79h-62l118 120h81z" />
    <glyph glyph-name="Idieresis" unicode="&#xcf;" horiz-adv-x="266" 
d="M198 700h90l-110 -700h-90zM185 845l-1 -1q59 0 50 -52t-65 -52q-58 0 -49 52q5 28 20 40.5t45 12.5zM358 844l-1 -1q30 0 42 -12.5t8 -39.5q-9 -52 -65 -52q-58 0 -49 52q5 28 20 40.5t45 12.5z" />
    <glyph glyph-name="Ntilde" unicode="&#xd1;" horiz-adv-x="743" 
d="M673 700h86l-110 -700h-107l-270 579l-91 -579h-86l110 700h107l270 -579zM334 760q8 50 36 77t66 27q33 0 57.5 -17t44 -34t40.5 -17q37 0 46 54h39q-8 -50 -36 -77t-66 -27q-33 0 -57.5 17t-44 34t-40.5 17q-37 0 -46 -54h-39z" />
    <glyph glyph-name="Ograve" unicode="&#xd2;" horiz-adv-x="788" 
d="M508 720q175 0 240 -88t34 -282t-124 -282t-268 -88t-240 88t-34 282t124 282t268 88zM496 643q-127 0 -193.5 -69t-91.5 -224t20.5 -224t172.5 -69t193.5 69t91.5 224t-20.5 224t-172.5 69zM472 870h1l89 -120h-67l-101 120h78z" />
    <glyph glyph-name="Oacute" unicode="&#xd3;" horiz-adv-x="788" 
d="M508 720q175 0 240 -88t34 -282t-124 -282t-268 -88t-240 88t-34 282t124 282t268 88zM496 643q-127 0 -193.5 -69t-91.5 -224t20.5 -224t172.5 -69t193.5 69t91.5 224t-20.5 224t-172.5 69zM464 750l123 120h82l-135 -120h-70z" />
    <glyph glyph-name="Ocircumflex" unicode="&#xd4;" horiz-adv-x="788" 
d="M508 720q175 0 240 -88t34 -282t-124 -282t-268 -88t-240 88t-34 282t124 282t268 88zM494 643q-127 0 -193.5 -69t-91.5 -224t20.5 -224t172.5 -69t193.5 69t91.5 224t-20.5 224t-172.5 69zM571 870l79 -120h-62l-64 79l-90 -79h-62l118 120h81z" />
    <glyph glyph-name="Otilde" unicode="&#xd5;" horiz-adv-x="788" 
d="M508 720q175 0 240 -88t34 -282t-124 -282t-268 -88t-240 88t-34 282t124 282t268 88zM495 643q-127 0 -193.5 -69t-91.5 -224t20.5 -224t172.5 -69t193.5 69t91.5 224t-20.5 224t-172.5 69zM356 760q8 50 36 77t66 27q33 0 57.5 -17t44 -34t40.5 -17q37 0 46 54h39
q-8 -50 -36 -77t-66 -27q-33 0 -57.5 17t-44 34t-40.5 17q-37 0 -46 -54h-39z" />
    <glyph glyph-name="Odieresis" unicode="&#xd6;" horiz-adv-x="775" 
d="M502 720q175 0 240 -88t34 -282t-124 -282t-268 -88t-240 88t-34 282t124 282t268 88zM487 641q-127 0 -194 -69t-91 -224q-25 -155 20 -224t172 -69t194 69t92 224q24 155 -21 224t-172 69zM440 845l-1 -1q59 0 50 -52t-65 -52q-58 0 -49 52q5 28 20 40.5t45 12.5z
M613 844l-1 -1q30 0 42 -12.5t8 -39.5q-9 -52 -65 -52q-58 0 -49 52q5 28 20 40.5t45 12.5z" />
    <glyph glyph-name="multiply" unicode="&#xd7;" horiz-adv-x="569" 
d="M183 479l148 -176l204 176l39 -52l-201 -174l146 -174l-55 -52l-148 176l-204 -176l-39 52l202 174l-147 174z" />
    <glyph glyph-name="Oslash" unicode="&#xd8;" horiz-adv-x="788" 
d="M655 780l-1 1h59l-45 -88q80 -35 107 -118.5t5 -223.5q-31 -194 -124 -282t-268 -88q-37 0 -77 5l-33 -65h-59l39 76q-98 29 -132.5 115t-10.5 238q31 194 124 282t268 88q60 0 112 -11zM580 634q-36 10 -87 10q-127 0 -193.5 -69t-91.5 -224q-19 -117 2.5 -184.5
t85.5 -92.5zM349 61h1q24 -3 53 -3q127 0 193.5 69t91.5 224q33 202 -59 262z" />
    <glyph glyph-name="Ugrave" unicode="&#xd9;" horiz-adv-x="715" 
d="M125 254l68 446h90l-70 -446q-17 -104 19.5 -150.5t133.5 -46.5t147.5 46.5t67.5 150.5l70 446h90l-70 -446q-23 -144 -98.5 -209t-218.5 -65t-197.5 65t-31.5 209zM435 870h1l89 -120h-67l-101 120h78z" />
    <glyph glyph-name="Uacute" unicode="&#xda;" horiz-adv-x="715" 
d="M125 254l68 446h90l-70 -446q-17 -104 19.5 -150.5t133.5 -46.5t147.5 46.5t67.5 150.5l70 446h90l-70 -446q-23 -144 -98.5 -209t-218.5 -65t-197.5 65t-31.5 209zM426 750l123 120h82l-135 -120h-70z" />
    <glyph glyph-name="Ucircumflex" unicode="&#xdb;" horiz-adv-x="715" 
d="M125 254l68 446h90l-70 -446q-17 -104 19.5 -150.5t133.5 -46.5t147.5 46.5t67.5 150.5l70 446h90l-70 -446q-23 -144 -98.5 -209t-218.5 -65t-197.5 65t-31.5 209zM533 870l79 -120h-62l-64 79l-90 -79h-62l118 120h81z" />
    <glyph glyph-name="Udieresis" unicode="&#xdc;" horiz-adv-x="703" 
d="M118 254l68 446h90l-70 -446q-17 -104 19.5 -150.5t133.5 -46.5t147.5 46.5t67.5 150.5l70 446h90l-70 -446q-23 -144 -98.5 -209t-218.5 -65t-197.5 65t-31.5 209zM401 845l-1 -1q59 0 50 -52t-65 -52q-58 0 -49 52q5 28 20 40.5t45 12.5zM574 844l-1 -1q30 0 42 -12.5
t8 -39.5q-9 -52 -65 -52q-58 0 -49 52q5 28 20 40.5t45 12.5z" />
    <glyph glyph-name="Yacute" unicode="&#xdd;" horiz-adv-x="610" 
d="M394 282h1l-44 -282h-86l44 282l-178 418h99l135 -335l240 335h95zM374 750l123 120h82l-135 -120h-70z" />
    <glyph glyph-name="germandbls" unicode="&#xdf;" horiz-adv-x="625" 
d="M429 720l1 1q114 0 158.5 -45t28.5 -145q-11 -69 -51.5 -100t-119.5 -31q95 0 131 -46t19 -147q-16 -107 -69 -155.5t-152 -48.5q-24 0 -49 5t-38 10l-14 5l10 64q46 -16 82 -16q67 0 102 33t47 107q13 81 -25.5 115.5t-141.5 34.5l11 69q86 0 129.5 26t52.5 83t-19 85
t-100 28q-80 0 -123 -38t-56 -123l-77 -491h-82l75 476q21 128 85 186t185 58z" />
    <glyph glyph-name="agrave" unicode="&#xe0;" horiz-adv-x="535" 
d="M404 58l-1 1q-56 -68 -177 -68q-97 0 -135 36.5t-25 117.5q14 89 74 129.5t179 40.5h119l5 26q9 61 -15.5 87.5t-89.5 26.5q-66 0 -98.5 -24.5t-41.5 -80.5h-78q14 84 68 122t160 38t148 -42.5t27 -136.5l-52 -331h-66zM148 150l-1 -1q-8 -51 16.5 -73t90.5 -22
q71 0 110.5 33.5t53.5 106.5q1 2 5 32l6 34h-96h-21q-77 -1 -116 -27t-48 -83zM316 701l86 -150h-70l-102 150h86z" />
    <glyph glyph-name="aacute" unicode="&#xe1;" horiz-adv-x="535" 
d="M404 58l-1 1q-56 -68 -177 -68q-97 0 -135 36.5t-25 117.5q14 89 74 129.5t179 40.5h119l5 26q9 61 -15.5 87.5t-89.5 26.5q-66 0 -98.5 -24.5t-41.5 -80.5h-78q14 84 68 122t160 38t148 -42.5t27 -136.5l-52 -331h-66zM149 150l-1 -1q-8 -51 16.5 -73t90.5 -22
q71 0 110.5 33.5t53.5 106.5q1 2 5 32l6 34h-96h-21q-77 -1 -116 -27t-48 -83zM301 551l135 150h85l-150 -150h-70z" />
    <glyph glyph-name="acircumflex" unicode="&#xe2;" horiz-adv-x="535" 
d="M404 58l-1 1q-56 -68 -177 -68q-97 0 -135 36.5t-25 117.5q14 89 74 129.5t179 40.5h119l5 26q9 61 -15.5 87.5t-89.5 26.5q-66 0 -98.5 -24.5t-41.5 -80.5h-78q14 84 68 122t160 38t148 -42.5t27 -136.5l-52 -331h-66zM149 150l-1 -1q-8 -51 16.5 -73t90.5 -22
q71 0 110.5 33.5t53.5 106.5q1 2 5 32l6 34h-96h-21q-77 -1 -116 -27t-48 -83zM419 701l68 -150h-57l-60 103l-92 -103h-57l116 150h82z" />
    <glyph glyph-name="atilde" unicode="&#xe3;" horiz-adv-x="535" 
d="M404 58l-1 1q-56 -68 -177 -68q-97 0 -135 36.5t-25 117.5q14 89 74 129.5t179 40.5h119l5 26q9 61 -15.5 87.5t-89.5 26.5q-66 0 -98.5 -24.5t-41.5 -80.5h-78q14 84 68 122t160 38t148 -42.5t27 -136.5l-52 -331h-66zM148 149l-1 -1q-8 -51 16.5 -73t90.5 -22
q71 0 110.5 33.5t53.5 106.5q0 1 1 5.5t2 12.5t2 14l6 34h-96h-21q-78 -1 -116.5 -26.5t-47.5 -83.5zM200 576q9 52 38.5 85t65.5 33q26 0 47 -14.5t32 -31.5t25.5 -31.5t29.5 -14.5q17 0 30.5 17.5t17.5 46.5h43q-8 -52 -38.5 -85.5t-66.5 -33.5q-26 0 -47 14.5t-31.5 31.5
t-25 31.5t-29.5 14.5q-17 0 -30.5 -17t-17.5 -46h-43v-1v1z" />
    <glyph glyph-name="adieresis" unicode="&#xe4;" horiz-adv-x="535" 
d="M404 58l-1 1q-56 -68 -177 -68q-97 0 -135 36.5t-25 117.5q14 89 74 129.5t179 40.5h119l5 26q9 61 -15.5 87.5t-89.5 26.5q-66 0 -98.5 -24.5t-41.5 -80.5h-78q14 84 68 122t160 38t148 -42.5t27 -136.5l-52 -331h-66zM148 147l-1 -1q-8 -51 16.5 -73t90.5 -22
q71 0 110 33t54 107q0 7 5 32l5 34h-96h-21q-77 -1 -115.5 -26.5t-47.5 -83.5zM294 660v-1q30 0 41.5 -14t6.5 -45q-10 -58 -67 -58q-30 0 -41 14t-6 45q9 59 66 59zM460 659v-1q30 0 41 -14t6 -45q-9 -58 -66 -58q-30 0 -41 14t-6 45q9 59 66 59z" />
    <glyph glyph-name="aring" unicode="&#xe5;" horiz-adv-x="535" 
d="M404 58l-1 1q-56 -68 -177 -68q-97 0 -135 36.5t-25 117.5q14 89 74 129.5t179 40.5h119l5 26q9 61 -15.5 87.5t-89.5 26.5q-66 0 -98.5 -24.5t-41.5 -80.5h-78q14 84 68 122t160 38t148 -42.5t27 -136.5l-52 -331h-66zM150 150l-1 -1q-8 -51 16.5 -73t90.5 -22
q71 0 110.5 33.5t53.5 106.5q1 2 5 32l6 34h-96h-21q-77 -1 -116 -27t-48 -83zM381 723h1q58 0 80.5 -23.5t14.5 -75.5t-38.5 -75.5t-88.5 -23.5t-81 23.5t-15 75.5t38.5 75.5t88.5 23.5zM356 567h1q35 0 51.5 13t21.5 44t-8 44t-48 13t-52 -13t-22 -44t8 -44t48 -13z" />
    <glyph glyph-name="ae" unicode="&#xe6;" horiz-adv-x="900" 
d="M503 206l-1 -1q-7 -82 22.5 -119.5t103.5 -37.5q58 0 92.5 23t58.5 77h78q-32 -83 -88 -121t-150 -38q-153 0 -176 120q-26 -62 -79 -91t-139 -29q-97 0 -135 36.5t-25 117.5q14 87 71 127.5t169 42.5h29h103l4 26q2 12 2 17q4 49 -21.5 71t-87.5 22q-65 0 -97 -23
t-40 -77h-78q14 84 68 122t160 38q140 0 160 -88q63 89 195 89q122 0 167 -64.5t23 -206.5l-5 -33h-384zM429 259h-111q-81 0 -121 -26t-49 -85q-2 -12 -2 -16q-1 -42 24.5 -60.5t84.5 -18.5q15 0 22 1q64 4 96.5 35.5t43.5 98.5zM692 450l-1 1q-79 0 -122 -45t-60 -145h304
q16 101 -12.5 145t-108.5 44z" />
    <glyph glyph-name="ccedilla" unicode="&#xe7;" 
d="M255 -9l3 3q-110 7 -151 69t-20 190q21 136 88.5 198t195.5 62q104 0 150.5 -43.5t44.5 -139.5h-82q-3 60 -32 87t-91 27q-85 0 -130 -45.5t-62 -146.5q-16 -101 15 -146t116 -45q62 0 99.5 27t58.5 87h82q-27 -92 -83 -136t-152 -48l-19 -41q4 -1 11 -2t23.5 -7.5
t28.5 -15.5t20.5 -26t4.5 -38q-8 -53 -63 -81.5t-152 -28.5l7 42q135 0 145 68q2 15 -6.5 26t-24.5 16t-31 7.5t-30 2.5z" />
    <glyph glyph-name="egrave" unicode="&#xe8;" 
d="M159 206h-1q-6 -82 23.5 -119.5t102.5 -37.5q58 0 92.5 23t58.5 77h78q-31 -83 -87.5 -121t-150.5 -38q-122 0 -168 62t-24 198q22 137 87 198.5t188 61.5q122 0 167 -64.5t23 -206.5l-5 -33h-384zM348 451l-1 1q-79 0 -122 -45t-60 -145h304q16 101 -12.5 145t-108.5 44
zM326 700l87 -150h-70l-103 150h86z" />
    <glyph glyph-name="eacute" unicode="&#xe9;" 
d="M159 206h-1q-6 -82 23.5 -119.5t102.5 -37.5q58 0 92.5 23t58.5 77h78q-31 -83 -87.5 -121t-150.5 -38q-122 0 -168 62t-24 198q22 137 87 198.5t188 61.5q122 0 167 -64.5t23 -206.5l-5 -33h-384zM349 451l-1 1q-79 0 -122 -45t-60 -145h304q16 101 -12.5 145t-108.5 44
zM315 550l134 150h85l-149 -150h-70z" />
    <glyph glyph-name="ecircumflex" unicode="&#xea;" 
d="M159 206h-1q-6 -82 23.5 -119.5t102.5 -37.5q58 0 92.5 23t58.5 77h78q-31 -83 -87.5 -121t-150.5 -38q-122 0 -168 62t-24 198q22 137 87 198.5t188 61.5q122 0 167 -64.5t23 -206.5l-5 -33h-384zM348 451l-1 1q-79 0 -122 -45t-60 -145h304q16 101 -12.5 145t-108.5 44
zM428 700l69 -150h-57l-60 103l-92 -103h-57l115 150h82z" />
    <glyph glyph-name="edieresis" unicode="&#xeb;" 
d="M159 206h-1q-6 -82 23.5 -119.5t102.5 -37.5q58 0 92.5 23t58.5 77h78q-31 -83 -87.5 -121t-150.5 -38q-122 0 -168 62t-24 198q22 137 87 198.5t188 61.5q122 0 167 -64.5t23 -206.5l-5 -33h-384zM348 449l-1 1q-79 0 -122 -45t-60 -145h304q16 101 -12.5 145t-108.5 44
zM303 654v-1q30 0 41.5 -14t6.5 -45q-10 -58 -67 -58q-30 0 -41 14t-6 45q9 59 66 59zM469 653v-1q30 0 41 -14t6 -45q-9 -58 -66 -58q-30 0 -41 14t-6 45q9 59 66 59z" />
    <glyph glyph-name="igrave" unicode="&#xec;" horiz-adv-x="223" 
d="M153 0h-82l79 500h82zM160 700l87 -150h-70l-103 150h86z" />
    <glyph glyph-name="iacute" unicode="&#xed;" horiz-adv-x="227" 
d="M156 0h-82l79 500h82zM149 550l134 150h85l-149 -150h-70z" />
    <glyph glyph-name="icircumflex" unicode="&#xee;" horiz-adv-x="223" 
d="M153 0h-82l79 500h82zM263 700l69 -150h-57l-60 103l-92 -103h-57l115 150h82z" />
    <glyph glyph-name="idieresis" unicode="&#xef;" horiz-adv-x="243" 
d="M156 0h-82l79 500h82zM141 654v-1q30 0 41.5 -14t6.5 -45q-10 -58 -67 -58q-30 0 -41 14t-6 45q9 59 66 59zM307 653v-1q30 0 41 -14t6 -45q-9 -58 -66 -58q-30 0 -41 14t-6 45q9 59 66 59z" />
    <glyph glyph-name="ntilde" unicode="&#xf1;" horiz-adv-x="565" 
d="M220 500l2 -1l2 -58q59 69 171 69q98 0 133.5 -57t15.5 -183l-42 -270h-82l42 270q15 91 -8 131t-89 41q-73 1 -112.5 -40t-53.5 -132l-42 -270h-82l79 500h66zM222 574q9 51 39 84.5t66 33.5q26 0 47 -14.5t32 -31.5t25.5 -31.5t29.5 -14.5q17 0 30 17t18 47h43
q-8 -52 -38.5 -85.5t-66.5 -33.5q-26 0 -47 14.5t-32 31.5t-25.5 31.5t-29.5 14.5q-17 0 -30 -16.5t-18 -46.5h-43v-1v1z" />
    <glyph glyph-name="ograve" unicode="&#xf2;" horiz-adv-x="575" 
d="M368 510q128 0 176 -62t26 -198q-22 -137 -89.5 -198.5t-194.5 -61.5q-128 0 -176 62t-26 198q22 137 89.5 198.5t194.5 61.5zM165 250q-16 -102 15 -147t116 -45q86 0 130.5 45t60.5 146q16 102 -15 147t-116 45q-86 0 -130 -44.5t-61 -146.5zM336 700l87 -150h-70
l-103 150h86z" />
    <glyph glyph-name="oacute" unicode="&#xf3;" horiz-adv-x="575" 
d="M368 510q128 0 176 -62t26 -198q-22 -137 -89.5 -198.5t-194.5 -61.5q-128 0 -176 62t-26 198q22 137 89.5 198.5t194.5 61.5zM166 250q-16 -102 15 -147t116 -45t130 45t61 146q16 102 -15 147t-116 45q-86 0 -130 -44.5t-61 -146.5zM326 550l134 150h85l-149 -150h-70z
" />
    <glyph glyph-name="ocircumflex" unicode="&#xf4;" horiz-adv-x="575" 
d="M368 510q128 0 176 -62t26 -198q-22 -137 -89.5 -198.5t-194.5 -61.5q-128 0 -176 62t-26 198q22 137 89.5 198.5t194.5 61.5zM166 250q-16 -102 15 -147t116 -45t130 45t61 146q16 102 -15 147t-116 45q-86 0 -130 -44.5t-61 -146.5zM439 700l69 -150h-57l-60 103
l-92 -103h-57l115 150h82z" />
    <glyph glyph-name="otilde" unicode="&#xf5;" horiz-adv-x="575" 
d="M368 510q128 0 176 -62t26 -198q-22 -137 -89.5 -198.5t-194.5 -61.5q-128 0 -176 62t-26 198q22 137 89.5 198.5t194.5 61.5zM165 249q-16 -102 14.5 -147t116.5 -45q85 0 129.5 45t61.5 146q16 102 -15 147t-116 45q-86 0 -130.5 -44.5t-60.5 -146.5zM221 575l-1 -1
q8 52 38.5 85.5t66.5 33.5q26 0 47 -14.5t32 -31.5t25.5 -31.5t29.5 -14.5q17 0 30 17t18 47h43q-8 -52 -38.5 -85.5t-66.5 -33.5q-26 0 -47 14.5t-31.5 31.5t-25 31.5t-29.5 14.5q-17 0 -30.5 -17t-17.5 -46h-43z" />
    <glyph glyph-name="odieresis" unicode="&#xf6;" horiz-adv-x="575" 
d="M368 510q128 0 176 -62t26 -198q-22 -137 -89.5 -198.5t-194.5 -61.5q-128 0 -176 62t-26 198q22 137 89.5 198.5t194.5 61.5zM165 248q-16 -102 14 -147t116 -45q85 0 130 45t62 146q16 102 -15 147t-116 45q-86 0 -130.5 -44.5t-60.5 -146.5zM314 654v-1q30 0 41.5 -14
t6.5 -45q-10 -58 -67 -58q-30 0 -41 14t-6 45q9 59 66 59zM480 653v-1q30 0 41 -14t6 -45q-9 -58 -66 -58q-30 0 -41 14t-6 45q9 59 66 59z" />
    <glyph glyph-name="divide" unicode="&#xf7;" horiz-adv-x="617" 
d="M257 55h-1q5 26 24 43t46 17t41 -17t9 -43q-4 -26 -23 -43t-46 -17t-40.5 17t-9.5 43zM602 223h-520l11 68h520zM321 464h-1q4 26 23 43t46 17t41 -17t10 -43t-23.5 -43t-46.5 -17q-26 0 -39.5 17t-9.5 43z" />
    <glyph glyph-name="oslash" unicode="&#xf8;" horiz-adv-x="575" 
d="M368 510v-1q33 0 65 -5l33 65h44l-37 -74q67 -22 91 -82t7 -164q-22 -137 -89.5 -198.5t-194.5 -61.5q-33 0 -65 5l-33 -64h-44l37 74q-67 22 -91 82t-7 164q22 137 89.5 198.5t194.5 61.5zM166 249l-2 -1q-22 -141 51 -177l184 366q-19 3 -42 3q-86 0 -130.5 -44.5
t-60.5 -146.5zM436 425l-183 -365q20 -3 43 -3q85 0 129.5 45t61.5 146q22 143 -51 177z" />
    <glyph glyph-name="ugrave" unicode="&#xf9;" horiz-adv-x="565" 
d="M425 0h-2l-3 58q-58 -68 -171 -68q-98 0 -133.5 57t-15.5 183l43 270h82l-43 -270q-14 -91 8.5 -131t89.5 -41q73 -1 112 40t53 132l43 270h82l-79 -500h-66zM339 700l87 -150h-70l-103 150h86z" />
    <glyph glyph-name="uacute" unicode="&#xfa;" horiz-adv-x="565" 
d="M425 0h-2l-3 58q-58 -68 -171 -68q-98 0 -133.5 57t-15.5 183l43 270h82l-43 -270q-14 -91 8.5 -131t89.5 -41q73 -1 112 40t53 132l43 270h82l-79 -500h-66zM288 550l134 150h85l-149 -150h-70z" />
    <glyph glyph-name="ucircumflex" unicode="&#xfb;" horiz-adv-x="565" 
d="M425 0h-2l-3 58q-58 -68 -171 -68q-98 0 -133.5 57t-15.5 183l43 270h82l-43 -270q-14 -91 8.5 -131t89.5 -41q73 -1 112 40t53 132l43 270h82l-79 -500h-66zM421 700l69 -150h-57l-60 103l-92 -103h-57l115 150h82z" />
    <glyph glyph-name="udieresis" unicode="&#xfc;" horiz-adv-x="565" 
d="M425 0h-2l-3 58q-58 -68 -171 -68q-98 0 -133.5 57t-15.5 183l43 270h82l-43 -270q-14 -91 8.5 -131t89.5 -41q73 -1 112 40t53 132l43 270h82l-79 -500h-66zM295 710v-1q30 0 41 -14t6 -45q-9 -58 -66 -58q-30 0 -41 14t-6 45q9 59 66 59zM461 709v-1q30 0 41 -14t6 -45
q-9 -58 -66 -58q-30 0 -41.5 14t-6.5 45q10 59 67 59z" />
    <glyph glyph-name="yacute" unicode="&#xfd;" horiz-adv-x="495" 
d="M225 6v-1l3 7l-141 488h79l112 -388l197 388h79l-240 -467q-12 -22 -29 -53q-49 -88 -79.5 -120t-76.5 -37q-22 -2 -36 -2h-55l9 59h52q13 0 19 1q29 4 49 28t58 97zM293 549l135 150h85l-150 -150h-70z" />
    <glyph glyph-name="ydieresis" unicode="&#xff;" horiz-adv-x="495" 
d="M225 6v-1l3 7l-141 488h79l112 -388l197 388h79l-240 -467q-12 -22 -29 -53q-49 -88 -79.5 -120t-76.5 -37q-22 -2 -36 -2h-55l9 59h52q13 0 19 1q29 4 49 28t58 97zM278 653v-1q30 0 41 -14t6 -45q-9 -58 -66 -58q-30 0 -41 14t-6 45q9 59 66 59zM444 652v-1
q30 0 41 -14t6 -45q-9 -58 -66 -58q-30 0 -41.5 14t-6.5 45q10 59 67 59z" />
    <glyph glyph-name="Amacron" unicode="&#x100;" horiz-adv-x="654" 
d="M541 0l-33 169h-312l-86 -169h-90l359 700h123l132 -700h-93zM425 615l-193 -378h264zM276 761l9 55h340l-9 -55h-340z" />
    <glyph glyph-name="amacron" unicode="&#x101;" horiz-adv-x="535" 
d="M404 58l-1 1q-56 -68 -177 -68q-97 0 -135 36.5t-25 117.5q14 89 74 129.5t179 40.5h119l5 26q9 61 -15.5 87.5t-89.5 26.5q-66 0 -98.5 -24.5t-41.5 -80.5h-78q14 84 68 122t160 38t148 -42.5t27 -136.5l-52 -331h-66zM149 149l-1 -1q-8 -51 16.5 -73t90.5 -22
q71 0 110.5 33.5t53.5 106.5q0 1 1 5.5t2 12.5t2 14l6 34h-96h-21q-78 -1 -116.5 -26.5t-47.5 -83.5zM186 562l8 55h340l-8 -55h-340z" />
    <glyph glyph-name="Abreve" unicode="&#x102;" horiz-adv-x="654" 
d="M541 0l-33 169h-312l-86 -169h-90l359 700h123l132 -700h-93zM422 616l-193 -378h264zM618 870q-10 -63 -51.5 -91.5t-124.5 -28.5q-82 0 -115 28.5t-23 91.5h63q-6 -40 13.5 -57t70.5 -17q52 0 76 17t30 57h61z" />
    <glyph glyph-name="abreve" unicode="&#x103;" horiz-adv-x="535" 
d="M404 58l-1 1q-56 -68 -177 -68q-97 0 -135 36.5t-25 117.5q14 89 74 129.5t179 40.5h119l5 26q9 61 -15.5 87.5t-89.5 26.5q-66 0 -98.5 -24.5t-41.5 -80.5h-78q14 84 68 122t160 38t148 -42.5t27 -136.5l-52 -331h-66zM148 151l-1 -1q-8 -51 16.5 -73t90.5 -22
q71 0 110.5 33.5t53.5 106.5q1 2 5 32l6 34h-96h-21q-77 -1 -115.5 -26.5t-48.5 -83.5zM536 701h-1q-13 -78 -56 -113.5t-125 -35.5q-83 0 -114.5 35.5t-18.5 114.5h59q-9 -53 10.5 -76t72.5 -23q11 0 27 2q38 4 58.5 27t28.5 69h58v1z" />
    <glyph glyph-name="Aogonek" unicode="&#x104;" horiz-adv-x="652" 
d="M559 0l4 1h-19l-33 169h-312l-86 -169h-90l360 700h123l131 -700h-28q-70 -45 -93 -104q-19 -50 18 -65q11 -4 24 -4q6 0 18 2q10 2 21 6t17 7l5 3l-12 -75q-33 -20 -73 -20h-9q-57 4 -73 49t14 103t93 97zM428 617l-193 -378h264z" />
    <glyph glyph-name="aogonek" unicode="&#x105;" horiz-adv-x="535" 
d="M404 5l-1 1v53q-56 -68 -177 -68q-97 0 -135 36.5t-25 117.5q14 89 74 129.5t179 40.5h119l5 26q9 61 -15.5 87.5t-89.5 26.5q-66 0 -98.5 -24.5t-41.5 -80.5h-78q14 84 68 122t160 38t148 -42.5t27 -136.5l-52 -331h-27q-71 -45 -93 -104q-19 -50 18 -65q11 -4 24 -4
q15 0 30.5 4.5t23.5 8.5l8 5l-12 -75q-33 -20 -73 -20q-68 0 -82 56q-14 59 34 126q32 44 82 73zM149 150l-1 -1q-8 -51 16.5 -73t90.5 -22q71 0 110.5 33.5t53.5 106.5q1 2 5 32l6 34h-96h-21q-77 -1 -116 -27t-48 -83z" />
    <glyph glyph-name="Cacute" unicode="&#x106;" horiz-adv-x="758" 
d="M643 229v1h90q-58 -131 -140.5 -190t-208.5 -59q-171 0 -235 88t-33 282t123 282t263 88q138 0 201.5 -59t67.5 -190h-90q-8 92 -52 131.5t-141 39.5q-122 0 -188 -69t-91 -224t19.5 -224t167.5 -69q88 0 144.5 39.5t102.5 132.5zM463 751l123 120h82l-135 -120h-70z" />
    <glyph glyph-name="cacute" unicode="&#x107;" 
d="M456 173l1 1h82q-29 -96 -89 -139.5t-164 -43.5q-128 0 -176 62t-26 198q22 137 89.5 198.5t194.5 61.5q104 0 150.5 -43.5t44.5 -139.5h-82q-2 60 -31 87t-91 27q-85 0 -130.5 -46t-61.5 -146q-16 -101 15 -146t116 -45q61 0 98.5 27t59.5 87zM326 551l135 150h85
l-150 -150h-70z" />
    <glyph glyph-name="Ccircumflex" unicode="&#x108;" horiz-adv-x="758" 
d="M643 229v1h90q-58 -131 -140.5 -190t-208.5 -59q-171 0 -235 88t-33 282t123 282t263 88q138 0 201.5 -59t67.5 -190h-90q-8 92 -52 131.5t-141 39.5q-122 0 -188 -69t-91 -224t19.5 -224t167.5 -69q88 0 144.5 39.5t102.5 132.5zM570 871l79 -120h-62l-64 79l-90 -79
h-62l118 120h81z" />
    <glyph glyph-name="ccircumflex" unicode="&#x109;" 
d="M456 173l1 1h82q-29 -96 -89 -139.5t-164 -43.5q-128 0 -176 62t-26 198q22 137 89.5 198.5t194.5 61.5q104 0 150.5 -43.5t44.5 -139.5h-82q-2 60 -31 87t-91 27q-85 0 -130.5 -46t-61.5 -146q-16 -101 15 -146t116 -45q61 0 98.5 27t59.5 87zM441 701l68 -150h-57
l-60 103l-92 -103h-57l116 150h82z" />
    <glyph glyph-name="Cdotaccent" unicode="&#x10a;" horiz-adv-x="758" 
d="M643 229v1h90q-58 -131 -140.5 -190t-208.5 -59q-171 0 -235 88t-33 282t123 282t263 88q138 0 201.5 -59t67.5 -190h-90q-8 92 -52 131.5t-141 39.5q-122 0 -188 -69t-91 -224t19.5 -224t167.5 -69q88 0 144.5 39.5t102.5 132.5zM533 851l-1 -1q59 0 50 -52t-65 -52
q-58 0 -49 52q5 28 20 40.5t45 12.5z" />
    <glyph glyph-name="cdotaccent" unicode="&#x10b;" horiz-adv-x="552" 
d="M456 173l1 1h82q-29 -96 -89 -139.5t-164 -43.5q-128 0 -176 62t-26 198q22 137 89.5 198.5t194.5 61.5q104 0 150.5 -43.5t44.5 -139.5h-82q-2 60 -31 87t-91 27q-85 0 -130.5 -46t-61.5 -146q-16 -101 15 -146t116 -45q61 0 98.5 27t59.5 87zM399 659l-1 -1
q58 0 49 -56t-66 -56t-48 56q4 30 20 43.5t46 13.5z" />
    <glyph glyph-name="Ccaron" unicode="&#x10c;" horiz-adv-x="758" 
d="M643 229v1h90q-58 -131 -140.5 -190t-208.5 -59q-171 0 -235 88t-33 282t123 282t263 88q138 0 201.5 -59t67.5 -190h-90q-8 92 -52 131.5t-141 39.5q-122 0 -188 -69t-91 -224t19.5 -224t167.5 -69q88 0 144.5 39.5t102.5 132.5zM666 871l-117 -120h-82l-79 120h62
l65 -79l89 79h62z" />
    <glyph glyph-name="ccaron" unicode="&#x10d;" 
d="M456 173l1 1h82q-29 -96 -89 -139.5t-164 -43.5q-128 0 -176 62t-26 198q22 137 89.5 198.5t194.5 61.5q104 0 150.5 -43.5t44.5 -139.5h-82q-2 60 -31 87t-91 27q-85 0 -130.5 -46t-61.5 -146q-16 -101 15 -146t116 -45q61 0 98.5 27t59.5 87zM533 701l-116 -150h-82
l-68 150h57l59 -103l93 103h57z" />
    <glyph glyph-name="Dcaron" unicode="&#x10e;" horiz-adv-x="719" 
d="M714 350q-29 -184 -119 -267t-259 -83h-241l110 700h241q170 0 233.5 -83t34.5 -267zM431 627l-147 -1l-88 -555h147q124 0 189.5 65.5t88.5 212.5t-21.5 212.5t-168.5 65.5zM598 870l-117 -120h-82l-79 120h62l65 -79l89 79h62z" />
    <glyph glyph-name="dcaron" unicode="&#x10f;" horiz-adv-x="650" 
d="M256 -10h-1q-113 0 -154 62t-19 198q22 137 82.5 198.5t172.5 61.5q122 0 160 -72l41 262h82l-90 -571l-20 -129h-66l-2 67q-61 -77 -186 -77zM284 58q79 0 122 45.5t59 146.5t-12.5 146.5t-107.5 45.5q-80 0 -123 -46t-59 -146q-16 -101 13 -146.5t108 -45.5zM712 704
h-1h1zM712 704h-1q42 0 36 -49q0 -12 -3 -26q-9 -50 -31.5 -73t-63.5 -23l6 36q13 0 21.5 5.5t14 17t8.5 30.5q-23 0 -32.5 8.5t-7.5 27.5q0 2 0.5 5t0.5 4q8 37 51 37h1z" />
    <glyph glyph-name="Dcroat" unicode="&#x110;" horiz-adv-x="729" 
d="M724 350q-29 -184 -119 -267t-259 -83h-241l57 365h-90l10 64h90l43 271h241q170 0 233.5 -83t34.5 -267zM441 627v-1h-147l-32 -199h186l-10 -64h-186l-46 -292h147q124 0 189.5 65.5t88.5 212.5t-21.5 212.5t-168.5 65.5z" />
    <glyph glyph-name="dcroat" unicode="&#x111;" horiz-adv-x="625" 
d="M699 630l-7 -46h-90l-72 -455l-20 -129h-66l-2 67q-61 -77 -186 -77q-113 0 -154 62t-19 198q22 137 82.5 198.5t172.5 61.5q122 0 160 -72l23 146h-203l7 46h203l11 70h82l-11 -70h89zM286 58q79 0 122 45.5t59 146.5t-12.5 146.5t-107.5 45.5q-80 0 -123 -46t-59 -146
q-16 -101 13 -146.5t108 -45.5z" />
    <glyph glyph-name="Emacron" unicode="&#x112;" horiz-adv-x="604" 
d="M664 627v1h-381l-36 -225h341l-11 -73h-341l-41 -257h381l-11 -73h-471l110 700h471zM279 762l9 55h340l-9 -55h-340z" />
    <glyph glyph-name="emacron" unicode="&#x113;" 
d="M159 206h-1q-6 -82 23.5 -119.5t102.5 -37.5q58 0 92.5 23t58.5 77h78q-31 -83 -87.5 -121t-150.5 -38q-122 0 -168 62t-24 198q22 137 87 198.5t188 61.5q122 0 167 -64.5t23 -206.5l-5 -33h-384zM348 451l-1 1q-79 0 -122 -45t-60 -145h304q16 101 -12.5 145t-108.5 44
zM196 562l8 55h340l-8 -55h-340z" />
    <glyph glyph-name="Ebreve" unicode="&#x114;" horiz-adv-x="604" 
d="M664 627v1h-381l-36 -225h341l-11 -73h-341l-41 -257h381l-11 -73h-471l110 700h471zM622 871q-10 -63 -51.5 -91.5t-124.5 -28.5q-82 0 -115 28.5t-23 91.5h63q-6 -40 13.5 -57t70.5 -17q52 0 76 17t30 57h61z" />
    <glyph glyph-name="ebreve" unicode="&#x115;" 
d="M159 206h-1q-6 -82 23.5 -119.5t102.5 -37.5q58 0 92.5 23t58.5 77h78q-31 -83 -87.5 -121t-150.5 -38q-122 0 -168 62t-24 198q22 137 87 198.5t188 61.5q122 0 167 -64.5t23 -206.5l-5 -33h-384zM347 452l-1 1q-79 0 -122 -45t-60 -145h304q16 101 -12 145t-109 44z
M545 700q-13 -78 -56 -113.5t-125 -35.5q-83 0 -114.5 35.5t-18.5 114.5h59q-9 -53 10.5 -76t72.5 -23q11 0 27 2q38 5 58.5 27.5t27.5 68.5h59v1v-1z" />
    <glyph glyph-name="Edotaccent" unicode="&#x116;" horiz-adv-x="615" 
d="M664 627v1h-381l-36 -225h341l-11 -73h-341l-41 -257h381l-11 -73h-471l110 700h471zM470 850l-1 -1q30 0 42 -12.5t8 -39.5q-9 -52 -66 -52q-30 0 -41.5 12.5t-6.5 39.5q5 28 20 40.5t45 12.5z" />
    <glyph glyph-name="edotaccent" unicode="&#x117;" 
d="M159 206h-1q-6 -82 23.5 -119.5t102.5 -37.5q58 0 92.5 23t58.5 77h78q-31 -83 -87.5 -121t-150.5 -38q-122 0 -168 62t-24 198q22 137 87 198.5t188 61.5q122 0 167 -64.5t23 -206.5l-5 -33h-384zM347 450l-1 1q-79 0 -122 -45t-60 -145h304q16 101 -12.5 145t-108.5 44
zM387 659l-1 -1q58 0 49 -56t-66 -56t-48 56q4 30 20 43.5t46 13.5z" />
    <glyph glyph-name="Eogonek" unicode="&#x118;" horiz-adv-x="616" 
d="M486 0l2 2h-391l111 700h471l-12 -73h-381l-36 -225h341l-11 -73h-341l-41 -257h381l-11 -73h-32q-70 -45 -93 -104q-19 -50 18 -65q11 -4 24 -4q6 0 18 2q10 2 21 6t16 7l6 3l-12 -75q-33 -20 -73 -20h-9q-57 4 -73 49t14 103t93 97z" />
    <glyph glyph-name="eogonek" unicode="&#x119;" 
d="M288 -10l1 1h-12q-122 0 -168 62t-24 198q22 137 87 198.5t188 61.5q122 0 167.5 -64.5t23.5 -206.5l-6 -33h-384q-6 -82 23.5 -119.5t102.5 -37.5q58 0 92.5 23t58.5 77h78q-48 -130 -169 -153q-69 -47 -88 -105q-16 -49 22 -61q9 -3 21 -3q6 0 18 2q10 2 21 6t17 7l5 3
l-12 -75q-33 -20 -73 -20h-9q-54 3 -71 45t8.5 98t81.5 96zM349 451l-1 1q-79 0 -122 -45t-60 -145h304q16 101 -12.5 145t-108.5 44z" />
    <glyph glyph-name="Ecaron" unicode="&#x11a;" horiz-adv-x="604" 
d="M664 627v1h-381l-36 -225h341l-11 -73h-341l-41 -257h381l-11 -73h-471l110 700h471zM602 871l-117 -120h-82l-79 120h62l65 -79l89 79h62z" />
    <glyph glyph-name="ecaron" unicode="&#x11b;" 
d="M159 206h-1q-6 -82 23.5 -119.5t102.5 -37.5q58 0 92.5 23t58.5 77h78q-31 -83 -87.5 -121t-150.5 -38q-122 0 -168 62t-24 198q22 137 87 198.5t188 61.5q122 0 167 -64.5t23 -206.5l-5 -33h-384zM348 451l-1 1q-79 0 -122 -45t-60 -145h304q16 101 -12.5 145t-108.5 44
zM520 700l-115 -150h-82l-69 150h57l60 -103l92 103h57z" />
    <glyph glyph-name="Gbreve" unicode="&#x11e;" horiz-adv-x="768" 
d="M444 319l-2 1l11 68h313l-6 -38q-31 -194 -119.5 -282t-252.5 -88q-175 0 -240 88t-34 282t124 282t268 88q134 0 197 -57t69 -183h-86q-7 86 -52 124.5t-140 38.5q-127 0 -193.5 -69t-91.5 -224t20.5 -224t172.5 -69q121 0 184 61.5t85 200.5h-227zM685 871
q-10 -63 -51.5 -91.5t-124.5 -28.5q-82 0 -115 28.5t-23 91.5h63q-6 -40 13.5 -57t70.5 -17q52 0 76 17t30 57h61z" />
    <glyph glyph-name="gbreve" unicode="&#x11f;" horiz-adv-x="585" 
d="M256 -10q-112 0 -153 62t-19 198q22 137 82.5 198.5t172.5 61.5q126 0 164 -80l21 70h66l-72 -450q-22 -137 -87 -198.5t-187 -61.5q-97 0 -142 38t-47 121h78q4 -54 31 -77t85 -23q82 0 125.5 44t59.5 143l4 26q-31 -36 -76 -54t-106 -18zM286 59h-1q81 0 123 44.5
t58 146.5q12 68 2.5 110.5t-39 62t-83.5 19.5q-80 0 -122.5 -45t-59.5 -147q-11 -67 -1.5 -109.5t39 -62t83.5 -19.5h-1h2zM564 700q-13 -78 -56 -113.5t-125 -35.5q-83 0 -114.5 35.5t-18.5 114.5h59q-6 -36 0.5 -57.5t26.5 -31.5t56 -10q11 0 27 2q38 4 58.5 27t27.5 69
h59v1v-1z" />
    <glyph glyph-name="Gdotaccent" unicode="&#x120;" horiz-adv-x="768" 
d="M444 319l-2 1l11 68h313l-6 -38q-31 -194 -119.5 -282t-252.5 -88q-175 0 -240 88t-34 282t124 282t268 88q134 0 197 -57t69 -183h-86q-7 86 -52 124.5t-140 38.5q-127 0 -193.5 -69t-91.5 -224t20.5 -224t172.5 -69q121 0 184 61.5t85 200.5h-227zM532 850l-1 -1
q30 0 42 -12.5t8 -39.5q-9 -52 -66 -52q-30 0 -41.5 12.5t-6.5 39.5q5 28 20 40.5t45 12.5z" />
    <glyph glyph-name="gdotaccent" unicode="&#x121;" horiz-adv-x="585" 
d="M256 -10q-112 0 -153 62t-19 198q22 137 82.5 198.5t172.5 61.5q126 0 164 -80l21 70h66l-72 -450q-22 -137 -87 -198.5t-187 -61.5q-97 0 -142 38t-47 121h78q4 -54 31 -77t85 -23q82 0 125.5 44t59.5 143l4 26q-31 -36 -76 -54t-106 -18zM286 57h-1q54 0 90 19.5
t58 61.5t33 110q16 102 -12.5 147t-108.5 45t-122.5 -45t-58.5 -147q-12 -67 -2.5 -109.5t39.5 -62t84 -19.5h-1h2zM387 658l-1 -1q30 0 41.5 -13.5t7 -42.5t-20 -42.5t-45.5 -13.5q-29 0 -40.5 13.5t-7.5 42.5q3 20 11 32.5t21.5 18.5t33.5 6z" />
    <glyph glyph-name="Gcedilla" unicode="&#x122;" horiz-adv-x="755" 
d="M438 319l-2 1l11 68h313l-6 -38q-31 -194 -119.5 -282t-252.5 -88q-175 0 -240 88t-34 282t124 282t268 88q134 0 197 -57t69 -183h-86q-7 86 -52 124.5t-140 38.5q-127 0 -193.5 -69t-91.5 -224t20.5 -224t172.5 -69q121 0 184 61.5t85 200.5h-227zM378 -45h-1h1z
M378 -45h-1q41 0 37 -49q-2 -18 -4 -26q-6 -34 -18 -55t-31 -31t-46 -10l6 36q37 0 44 53q-23 0 -32.5 8.5t-7.5 27.5q1 2 1.5 5t0.5 4q8 37 50 37h1z" />
    <glyph glyph-name="gcedilla" unicode="&#x123;" horiz-adv-x="562" 
d="M250 -10q-112 0 -153 62t-19 198q22 137 82.5 198.5t172.5 61.5q126 0 164 -80l21 70h66l-72 -450q-22 -137 -87 -198.5t-187 -61.5q-97 0 -142 38t-47 121h78q4 -54 31 -77t85 -23q82 0 125.5 44t59.5 143l4 26q-31 -36 -76 -54t-106 -18zM282 59h-1q81 0 123 44.5
t58 146.5q17 102 -11.5 147t-108.5 45t-122.5 -45t-59.5 -147q-11 -67 -1.5 -109.5t39 -62t83.5 -19.5h-1h2zM375 556h1h-1zM375 556h1q-41 0 -37 49q1 8 3 26q10 50 33 73t63 23l-6 -36q-37 0 -44 -53q23 0 32.5 -8.5t7.5 -27.5q0 -2 -0.5 -5t-1.5 -4q-8 -37 -50 -37h-1z
" />
    <glyph glyph-name="Itilde" unicode="&#x128;" horiz-adv-x="279" 
d="M205 700h90l-110 -700h-90zM102 760q8 50 36 77t66 27q33 0 57.5 -17t44 -34t40.5 -17q37 0 46 54h39q-8 -50 -36 -77t-66 -27q-33 0 -57.5 17t-44 34t-40.5 17q-37 0 -46 -54h-39z" />
    <glyph glyph-name="itilde" unicode="&#x129;" horiz-adv-x="231" 
d="M156 0h-82l79 500h82zM48 575l-1 -1q8 52 38.5 85.5t66.5 33.5q26 0 47 -14.5t32 -31.5t25.5 -31.5t29.5 -14.5q17 0 30 17t18 47h43q-8 -52 -38.5 -85.5t-66.5 -33.5q-26 0 -47 14.5t-31.5 31.5t-25 31.5t-29.5 14.5q-17 0 -30.5 -17t-17.5 -46h-43z" />
    <glyph glyph-name="Imacron" unicode="&#x12a;" horiz-adv-x="279" 
d="M205 700h90l-110 -700h-90zM90 761l9 55h340l-9 -55h-340z" />
    <glyph glyph-name="imacron" unicode="&#x12b;" horiz-adv-x="231" 
d="M157 0h-82l79 500h82zM34 561l9 55h340l-9 -55h-340z" />
    <glyph glyph-name="Iogonek" unicode="&#x12e;" horiz-adv-x="279" 
d="M119 0l2 1h-25l111 700h90l-111 -700h-17q-70 -45 -93 -104q-19 -50 18 -65q11 -4 24 -4q6 0 18 2q10 2 21 6t17 7l5 3l-12 -75q-33 -20 -73 -20h-9q-56 4 -72 49t14 103t92 97z" />
    <glyph glyph-name="iogonek" unicode="&#x12f;" horiz-adv-x="239" 
d="M95 0l2 1h-17l79 500h82l-79 -500h-17q-70 -45 -93 -104q-19 -50 18 -65q11 -4 24 -4q6 0 18 2q10 2 21 6t17 7l5 3l-12 -75q-33 -20 -73 -20h-9q-56 4 -72 49t14 103t92 97zM222 720q30 0 41.5 -13.5t6.5 -42.5q-10 -56 -66 -56q-58 0 -48 56q9 56 66 56z" />
    <glyph glyph-name="Idotaccent" unicode="&#x130;" horiz-adv-x="291" 
d="M205 700h90l-110 -700h-90zM280 849l-1 -1q30 0 42 -12.5t8 -39.5q-9 -52 -66 -52q-30 0 -41.5 12.5t-6.5 39.5q7 53 65 53z" />
    <glyph glyph-name="dotlessi" unicode="&#x131;" horiz-adv-x="231" 
d="M156 0h-82l79 500h82z" />
    <glyph glyph-name="IJ" unicode="&#x132;" horiz-adv-x="836" 
d="M205 700h90l-110 -700h-90zM345 210h-2l3 23h86l-3 -23q-13 -82 11.5 -117.5t92.5 -35.5t103 35.5t49 117.5l77 490h90l-77 -490q-19 -119 -79 -172.5t-174 -53.5q-112 0 -154 53.5t-23 172.5z" />
    <glyph glyph-name="ij" unicode="&#x133;" horiz-adv-x="486" 
d="M181 0h-82l79 500h82zM212 -112v-1q87 0 99 78l85 534h82l-86 -542q-10 -64 -52.5 -100.5t-111.5 -36.5h-80l11 68h53zM240 718q58 0 48 -56q-9 -56 -66 -56q-30 0 -41.5 13.5t-6.5 42.5q10 56 66 56zM470 718q58 0 48 -56q-9 -56 -66 -56q-30 0 -41.5 13.5t-6.5 42.5
q10 56 66 56z" />
    <glyph glyph-name="Kcedilla" unicode="&#x136;" horiz-adv-x="632" 
d="M295 700l-48 -305l344 305h111l-382 -340l292 -360h-111l-265 325l-51 -325h-90l110 700h90zM304 -45h-1h1zM304 -45h-1q41 0 37 -49q-2 -18 -4 -26q-6 -34 -18 -55t-31 -31t-46 -10l6 36q37 0 44 53q-23 0 -32.5 8.5t-7.5 27.5q1 2 1.5 5t0.5 4q8 37 50 37h1z" />
    <glyph glyph-name="kcedilla" unicode="&#x137;" horiz-adv-x="500" 
d="M267 700l-65 -415l258 215h100l-287 -240l228 -260h-100l-207 235l-37 -235h-82l110 700h82zM250 -46h-1h1zM250 -46h-1q42 0 36 -49q0 -12 -3 -26q-9 -50 -31.5 -73t-63.5 -23l6 36q13 0 21.5 5.5t14 17t8.5 30.5q-23 0 -32.5 8.5t-7.5 27.5q0 2 0.5 5t0.5 4q8 37 51 37
h1z" />
    <glyph glyph-name="Lacute" unicode="&#x139;" horiz-adv-x="546" 
d="M538 77l-12 -77h-431l110 700h90l-98 -623h341zM213 750l123 120h82l-135 -120h-70z" />
    <glyph glyph-name="lacute" unicode="&#x13a;" horiz-adv-x="250" 
d="M82 0l110 700h82l-110 -700h-82zM190 750l123 120h82l-135 -120h-70z" />
    <glyph glyph-name="Lcedilla" unicode="&#x13b;" horiz-adv-x="546" 
d="M538 77l-12 -77h-431l110 700h90l-98 -623h341zM303 -46h-1h1zM303 -46h-1q42 0 36 -49q0 -12 -3 -26q-9 -50 -31.5 -73t-63.5 -23l6 36q13 0 21.5 5.5t14 17t8.5 30.5q-23 0 -32.5 8.5t-7.5 27.5q0 2 0.5 5t0.5 4q8 37 51 37h1z" />
    <glyph glyph-name="lcedilla" unicode="&#x13c;" horiz-adv-x="219" 
d="M68 0l110 700h82l-110 -700h-82zM101 -46h-1h1zM101 -46h-1q42 0 36 -49q0 -12 -3 -26q-9 -50 -31.5 -73t-63.5 -23l6 36q19 0 29 12.5t15 40.5q-23 0 -32.5 8.5t-7.5 27.5q0 2 0.5 5t0.5 4q8 37 51 37h1z" />
    <glyph glyph-name="Lcaron" unicode="&#x13d;" horiz-adv-x="546" 
d="M538 77l-12 -77h-431l110 700h90l-98 -623h341zM387 704h-1h1zM387 704h-1q42 0 36 -49q0 -12 -3 -26q-9 -50 -31.5 -73t-63.5 -23l6 36q13 0 21.5 5.5t14 17t8.5 30.5q-23 0 -32.5 8.5t-7.5 27.5q0 2 0.5 5t0.5 4q8 37 51 37h1z" />
    <glyph glyph-name="lcaron" unicode="&#x13e;" horiz-adv-x="288" 
d="M75 0l110 700h82l-110 -700h-82zM359 704h-1h1zM359 704h-1q42 0 36 -49q0 -12 -3 -26q-9 -50 -31.5 -73t-63.5 -23l6 36q13 0 21.5 5.5t14 17t8.5 30.5q-23 0 -32.5 8.5t-7.5 27.5q0 2 0.5 5t0.5 4q8 37 51 37h1z" />
    <glyph glyph-name="Lslash" unicode="&#x141;" horiz-adv-x="562" 
d="M554 77v-1l-13 -77h-431l49 309l-105 -59l11 71l106 59l50 320h90l-42 -265l267 150l-11 -70l-267 -150l-45 -287h341z" />
    <glyph glyph-name="lslash" unicode="&#x142;" horiz-adv-x="363" 
d="M93 309l12 70l105 60l41 260h82l-33 -209l106 60l-11 -70l-106 -60l-66 -420h-82l58 369l-106 -60v-1v1z" />
    <glyph glyph-name="Nacute" unicode="&#x143;" horiz-adv-x="743" 
d="M673 700h86l-110 -700h-107l-270 579l-91 -579h-86l110 700h107l270 -579zM442 750l123 120h82l-135 -120h-70z" />
    <glyph glyph-name="nacute" unicode="&#x144;" horiz-adv-x="565" 
d="M220 500l2 -1l2 -58q59 69 171 69q98 0 133.5 -57t15.5 -183l-42 -270h-82l42 270q15 91 -8 131t-89 41q-73 1 -112.5 -40t-53.5 -132l-42 -270h-82l79 500h66zM327 549l135 150h85l-150 -150h-70z" />
    <glyph glyph-name="Ncedilla" unicode="&#x145;" horiz-adv-x="731" 
d="M667 700h86l-110 -700h-107l-270 579l-91 -579h-86l110 700h107l270 -579zM358 -46h-1h1zM358 -46h-1q42 0 36 -49q0 -12 -3 -26q-9 -50 -31.5 -73t-63.5 -23l6 36q13 0 21.5 5.5t14 17t8.5 30.5q-23 0 -32.5 8.5t-7.5 27.5q0 2 0.5 5t0.5 4q8 37 51 37h1z" />
    <glyph glyph-name="ncedilla" unicode="&#x146;" horiz-adv-x="566" 
d="M220 500l2 -1l2 -58q59 69 171 69q98 0 133.5 -57t15.5 -183l-42 -270h-82l42 270q15 91 -8 131t-89 41q-73 1 -112.5 -40t-53.5 -132l-42 -270h-82l79 500h66zM282 -47h-1h1zM282 -47h-1q42 0 36 -49q0 -12 -3 -26q-9 -50 -31.5 -73t-63.5 -23l6 36q19 0 29 12.5
t15 40.5q-23 0 -32.5 8.5t-7.5 27.5q0 2 0.5 5t0.5 4q8 37 51 37h1z" />
    <glyph glyph-name="Ncaron" unicode="&#x147;" horiz-adv-x="743" 
d="M673 700h86l-110 -700h-107l-270 579l-91 -579h-86l110 700h107l270 -579zM644 870l-117 -120h-82l-79 120h62l65 -79l89 79h62z" />
    <glyph glyph-name="ncaron" unicode="&#x148;" horiz-adv-x="565" 
d="M220 500l2 -1l2 -58q59 69 171 69q98 0 133.5 -57t15.5 -183l-42 -270h-82l42 270q15 91 -8 131t-89 41q-73 1 -112.5 -40t-53.5 -132l-42 -270h-82l79 500h66zM533 699l-116 -150h-82l-68 150h57l60 -103l92 103h57z" />
    <glyph glyph-name="Omacron" unicode="&#x14c;" horiz-adv-x="788" 
d="M508 720q175 0 240 -88t34 -282t-124 -282t-268 -88t-240 88t-34 282t124 282t268 88zM495 643q-127 0 -193.5 -69t-91.5 -224t20.5 -224t172.5 -69t193.5 69t91.5 224t-20.5 224t-172.5 69zM344 761l9 55h340l-9 -55h-340z" />
    <glyph glyph-name="omacron" unicode="&#x14d;" horiz-adv-x="575" 
d="M368 510q128 0 176 -62t26 -198q-22 -137 -89.5 -198.5t-194.5 -61.5q-128 0 -176 62t-26 198q22 137 89.5 198.5t194.5 61.5zM166 250q-16 -102 15 -147t116 -45t130 45t61 146q16 102 -15 147t-116 45q-86 0 -130 -44.5t-61 -146.5zM206 561l9 55h340l-9 -55h-340z" />
    <glyph glyph-name="Obreve" unicode="&#x14e;" horiz-adv-x="788" 
d="M508 720q175 0 240 -88t34 -282t-124 -282t-268 -88t-240 88t-34 282t124 282t268 88zM493 643q-127 0 -193.5 -69t-91.5 -224t20.5 -224t172.5 -69t193.5 69t91.5 224t-20.5 224t-172.5 69zM687 870q-10 -63 -51.5 -91.5t-124.5 -28.5q-82 0 -115 28.5t-23 91.5h63
q-6 -40 13.5 -57t70.5 -17q52 0 76 17t30 57h61z" />
    <glyph glyph-name="obreve" unicode="&#x14f;" horiz-adv-x="575" 
d="M368 510q128 0 176 -62t26 -198q-22 -137 -89.5 -198.5t-194.5 -61.5q-128 0 -176 62t-26 198q22 137 89.5 198.5t194.5 61.5zM165 251q-16 -102 15 -147t116 -45q86 0 130.5 45t60.5 146q16 102 -14 147t-116 45t-130.5 -44.5t-61.5 -146.5zM556 700q-13 -78 -56 -113.5
t-125 -35.5q-83 0 -114.5 35.5t-18.5 114.5h59q-9 -53 10.5 -76t72.5 -23q11 0 27 2q38 5 58.5 27.5t27.5 68.5h59v1v-1z" />
    <glyph glyph-name="Ohungarumlaut" unicode="&#x150;" horiz-adv-x="788" 
d="M508 720q175 0 240 -88t34 -282t-124 -282t-268 -88t-240 88t-34 282t124 282t268 88zM497 643q-127 0 -193.5 -69t-91.5 -224t20.5 -224t172.5 -69t193.5 69t91.5 224t-20.5 224t-172.5 69zM394 750l125 150h81l-141 -150h-65zM558 750l125 150h81l-141 -150h-65z" />
    <glyph glyph-name="ohungarumlaut" unicode="&#x151;" horiz-adv-x="583" 
d="M368 510q128 0 176 -62t26 -198q-22 -137 -89.5 -198.5t-194.5 -61.5q-128 0 -176 62t-26 198q22 137 89.5 198.5t194.5 61.5zM168 250q-16 -102 15 -147t116 -45t130 45t61 146q16 102 -15 147t-116 45q-86 0 -130 -44.5t-61 -146.5zM257 550l124 150h81l-140 -150h-65z
M421 550l124 150h81l-140 -150h-65z" />
    <glyph glyph-name="OE" unicode="&#x152;" horiz-adv-x="1135" 
d="M1196 627h-374l-36 -225h334l-11 -73h-334l-41 -257h374l-12 -73h-455l19 117q-79 -125 -240 -135q-31 -1 -64 0q-155 7 -212 95t-28 274q31 194 122.5 282t262.5 88q191 0 233 -138l18 118h455zM495 643q-127 0 -193.5 -69t-91.5 -224t20.5 -224t172.5 -69t193.5 69
t91.5 224t-20.5 224t-172.5 69z" />
    <glyph glyph-name="oe" unicode="&#x153;" horiz-adv-x="952" 
d="M556 206l1 -2q-6 -77 22.5 -116.5t102.5 -39.5q106 0 151 100h78q-60 -158 -238 -158q-133 0 -174 90q-64 -90 -213 -90q-128 0 -176 62t-26 198q22 137 89.5 198.5t194.5 61.5q150 0 185 -90q69 90 202 90q115 0 163.5 -68.5t26.5 -202.5l-5 -33h-384zM167 248
q-16 -102 14 -147t116 -45q85 0 130 45t62 146q16 102 -15 147t-116 45q-86 0 -130.5 -44.5t-60.5 -146.5zM747 449h-1q-81 0 -123.5 -48t-58.5 -142h304q15 98 -14.5 144t-106.5 46z" />
    <glyph glyph-name="Racute" unicode="&#x154;" horiz-adv-x="708" 
d="M440 267l1 1h-3h-210l-42 -267h-90l111 700h299q242 0 208 -219q-28 -172 -186 -206l111 -276h-95zM240 336h206q82 0 125 36t55 110q12 75 -20 110.5t-114 35.5h-206zM399 751l123 120h82l-135 -120h-70z" />
    <glyph glyph-name="racute" unicode="&#x155;" horiz-adv-x="360" 
d="M195 250v1l-39 -250h-82l79 500h66l3 -59q50 68 138 68h55l-12 -77h-55q-72 0 -104.5 -40t-48.5 -143zM231 551l135 150h85l-150 -150h-70z" />
    <glyph glyph-name="Rcedilla" unicode="&#x156;" horiz-adv-x="703" 
d="M434 267l1 1h-3h-210l-42 -267h-90l111 700h299q242 0 208 -219q-28 -172 -186 -206l111 -276h-95zM231 337h206q82 0 125 36t55 110q12 75 -20 110.5t-114 35.5h-206zM321 -44h-1h1zM321 -44h-1q40 0 36 -49q0 -4 -0.5 -8t-1.5 -9.5t-1 -8.5q-10 -50 -32.5 -73
t-63.5 -23l6 36q36 0 45 53q-23 0 -33 8.5t-8 27.5q1 2 1.5 5t0.5 4q8 37 51 37h1z" />
    <glyph glyph-name="rcedilla" unicode="&#x157;" horiz-adv-x="356" 
d="M195 250v1l-39 -250h-82l79 500h66l3 -59q50 68 138 68h55l-12 -77h-55q-72 0 -104.5 -40t-48.5 -143zM101 -45h-1h1zM101 -45h-1q41 0 37 -49q-2 -18 -4 -26q-9 -50 -31.5 -73t-63.5 -23l6 36q37 0 44 53q-23 0 -32.5 8.5t-7.5 27.5q1 2 1.5 5t0.5 4q8 37 50 37h1z" />
    <glyph glyph-name="Rcaron" unicode="&#x158;" horiz-adv-x="708" 
d="M437 263h-210l-42 -264h-90l111 700h299q123 0 173.5 -62t35.5 -156q-12 -74 -59.5 -130t-129.5 -77l114 -274h-95zM239 334h210q80 0 123.5 42t53.5 104q10 65 -19.5 105.5t-110.5 40.5h-210zM603 869l-117 -120h-82l-79 120h62l65 -79l89 79h62z" />
    <glyph glyph-name="rcaron" unicode="&#x159;" horiz-adv-x="362" 
d="M201 250v1l-39 -250h-82l79 500h66l3 -59q50 68 138 68h55l-12 -77h-55q-72 0 -104.5 -40t-48.5 -143zM443 701l-116 -150h-82l-68 150h57l59 -103l93 103h57z" />
    <glyph glyph-name="Sacute" unicode="&#x15a;" horiz-adv-x="648" 
d="M238 520l1 -1q-8 -49 32 -76t101.5 -41t122 -31.5t98 -61.5t25.5 -117q-18 -112 -88.5 -162.5t-208.5 -50.5t-192 52t-36 168h82q-13 -81 23.5 -116t133.5 -35q95 0 141 31t57 101q6 35 -9 60t-43 38.5t-65 25t-76 19.5t-75.5 22.5t-64 32.5t-40.5 51t-6 78
q17 112 85.5 162.5t201.5 50.5t184.5 -52t33.5 -168h-82q13 80 -22 115.5t-126 35.5q-89 0 -133 -30.5t-55 -100.5zM394 749l123 120h82l-135 -120h-70z" />
    <glyph glyph-name="sacute" unicode="&#x15b;" horiz-adv-x="492" 
d="M188 375l1 -1q-5 -30 15.5 -48.5t55 -25t74 -16.5t73 -22t52 -42.5t11.5 -77.5q-13 -80 -67.5 -116.5t-162.5 -36.5q-104 0 -144.5 38t-27.5 122h78q-9 -56 15 -80.5t89 -24.5t97 21t39 69q6 39 -23.5 59t-74 28.5t-89.5 19.5t-72.5 41.5t-18.5 84.5q11 75 62.5 109
t152.5 34q100 0 139.5 -35.5t27.5 -114.5h-74q8 51 -15.5 73t-84.5 22q-62 0 -91.5 -18.5t-36.5 -61.5zM282 549l135 150h85l-150 -150h-70z" />
    <glyph glyph-name="Scircumflex" unicode="&#x15c;" horiz-adv-x="648" 
d="M238 520l1 -1q-8 -49 32 -76t101.5 -41t122 -31.5t98 -61.5t25.5 -117q-18 -112 -88.5 -162.5t-208.5 -50.5t-192 52t-36 168h82q-13 -81 23.5 -116t133.5 -35q95 0 141 31t57 101q6 35 -9 60t-43 38.5t-65 25t-76 19.5t-75.5 22.5t-64 32.5t-40.5 51t-6 78
q17 112 85.5 162.5t201.5 50.5t184.5 -52t33.5 -168h-82q13 80 -22 115.5t-126 35.5q-89 0 -133 -30.5t-55 -100.5zM501 869l79 -120h-62l-64 79l-90 -79h-62l118 120h81z" />
    <glyph glyph-name="scircumflex" unicode="&#x15d;" horiz-adv-x="492" 
d="M188 375l1 -1q-5 -30 15.5 -48.5t55 -25t74 -16.5t73 -22t52 -42.5t11.5 -77.5q-13 -80 -67.5 -116.5t-162.5 -36.5q-104 0 -144.5 38t-27.5 122h78q-9 -56 15 -80.5t89 -24.5t97 21t39 69q6 39 -23.5 59t-74 28.5t-89.5 19.5t-72.5 41.5t-18.5 84.5q11 75 62.5 109
t152.5 34q100 0 139.5 -35.5t27.5 -114.5h-74q8 51 -15.5 73t-84.5 22q-62 0 -91.5 -18.5t-36.5 -61.5zM396 699l68 -150h-57l-59 103l-93 -103h-57l116 150h82z" />
    <glyph glyph-name="Scedilla" unicode="&#x15e;" horiz-adv-x="648" 
d="M286 -20q-117 7 -162.5 59.5t-28.5 159.5h82q-13 -81 23.5 -116t133.5 -35q95 0 141 31t57 101q6 35 -9 60t-43 38.5t-65 25t-76 19.5t-75.5 22.5t-64 32.5t-40.5 51t-6 78q12 75 46 121.5t93 69t148 22.5t140.5 -23t70.5 -71.5t7 -125.5h-82q13 80 -22 115.5t-126 35.5
q-89 0 -133 -30.5t-55 -100.5q-5 -32 10 -54.5t43.5 -34.5t65.5 -23t76 -19t75 -23.5t63.5 -35t40.5 -55t5 -82.5q-17 -109 -84.5 -159.5t-198.5 -52.5l-14 -31q4 -1 11 -2t23.5 -7.5t28.5 -15.5t20.5 -26t4.5 -38q-8 -53 -63 -81.5t-152 -28.5l7 42q135 0 145 68
q2 15 -6.5 26t-24.5 16t-31 7.5t-30 2.5z" />
    <glyph glyph-name="scedilla" unicode="&#x15f;" horiz-adv-x="492" 
d="M211 -10q-86 6 -119.5 44t-21.5 116h78q-9 -56 15.5 -80.5t89.5 -24.5t96.5 21t38.5 69q6 39 -23.5 59t-74 28.5t-89.5 19.5t-72.5 41.5t-18.5 84.5q12 75 63 109t152 34q100 0 139.5 -35.5t27.5 -114.5h-74q8 51 -15.5 73t-84.5 22q-62 0 -91.5 -18.5t-36.5 -61.5
q-5 -30 15.5 -48.5t55 -25t74 -16.5t73 -22t52 -42.5t11.5 -77.5q-12 -77 -62 -113.5t-148 -39.5l-19 -41q4 -1 11 -2t23.5 -7.5t28.5 -15.5t20.5 -26t4.5 -38q-8 -53 -63 -81.5t-152 -28.5l7 42q135 0 145 68q2 15 -6.5 26t-24.5 16t-31 7.5t-30 2.5z" />
    <glyph glyph-name="Scaron" unicode="&#x160;" horiz-adv-x="648" 
d="M238 520l1 -1q-8 -49 32 -76t101.5 -41t122 -31.5t98 -61.5t25.5 -117q-18 -112 -88.5 -162.5t-208.5 -50.5t-192 52t-36 168h82q-13 -81 23.5 -116t133.5 -35q95 0 141 31t57 101q6 35 -9 60t-43 38.5t-65 25t-76 19.5t-75.5 22.5t-64 32.5t-40.5 51t-6 78
q17 112 85.5 162.5t201.5 50.5t184.5 -52t33.5 -168h-82q13 80 -22 115.5t-126 35.5q-89 0 -133 -30.5t-55 -100.5zM597 869l-117 -120h-82l-79 120h62l65 -79l89 79h62z" />
    <glyph glyph-name="scaron" unicode="&#x161;" horiz-adv-x="492" 
d="M188 375l1 -1q-5 -30 15.5 -48.5t55 -25t74 -16.5t73 -22t52 -42.5t11.5 -77.5q-13 -80 -67.5 -116.5t-162.5 -36.5q-104 0 -144.5 38t-27.5 122h78q-9 -56 15 -80.5t89 -24.5t97 21t39 69q6 39 -23.5 59t-74 28.5t-89.5 19.5t-72.5 41.5t-18.5 84.5q11 75 62.5 109
t152.5 34q100 0 139.5 -35.5t27.5 -114.5h-74q8 51 -15.5 73t-84.5 22q-62 0 -91.5 -18.5t-36.5 -61.5zM488 698l-116 -150h-82l-68 150h57l60 -103l92 103h57z" />
    <glyph glyph-name="Tcedilla" unicode="&#x162;" horiz-adv-x="566" 
d="M256 0h-17l98 619h-218l12 81h526l-12 -81h-218l-98 -619h-24l-25 -51q4 -1 11 -2t23.5 -7.5t28.5 -15.5t20.5 -26t5.5 -38q-8 -53 -63 -81.5t-152 -28.5l7 42q135 0 145 68q2 15 -6.5 26t-24.5 16t-31 7.5t-30 2.5z" />
    <glyph glyph-name="tcedilla" unicode="&#x163;" horiz-adv-x="362" 
d="M199 6h1q-87 24 -71 131l48 303h-80l10 59h80l18 119h82l-18 -119h152l-10 -59h-152l-46 -294q-13 -78 74 -78h65l-10 -68h-93h-3l-25 -51q4 -1 11 -2t23.5 -7.5t28.5 -15.5t20.5 -26t5.5 -38q-8 -53 -63 -81.5t-152 -28.5l7 42q135 0 145 68q2 15 -6.5 26t-24.5 16
t-31 7.5t-30 2.5z" />
    <glyph glyph-name="Tcaron" unicode="&#x164;" horiz-adv-x="566" 
d="M656 700l-12 -81h-218l-98 -619h-90l98 619h-218l12 81h526zM555 870l-117 -120h-82l-79 120h62l65 -79l89 79h62z" />
    <glyph glyph-name="tcaron" unicode="&#x165;" horiz-adv-x="362" 
d="M213 146h1q-13 -78 74 -78h65l-10 -68h-93q-69 0 -100 36.5t-21 100.5l48 303h-80l10 59h80l18 119h82l-18 -119h152l-10 -59h-152zM390 707l1 2q40 0 36 -49q0 -4 -0.5 -8t-1.5 -9.5t-1 -8.5q-10 -53 -33 -77.5t-64 -24.5l5 36q36 0 46 58q-23 0 -32.5 8.5t-8.5 26.5
q1 1 1 4t1 5q9 37 51 37z" />
    <glyph glyph-name="Utilde" unicode="&#x168;" horiz-adv-x="715" 
d="M125 254l68 446h90l-70 -446q-17 -104 19.5 -150.5t133.5 -46.5t147.5 46.5t67.5 150.5l70 446h90l-70 -446q-23 -144 -98.5 -209t-218.5 -65t-197.5 65t-31.5 209zM318 760q8 50 36 77t66 27q33 0 57.5 -17t44 -34t40.5 -17q37 0 46 54h39q-8 -50 -36 -77t-66 -27
q-33 0 -57.5 17t-44 34t-40.5 17q-37 0 -46 -54h-39z" />
    <glyph glyph-name="utilde" unicode="&#x169;" horiz-adv-x="565" 
d="M425 0h-2l-3 58q-58 -68 -171 -68q-98 0 -133.5 57t-15.5 183l43 270h82l-43 -270q-14 -91 8.5 -131t89.5 -41q73 -1 112 40t53 132l43 270h82l-79 -500h-66zM213 600l-1 -1q8 52 38.5 85.5t66.5 33.5q26 0 47 -14.5t32 -31.5t25.5 -31.5t29.5 -14.5q17 0 30 17t18 47h43
q-8 -52 -38.5 -85.5t-66.5 -33.5q-26 0 -47 14.5t-31.5 31.5t-25 31.5t-29.5 14.5q-17 0 -30.5 -17t-17.5 -46h-43z" />
    <glyph glyph-name="Umacron" unicode="&#x16a;" horiz-adv-x="715" 
d="M125 254l68 446h90l-70 -446q-17 -104 19.5 -150.5t133.5 -46.5t147.5 46.5t67.5 150.5l70 446h90l-70 -446q-23 -144 -98.5 -209t-218.5 -65t-197.5 65t-31.5 209zM306 761l9 55h340l-9 -55h-340z" />
    <glyph glyph-name="umacron" unicode="&#x16b;" horiz-adv-x="565" 
d="M425 0h-2l-3 58q-58 -68 -171 -68q-98 0 -133.5 57t-15.5 183l43 270h82l-43 -270q-14 -91 8.5 -131t89.5 -41q73 -1 112 40t53 132l43 270h82l-79 -500h-66zM184 561l9 55h340l-9 -55h-340z" />
    <glyph glyph-name="Ubreve" unicode="&#x16c;" horiz-adv-x="715" 
d="M125 254l68 446h90l-70 -446q-17 -104 19.5 -150.5t133.5 -46.5t147.5 46.5t67.5 150.5l70 446h90l-70 -446q-23 -144 -98.5 -209t-218.5 -65t-197.5 65t-31.5 209zM649 870q-10 -63 -51.5 -91.5t-124.5 -28.5q-82 0 -115 28.5t-23 91.5h63q-6 -40 13.5 -57t70.5 -17
q52 0 76 17t30 57h61z" />
    <glyph glyph-name="ubreve" unicode="&#x16d;" horiz-adv-x="565" 
d="M425 0h-2l-3 58q-58 -68 -171 -68q-98 0 -133.5 57t-15.5 183l43 270h82l-43 -270q-14 -91 8.5 -131t89.5 -41q73 -1 112 40t53 132l43 270h82l-79 -500h-66zM534 700q-13 -78 -56 -113.5t-125 -35.5q-83 0 -114.5 35.5t-18.5 114.5h59q-9 -53 10.5 -76t72.5 -23
q11 0 27 2q38 5 58.5 27.5t27.5 68.5h59v1v-1z" />
    <glyph glyph-name="Uring" unicode="&#x16e;" horiz-adv-x="715" 
d="M125 254l68 446h90l-70 -446q-17 -104 19.5 -150.5t133.5 -46.5t147.5 46.5t67.5 150.5l70 446h90l-70 -446q-23 -144 -98.5 -209t-218.5 -65t-197.5 65t-31.5 209zM496 888h1q58 0 80.5 -23.5t14.5 -75.5q-7 -52 -37.5 -75.5t-89.5 -23.5q-58 0 -81 23.5t-15 75.5
t38.5 75.5t88.5 23.5zM472 732h1q35 0 51.5 13t21.5 44t-8 44t-48 13t-52 -13t-22 -44t8 -44t48 -13z" />
    <glyph glyph-name="uring" unicode="&#x16f;" horiz-adv-x="565" 
d="M425 0h-2l-3 58q-58 -68 -171 -68q-98 0 -133.5 57t-15.5 183l43 270h82l-43 -270q-14 -91 8.5 -131t89.5 -41q73 -1 112 40t53 132l43 270h82l-79 -500h-66zM380 722h1q58 0 80.5 -23.5t14.5 -75.5t-38.5 -75.5t-89.5 -23.5q-58 0 -80.5 23.5t-14.5 75.5t38.5 75.5
t88.5 23.5zM356 566h1q35 0 51.5 13t21.5 44t-8 44t-48 13t-52 -13t-22 -44t8 -44t48 -13z" />
    <glyph glyph-name="Uhungarumlaut" unicode="&#x170;" horiz-adv-x="715" 
d="M125 254l68 446h90l-70 -446q-17 -104 19.5 -150.5t133.5 -46.5t147.5 46.5t67.5 150.5l70 446h90l-70 -446q-23 -144 -98.5 -209t-218.5 -65t-197.5 65t-31.5 209zM357 750l125 150h81l-141 -150h-65zM521 750l125 150h81l-141 -150h-65z" />
    <glyph glyph-name="uhungarumlaut" unicode="&#x171;" horiz-adv-x="565" 
d="M425 0h-2l-3 58q-58 -68 -171 -68q-98 0 -133.5 57t-15.5 183l43 270h82l-43 -270q-14 -91 8.5 -131t89.5 -41q73 -1 112 40t53 132l43 270h82l-79 -500h-66zM236 550l124 150h81l-140 -150h-65zM400 550l124 150h81l-140 -150h-65z" />
    <glyph glyph-name="Uogonek" unicode="&#x172;" horiz-adv-x="715" 
d="M404 -18l-1 2q-32 -2 -49 -2q-143 0 -197.5 65t-32.5 209l71 446h90l-71 -446q-17 -104 19.5 -150.5t133.5 -46.5t147.5 46.5t67.5 150.5l71 446h90l-71 -446q-18 -114 -67.5 -177.5t-138.5 -85.5q-67 -48 -82 -104q-14 -49 26 -59q8 -2 18 -2q6 0 18 2q10 2 21 6t17 7
l5 3l-12 -75q-33 -20 -73 -20h-9q-39 3 -59 27.5t-18 59t24.5 74t61.5 70.5z" />
    <glyph glyph-name="uogonek" unicode="&#x173;" horiz-adv-x="565" 
d="M423 3l-3 55q-58 -68 -171 -68q-98 0 -133.5 57t-15.5 183l43 270h82l-43 -270q-14 -91 8.5 -131t89.5 -41q73 -1 112 40t53 132l43 270h82l-79 -500h-23q-71 -45 -93 -104q-19 -50 18 -65q10 -4 24 -4q7 0 17 2q7 1 14 3t12 4.5t9.5 4t6.5 3.5l2 1l-12 -75
q-33 -20 -73 -20h-9q-57 4 -72.5 50t16 105t95.5 98z" />
    <glyph glyph-name="Wcircumflex" unicode="&#x174;" horiz-adv-x="974" 
d="M543 700h107l51 -617l262 617h90l-305 -700h-115l-53 617l-240 -617h-115l-85 700h90l68 -616zM662 870l79 -120h-62l-64 79l-90 -79h-62l118 120h81z" />
    <glyph glyph-name="wcircumflex" unicode="&#x175;" horiz-adv-x="810" 
d="M626 0h-98l-53 438l-191 -438h-99l-85 500h82l65 -432l190 432h99l48 -433l203 433h82zM563 700l69 -150h-57l-60 103l-92 -103h-57l115 150h82z" />
    <glyph glyph-name="Ycircumflex" unicode="&#x176;" horiz-adv-x="610" 
d="M394 282h1l-44 -282h-86l44 282l-178 418h99l135 -335l240 335h95zM481 870l79 -120h-62l-64 79l-90 -79h-62l118 120h81z" />
    <glyph glyph-name="ycircumflex" unicode="&#x177;" horiz-adv-x="486" 
d="M226 6v-1l3 7l-141 488h79l112 -388l197 388h79l-240 -467q-12 -22 -29 -53q-49 -88 -79.5 -120t-76.5 -37q-22 -2 -36 -2h-55l9 59h52q13 0 19 1q29 4 49 28t58 97zM404 699l68 -150h-57l-59 103l-93 -103h-57l116 150h82z" />
    <glyph glyph-name="Ydieresis" unicode="&#x178;" horiz-adv-x="610" 
d="M394 282h1l-44 -282h-86l44 282l-178 418h99l135 -335l240 335h95zM356 845l-1 -1q59 0 50 -52t-65 -52q-58 0 -49 52q5 28 20 40.5t45 12.5zM529 844l-1 -1q30 0 42 -12.5t8 -39.5q-9 -52 -65 -52q-58 0 -49 52q5 28 20 40.5t45 12.5z" />
    <glyph glyph-name="Zacute" unicode="&#x179;" horiz-adv-x="617" 
d="M161 73h424l-11 -73h-531l9 59l504 568h-404l11 73h511l-9 -59zM374 750l123 120h82l-135 -120h-70z" />
    <glyph glyph-name="zacute" unicode="&#x17a;" horiz-adv-x="467" 
d="M138 64h311l-10 -64h-411l8 51l362 386h-291l10 64h391l-8 -51zM271 550l134 150h85l-149 -150h-70z" />
    <glyph glyph-name="Zdotaccent" unicode="&#x17b;" horiz-adv-x="625" 
d="M165 73h424l-11 -73h-531l9 59l504 568h-404l11 73h511l-9 -59zM453 850l-1 -1q30 0 42 -12.5t8 -39.5q-9 -52 -66 -52q-30 0 -41.5 12.5t-6.5 39.5q5 28 20 40.5t45 12.5z" />
    <glyph glyph-name="zdotaccent" unicode="&#x17c;" horiz-adv-x="468" 
d="M138 64h311l-10 -64h-411l8 51l362 386h-291l10 64h391l-8 -51zM344 658l-1 -1q58 0 49 -56t-66 -56t-48 56q4 30 20 43.5t46 13.5z" />
    <glyph glyph-name="Zcaron" unicode="&#x17d;" horiz-adv-x="617" 
d="M161 73h424l-11 -73h-531l9 59l504 568h-404l11 73h511l-9 -59zM581 870l-117 -120h-82l-79 120h62l65 -79l89 79h62z" />
    <glyph glyph-name="zcaron" unicode="&#x17e;" horiz-adv-x="468" 
d="M138 64h311l-10 -64h-411l8 51l362 386h-291l10 64h391l-8 -51zM477 700l-115 -150h-82l-69 150h57l60 -103l92 103h57z" />
    <glyph glyph-name="Aacutering" unicode="&#x1fa;" horiz-adv-x="654" 
d="M20 0h-1l361 700h35h43h43l133 -700h-94l-31 169h-315l-84 -169h-90zM227 238h1h269l-71 399zM514 887q61 -18 52 -78q-7 -40 -40.5 -62t-85.5 -22t-78.5 22t-19.5 62q6 40 39.5 62t85.5 22h3l66 67h59zM447 762q68 0 76 47q4 23 -12.5 35t-48.5 12q-67 0 -75 -47
q-4 -23 12 -35t48 -12z" />
    <glyph glyph-name="aacutering" unicode="&#x1fb;" horiz-adv-x="535" 
d="M404 58l-1 1q-56 -68 -177 -68q-97 0 -135 36.5t-25 117.5q14 89 74 129.5t179 40.5h119l5 26q9 61 -15.5 87.5t-89.5 26.5q-66 0 -98.5 -24.5t-41.5 -80.5h-78q14 84 68 122t160 38t148 -42.5t27 -136.5l-52 -331h-66zM147 149l-1 -1q-8 -51 16.5 -73t90.5 -22
q71 0 110.5 33.5t53.5 106.5q0 1 1 5.5t2 12.5t2 14l6 34h-96h-21q-78 -1 -116.5 -26.5t-47.5 -83.5zM440 703l-1 -1q46 -21 37 -83q-15 -95 -128 -95q-111 0 -96 95q14 95 127 95h15l68 67h66zM353 566q36 0 52.5 12t21.5 41t-8 41t-49 12t-52 -12t-21 -41t7.5 -41
t48.5 -12z" />
    <glyph glyph-name="AEacute" unicode="&#x1fc;" horiz-adv-x="903" 
d="M963 627l-1 1h-339l-36 -225h299l-11 -73h-299l-41 -257h339l-11 -73h-421l26 169h-244l-114 -169h-91l481 700l47 -3v3h427zM545 642l-273 -404h209zM590 751l123 120h82l-135 -120h-70z" />
    <glyph glyph-name="aeacute" unicode="&#x1fd;" horiz-adv-x="900" 
d="M503 206l-1 -1q-7 -82 22.5 -119.5t103.5 -37.5q58 0 92.5 23t58.5 77h78q-32 -83 -88 -121t-150 -38q-153 0 -176 120q-26 -62 -79 -91t-139 -29q-97 0 -135 36.5t-25 117.5q14 87 71 127.5t169 42.5h29h103l4 26q2 12 2 17q4 49 -21.5 71t-87.5 22q-65 0 -97 -23
t-40 -77h-78q14 84 68 122t160 38q140 0 160 -88q63 89 195 89q122 0 167 -64.5t23 -206.5l-5 -33h-384zM428 258h-111q-81 0 -120.5 -26t-48.5 -85q-2 -12 -2 -16q-2 -42 24 -60.5t85 -18.5q15 0 22 1q64 4 96.5 35.5t43.5 98.5zM692 449l-1 1q-79 0 -122 -45t-60 -145h304
q16 101 -12.5 145t-108.5 44zM473 549l135 150h85l-150 -150h-70z" />
    <glyph glyph-name="Oslashacute" unicode="&#x1fe;" horiz-adv-x="788" 
d="M655 780l-1 1h59l-45 -88q80 -35 107 -118.5t5 -223.5q-31 -194 -124 -282t-268 -88q-37 0 -77 5l-33 -65h-59l39 76q-98 29 -132.5 115t-10.5 238q31 194 124 282t268 88q60 0 112 -11zM581 634q-36 10 -87 10q-127 0 -193.5 -69t-91.5 -224q-19 -117 2.5 -184.5
t85.5 -92.5zM350 61h1q24 -3 53 -3q127 0 193.5 69t91.5 224q33 202 -59 262zM451 751l123 120h82l-135 -120h-70z" />
    <glyph glyph-name="oslashacute" unicode="&#x1ff;" horiz-adv-x="575" 
d="M368 510v-1q33 0 65 -5l33 65h44l-37 -74q67 -22 91 -82t7 -164q-22 -137 -89.5 -198.5t-194.5 -61.5q-33 0 -65 5l-33 -64h-44l37 74q-67 22 -91 82t-7 164q22 137 89.5 198.5t194.5 61.5zM166 249l-2 -1q-22 -141 51 -177l184 366q-19 3 -42 3q-86 0 -130.5 -44.5
t-60.5 -146.5zM436 425l-183 -365q20 -3 43 -3q85 0 129.5 45t61.5 146q22 143 -51 177zM309 549l135 150h85l-150 -150h-70z" />
    <glyph glyph-name="Scommaaccent" unicode="&#x218;" horiz-adv-x="648" 
d="M238 520l1 -1q-8 -49 32 -76t101.5 -41t122 -31.5t98 -61.5t25.5 -117q-18 -112 -88.5 -162.5t-208.5 -50.5t-192 52t-36 168h82q-13 -81 23.5 -116t133.5 -35q95 0 141 31t57 101q6 35 -9 60t-43 38.5t-65 25t-76 19.5t-75.5 22.5t-64 32.5t-40.5 51t-6 78
q17 112 85.5 162.5t201.5 50.5t184.5 -52t33.5 -168h-82q13 80 -22 115.5t-126 35.5q-89 0 -133 -30.5t-55 -100.5zM316 -47h-1h1zM316 -47h-1q42 0 36 -49q0 -12 -3 -26q-9 -50 -31.5 -73t-63.5 -23l6 36q19 0 29 12.5t15 40.5q-23 0 -32.5 8.5t-7.5 27.5q0 2 0.5 5t0.5 4
q8 37 51 37h1z" />
    <glyph glyph-name="scommaaccent" unicode="&#x219;" horiz-adv-x="479" 
d="M182 375l1 -1q-5 -30 15.5 -48.5t55 -25t74 -16.5t73 -22t52 -42.5t11.5 -77.5q-13 -80 -67.5 -116.5t-162.5 -36.5q-104 0 -144.5 38t-27.5 122h78q-9 -56 15 -80.5t89 -24.5t97 21t39 69q6 39 -23.5 59t-74 28.5t-89.5 19.5t-72.5 41.5t-18.5 84.5q11 75 62.5 109
t152.5 34q100 0 139.5 -35.5t27.5 -114.5h-74q8 51 -15.5 73t-84.5 22q-62 0 -91.5 -18.5t-36.5 -61.5zM231 -47h-1h1zM231 -47h-1q42 0 36 -49q0 -12 -3 -26q-9 -50 -31.5 -73t-63.5 -23l6 36q19 0 29 12.5t15 40.5q-23 0 -32.5 8.5t-7.5 27.5q0 2 0.5 5t0.5 4q8 37 51 37
h1z" />
    <glyph glyph-name="uni021A" unicode="&#x21a;" horiz-adv-x="566" 
d="M656 700l-12 -81h-218l-98 -619h-90l98 619h-218l12 81h526zM275 -45h-1h1zM275 -45h-1q41 0 37 -49q-2 -18 -4 -26q-6 -34 -18 -55t-31 -31t-46 -10l6 36q37 0 44 53q-23 0 -32.5 8.5t-7.5 27.5q1 2 1.5 5t0.5 4q8 37 50 37h1z" />
    <glyph glyph-name="uni021B" unicode="&#x21b;" horiz-adv-x="362" 
d="M213 146h1q-13 -78 74 -78h65l-10 -68h-93q-69 0 -100 36.5t-21 100.5l48 303h-80l10 59h80l18 119h82l-18 -119h152l-10 -59h-152zM210 -46h-1h1zM210 -46h-1q42 0 36 -49q0 -12 -3 -26q-9 -50 -31.5 -73t-63.5 -23l6 36q13 0 21.5 5.5t14 17t8.5 30.5q-23 0 -32.5 8.5
t-7.5 27.5q0 2 0.5 5t0.5 4q8 37 51 37h1z" />
    <glyph glyph-name="circumflex" unicode="&#x2c6;" horiz-adv-x="355" 
d="M329 700l69 -150h-57l-60 103l-92 -103h-57l115 150h82z" />
    <glyph glyph-name="caron" unicode="&#x2c7;" horiz-adv-x="355" 
d="M421 700l-115 -150h-82l-69 150h57l60 -103l92 103h57z" />
    <glyph glyph-name="breve" unicode="&#x2d8;" horiz-adv-x="405" 
d="M470 700q-13 -78 -56 -113.5t-125 -35.5q-83 0 -114.5 35.5t-18.5 114.5h59q-9 -53 10.5 -76t72.5 -23q11 0 27 2q38 5 58.5 27.5t27.5 68.5h59v1v-1z" />
    <glyph glyph-name="dotaccent" unicode="&#x2d9;" horiz-adv-x="203" 
d="M213 713l-1 -1q59 0 49 -56q-5 -29 -20 -42.5t-45 -13.5q-58 0 -49 56q5 30 20.5 43.5t45.5 13.5z" />
    <glyph glyph-name="ring" unicode="&#x2da;" horiz-adv-x="312" 
d="M269 719h1q58 0 81 -23.5t15 -75.5t-38.5 -75.5t-89.5 -23.5q-58 0 -80.5 23.5t-14.5 75.5t38 75.5t88 23.5zM246 563h1q35 0 51.5 13t21.5 44t-8 44t-48 13t-52.5 -13t-21.5 -44q-5 -31 8 -44t48 -13z" />
    <glyph glyph-name="ogonek" unicode="&#x2db;" horiz-adv-x="259" 
d="M145 9h2h47q-74 -41 -103 -102q-26 -54 7 -73q11 -7 30 -7q7 0 17 2q11 2 22 6t17 7l5 3l-12 -75q-33 -20 -73 -20h-9q-63 4 -74 61q-12 60 39 127q34 43 85 71z" />
    <glyph glyph-name="tilde" unicode="&#x2dc;" horiz-adv-x="405" 
d="M140 600l-1 -1q8 52 38.5 85.5t66.5 33.5q26 0 47 -14.5t32 -31.5t25.5 -31.5t29.5 -14.5q17 0 30 17t18 47h43q-8 -52 -38.5 -85.5t-66.5 -33.5q-26 0 -47 14.5t-31.5 31.5t-25 31.5t-29.5 14.5q-17 0 -30.5 -17t-17.5 -46h-43z" />
    <glyph glyph-name="hungarumlaut" unicode="&#x2dd;" horiz-adv-x="434" 
d="M133 550l124 150h81l-140 -150h-65zM297 550l124 150h81l-140 -150h-65z" />
    <glyph glyph-name="Wgrave" unicode="&#x1e80;" horiz-adv-x="974" 
d="M543 700h107l51 -617l262 617h90l-305 -700h-115l-53 617l-240 -617h-115l-85 700h90l68 -616zM563 870h1l89 -120h-67l-101 120h78z" />
    <glyph glyph-name="wgrave" unicode="&#x1e81;" horiz-adv-x="810" 
d="M626 0h-98l-53 438l-191 -438h-99l-85 500h82l65 -432l190 432h99l48 -433l203 433h82zM460 700l87 -150h-70l-103 150h86z" />
    <glyph glyph-name="Wacute" unicode="&#x1e82;" horiz-adv-x="974" 
d="M543 700h107l51 -617l262 617h90l-305 -700h-115l-53 617l-240 -617h-115l-85 700h90l68 -616zM555 750l123 120h82l-135 -120h-70z" />
    <glyph glyph-name="wacute" unicode="&#x1e83;" horiz-adv-x="810" 
d="M626 0h-98l-53 438l-191 -438h-99l-85 500h82l65 -432l190 432h99l48 -433l203 433h82zM446 550l134 150h85l-149 -150h-70z" />
    <glyph glyph-name="Wdieresis" unicode="&#x1e84;" horiz-adv-x="974" 
d="M543 700h107l51 -617l262 617h90l-305 -700h-115l-53 617l-240 -617h-115l-85 700h90l68 -616zM537 845l-1 -1q59 0 50 -52t-65 -52q-58 0 -49 52q5 28 20 40.5t45 12.5zM710 844l-1 -1q30 0 42 -12.5t8 -39.5q-9 -52 -65 -52q-58 0 -49 52q5 28 20 40.5t45 12.5z" />
    <glyph glyph-name="wdieresis" unicode="&#x1e85;" horiz-adv-x="810" 
d="M626 0h-98l-53 438l-191 -438h-99l-85 500h82l65 -432l190 432h99l48 -433l203 433h82zM432 654v-1q30 0 41.5 -14t6.5 -45q-10 -58 -67 -58q-30 0 -41 14t-6 45q9 59 66 59zM598 653v-1q30 0 41 -14t6 -45q-9 -58 -66 -58q-30 0 -41 14t-6 45q9 59 66 59z" />
    <glyph glyph-name="uni1E9E" unicode="&#x1e9e;" horiz-adv-x="625" 
d="M429 720l-1 3q109 0 155.5 -40t37.5 -121q-4 -20 -6 -29q-14 -59 -55 -90t-116 -42q94 -11 129 -57t21 -138q-17 -107 -69.5 -155.5t-151.5 -48.5q-24 0 -49.5 5t-38.5 10l-13 5l10 64q46 -16 82 -16q67 0 102 33t47 107q13 81 -25.5 115.5t-141.5 34.5l10 69
q135 0 166 67q12 15 17 42q9 57 -19 85t-99 28q-135 0 -168 -118q-5 -14 -10 -42l-77 -491h-82l75 476q1 4 1.5 9.5t1.5 8.5t1 5q20 112 84.5 166.5t181.5 54.5z" />
    <glyph glyph-name="Ygrave" unicode="&#x1ef2;" horiz-adv-x="610" 
d="M394 282h1l-44 -282h-86l44 282l-178 418h99l135 -335l240 335h95zM382 870h1l89 -120h-67l-101 120h78z" />
    <glyph glyph-name="ygrave" unicode="&#x1ef3;" horiz-adv-x="486" 
d="M226 6v-1l3 7l-141 488h79l112 -388l197 388h79l-240 -467q-12 -22 -29 -53q-49 -88 -79.5 -120t-76.5 -37q-22 -2 -36 -2h-55l9 59h52q13 0 19 1q29 4 49 28t58 97zM302 699l86 -150h-70l-102 150h86z" />
    <glyph glyph-name="endash" unicode="&#x2013;" horiz-adv-x="609" 
d="M612 302l-10 -68h-520l10 68h520z" />
    <glyph glyph-name="emdash" unicode="&#x2014;" horiz-adv-x="829" 
d="M832 302l-10 -68h-740l10 68h740z" />
    <glyph glyph-name="quoteleft" unicode="&#x2018;" horiz-adv-x="226" 
d="M189 459h-1q-54 0 -48 66q0 11 4 35q13 76 43 111t83 35l-7 -45q-25 0 -39.5 -20t-21.5 -64q55 0 49 -54q0 -5 -2 -15q-10 -49 -60 -49z" />
    <glyph glyph-name="quoteright" unicode="&#x2019;" horiz-adv-x="226" 
d="M219 699h1q28 0 39.5 -16t9.5 -50q-1 -11 -5 -35q-13 -76 -43 -111t-83 -35l7 45q25 0 39.5 20t22.5 64q-56 0 -50 54q2 10 2 15q12 49 60 49z" />
    <glyph glyph-name="quotesinglbase" unicode="&#x201a;" horiz-adv-x="203" 
d="M114 107h1q28 0 39.5 -16t9.5 -50q-1 -11 -5 -35q-13 -76 -43 -111t-83 -35l7 45q25 0 39.5 20t22.5 64q-56 0 -50 54l3 15q10 49 59 49z" />
    <glyph glyph-name="quotedblleft" unicode="&#x201c;" horiz-adv-x="394" 
d="M189 459h-1q-54 0 -48 66q0 11 4 35q13 76 43 111t83 35l-7 -45q-25 0 -39.5 -20t-21.5 -64q55 0 49 -54q0 -5 -2 -15q-10 -49 -60 -49zM356 459h-1q-54 0 -48 66q0 11 4 35q13 76 43 111t83 35l-7 -45q-25 0 -39.5 -20t-21.5 -64q55 0 49 -54q0 -5 -2 -15
q-10 -49 -60 -49z" />
    <glyph glyph-name="quotedblright" unicode="&#x201d;" horiz-adv-x="394" 
d="M219 699h1q28 0 39.5 -16t9.5 -50q-1 -11 -5 -35q-13 -76 -43 -111t-83 -35l7 45q25 0 39.5 20t22.5 64q-56 0 -50 54q2 10 2 15q12 49 60 49zM388 699h1q28 0 39.5 -16t9.5 -50q-1 -11 -5 -35q-13 -76 -43 -111t-83 -35l7 45q25 0 39.5 20t22.5 64q-56 0 -50 54
q2 10 2 15q12 49 60 49z" />
    <glyph glyph-name="quotedblbase" unicode="&#x201e;" horiz-adv-x="394" 
d="M125 107h1q28 0 39.5 -16t9.5 -50q-1 -11 -5 -35q-13 -76 -43 -111t-83 -35l7 45q25 0 39.5 20t22.5 64q-56 0 -50 54l3 15q10 49 59 49zM294 107h1q28 0 39.5 -16t9.5 -50q-1 -11 -5 -35q-13 -76 -43 -111t-83 -35l7 45q25 0 39.5 20t22.5 64q-56 0 -50 54l3 15
q10 49 59 49z" />
    <glyph glyph-name="ellipsis" unicode="&#x2026;" horiz-adv-x="578" 
d="M118 113v-1q30 0 41.5 -14t6.5 -45q-9 -58 -66 -58q-30 0 -41.5 14t-6.5 45t20.5 45t45.5 14zM305 112v-1q30 0 41.5 -14t6.5 -45q-10 -58 -66 -58q-58 0 -48 59q9 59 66 59zM492 111v-1q30 0 41.5 -14t6.5 -45q-10 -58 -67 -58q-30 0 -41 14t-6 45q9 59 66 59z" />
    <glyph glyph-name="perthousand" unicode="&#x2030;" horiz-adv-x="1269" 
d="M1107 389q85 1 116 -45t15 -148q-17 -102 -62 -148t-130 -46t-115.5 46t-14.5 148t61 148t130 45zM1054 55v-1q53 0 81.5 32.5t40.5 106.5t-6 107t-71 33t-81.5 -32.5t-40.5 -106.5q-11 -74 7 -106.5t70 -32.5zM334 710q85 1 116 -45t14 -148q-16 -102 -61 -148t-130 -46
t-116 46t-15 148q17 102 62 148t130 45zM281 374v-1q53 0 81.5 32.5t40.5 106.5q11 74 -7 107t-70 33q-53 0 -82 -32.5t-40 -106.5q-12 -74 6 -106.5t71 -32.5zM254 -30h-76l560 760h76zM722 389q85 1 116 -45t15 -148q-17 -102 -62 -148t-130 -46t-115.5 46t-14.5 148
t61 148t130 45zM669 56v-1q53 0 82 32.5t40 106.5q12 74 -6 107t-71 33t-81.5 -32.5t-40.5 -106.5q-11 -74 7 -106.5t70 -32.5z" />
    <glyph glyph-name="guilsinglleft" unicode="&#x2039;" horiz-adv-x="299" 
d="M241 450h80l-148 -190l86 -200h-80l-90 200z" />
    <glyph glyph-name="guilsinglright" unicode="&#x203a;" horiz-adv-x="299" 
d="M119 450h80l92 -190l-154 -200h-80l150 200z" />
    <glyph glyph-name="lira" unicode="&#x20a4;" horiz-adv-x="680" 
d="M663 73l-2 -2l-12 -73h-557l14 87q104 36 124 113q6 13 11 48h-111l9 51h111l11 75h-111l8 51h111l13 77q17 108 70 160.5t153 58.5q23 2 44 0q97 -4 132.5 -56t18.5 -163h-78q13 83 -10.5 119.5t-90.5 36.5q-18 0 -26 -1q-57 -5 -87.5 -41.5t-42.5 -112.5
q-6 -34 -12 -77h275l-8 -51h-275q-7 -36 -12 -75h275l-8 -51h-275q-7 -38 -11 -46q-20 -89 -132 -128h481z" />
    <glyph glyph-name="Euro" unicode="&#x20ac;" horiz-adv-x="879" 
d="M767 240l-2 1h90q-50 -137 -138.5 -198.5t-236.5 -61.5q-162 0 -235 68t-67 215h-97l8 51h93q1 10 5 37q1 7 3.5 21t4.5 22h-93l8 51h98q42 144 136.5 210.5t254.5 66.5q159 0 228 -61.5t65 -198.5h-90q0 97 -50 139.5t-166 42.5q-113 0 -181.5 -48t-101.5 -152h318
l-8 -51h-323q-6 -28 -8 -43q-4 -27 -5 -37h283l-8 -51h-279q-1 -107 52.5 -156.5t168.5 -49.5q110 0 173 42.5t100 140.5z" />
    <glyph glyph-name="trademark" unicode="&#x2122;" horiz-adv-x="1221" 
d="M595 700l-11 -73h-183l-68 -427h-78l68 427h-183l11 73h444zM754 587l-61 -387h-78l79 500h40h38h29l103 -405l231 405h25h38h40l-79 -500h-78l62 392l-224 -385l-4 -7h-59l-5 27z" />
    <glyph glyph-name="minus" unicode="&#x2212;" horiz-adv-x="427" 
d="M415 234h-330l10 68h330z" />
    <glyph glyph-name="approxequal" unicode="&#x2248;" horiz-adv-x="697" 
d="M71 149l1 1l11 66q48 39 96 50t88.5 0t81.5 -31t81 -40t79.5 -31t84 1t88.5 51l-11 -67q-48 -40 -96 -51.5t-89 -1t-82 30.5t-81 40t-79 31t-83.5 0.5t-88.5 -48.5v-2zM102 337l1 1l10 66q48 39 96 50t89 0t82 -31t81 -40t79 -31t83.5 1t88.5 51l-10 -67
q-48 -40 -96 -51.5t-89 -1t-82 30.5t-81 40t-79 31t-83.5 0.5t-88.5 -48.5v-2z" />
    <glyph glyph-name="notequal" unicode="&#x2260;" horiz-adv-x="672" 
d="M217 0l72 139h-204l10 68h228l59 115h-270l11 68h294l57 109h52l-57 -109h205l-11 -68h-230l-59 -115h271l-10 -68h-296l-72 -139h-50z" />
    <glyph glyph-name="lessequal" unicode="&#x2264;" horiz-adv-x="525" 
d="M448 0h-400l11 73h400zM126 497l1 1l433 203l-14 -83l-355 -167l301 -167l-13 -83l-368 203l2 10l12 73z" />
    <glyph glyph-name="greaterequal" unicode="&#x2265;" horiz-adv-x="525" 
d="M476 0h-400l11 73h400zM186 700l1 -1l368 -203l-2 -10l-11 -73l-2 -10l-432 -203l13 83l355 167l-303 167z" />
    <glyph glyph-name="uniE132" unicode="&#xe132;" horiz-adv-x="464" 
d="M155 0h-82l79 500h82zM195 -112v-1q87 0 99 78l85 534h82l-86 -542q-10 -64 -52.5 -100.5t-111.5 -36.5h-80l11 68h53zM147 549l135 150h85l-150 -150h-70zM374 549l135 150h85l-150 -150h-70z" />
    <glyph glyph-name="uniE133" unicode="&#xe133;" horiz-adv-x="909" 
d="M217 700h90l-110 -700h-90zM357 210h-2l3 23h86l-3 -23q-13 -82 11.5 -117.5t92.5 -35.5t103 35.5t49 117.5l77 490h90l-77 -490q-19 -119 -79 -172.5t-174 -53.5q-112 0 -154 53.5t-23 172.5zM220 750l123 120h82l-135 -120h-70zM778 750l123 120h82l-135 -120h-70z" />
    <glyph glyph-name="a.alt1" horiz-adv-x="586" 
d="M257 -10v-2q-113 0 -154 62t-19 198q22 137 82.5 198.5t172.5 61.5q122 0 160 -74l25 65h66l-59 -367l-21 -133h-66l-3 65q-61 -74 -184 -74zM286 56q80 0 123 46t59 146q16 101 -13 146.5t-108 45.5t-122 -45.5t-59 -146.5t12.5 -146.5t107.5 -45.5z" />
    <glyph glyph-name="aacute.alt1" horiz-adv-x="586" 
d="M257 -10v-2q-113 0 -154 62t-19 198q22 137 82.5 198.5t172.5 61.5q122 0 160 -74l25 65h66l-59 -367l-21 -133h-66l-3 65q-61 -74 -184 -74zM286 56q80 0 123 46t59 146q16 101 -13 146.5t-108 45.5t-122 -45.5t-59 -146.5t12.5 -146.5t107.5 -45.5zM304 548l135 150h85
l-150 -150h-70z" />
    <glyph glyph-name="aacutering.alt1" horiz-adv-x="586" 
d="M257 -10v-2q-113 0 -154 62t-19 198q22 137 82.5 198.5t172.5 61.5q122 0 160 -74l25 65h66l-59 -367l-21 -133h-66l-3 65q-61 -74 -184 -74zM285 55q79 0 122 45.5t60 146.5q16 101 -13 146.5t-108 45.5t-122 -45.5t-59 -146.5q-17 -101 12 -146.5t108 -45.5zM470 700
l-1 -1q48 -21 37 -83q-15 -95 -127 -95q-55 0 -80 24t-17 71q15 95 127 95h15l69 67h66zM386 563q36 0 52 12t21 41t-8 41t-49 12t-52 -12t-21 -41t8 -41t49 -12z" />
    <glyph glyph-name="abreve.alt1" horiz-adv-x="586" 
d="M257 -10v-2q-113 0 -154 62t-19 198q22 137 82.5 198.5t172.5 61.5q122 0 160 -74l25 65h66l-59 -367l-21 -133h-66l-3 65q-61 -74 -184 -74zM287 57q79 0 122 45.5t59 146.5t-13 146.5t-108 45.5t-122 -45.5t-59 -146.5t13 -146.5t108 -45.5zM549 698h-1
q-12 -78 -55.5 -113.5t-125.5 -35.5t-113.5 35.5t-19.5 114.5h59q-8 -53 11.5 -76t72.5 -23q11 0 27 2q38 4 58 27t28 69h58v1z" />
    <glyph glyph-name="acircumflex.alt1" horiz-adv-x="586" 
d="M257 -10v-2q-113 0 -154 62t-19 198q22 137 82.5 198.5t172.5 61.5q122 0 160 -74l25 65h66q-12 -72 -29.5 -184t-29.5 -183q-16 -105 -21 -133h-66l-3 65q-61 -74 -184 -74zM286 56q80 0 123 46t59 146q16 101 -13 146.5t-108 45.5t-122 -45.5t-59 -146.5t12.5 -146.5
t107.5 -45.5zM433 698l68 -150h-57l-59 103l-93 -103h-57l116 150h82z" />
    <glyph glyph-name="acute.case" horiz-adv-x="288" 
d="M133 550l123 120h82l-135 -120h-70z" />
    <glyph glyph-name="adieresis.alt1" horiz-adv-x="586" 
d="M257 -10v-2q-113 0 -154 62t-19 198q22 137 82.5 198.5t172.5 61.5q122 0 160 -74l25 65h66l-59 -367l-21 -133h-66l-3 65q-61 -74 -184 -74zM286 54q79 0 122 45.5t59 146.5q17 101 -12 146.5t-108 45.5t-122 -45.5t-60 -146.5q-16 -101 13 -146.5t108 -45.5zM294 657
l-1 -1q58 0 48 -59q-9 -58 -66 -58q-30 0 -41.5 14t-6.5 45q10 59 67 59zM459 656v-1q30 0 41.5 -14t6.5 -45q-9 -58 -66 -58q-30 0 -41.5 14t-6.5 45t20.5 45t45.5 14z" />
    <glyph glyph-name="agrave.alt1" horiz-adv-x="586" 
d="M257 -10v-2q-113 0 -154 62t-19 198q22 137 82.5 198.5t172.5 61.5q122 0 160 -74l25 65h66l-59 -367l-21 -133h-66l-3 65q-61 -74 -184 -74zM285 56q80 0 123 46t59 146q16 101 -13 146.5t-108 45.5t-122 -45.5t-59 -146.5t12.5 -146.5t107.5 -45.5zM325 698l86 -150
h-70l-102 150h86z" />
    <glyph glyph-name="amacron.alt1" horiz-adv-x="586" 
d="M257 -10v-2q-113 0 -154 62t-19 198q22 137 82.5 198.5t172.5 61.5q122 0 160 -74l25 65h66l-59 -367l-21 -133h-66l-3 65q-61 -74 -184 -74zM286 56q80 0 123 46t59 146q16 101 -13 146.5t-108 45.5t-122 -45.5t-59 -146.5t12.5 -146.5t107.5 -45.5zM188 559l9 55h340
l-9 -55h-340z" />
    <glyph glyph-name="aogonek.alt1" horiz-adv-x="586" 
d="M444 2l-3 62q-61 -74 -184 -74v-2q-113 0 -154 62t-19 198.5t82.5 198t172.5 61.5q122 0 160 -74l25 65h66l-59 -367l-21 -133h-23q-71 -45 -93 -104q-20 -51 17 -66q11 -4 24 -4q7 0 17 2q7 1 14 3t12 4.5t9.5 4t6.5 3.5l2 1l-12 -75q-33 -20 -73 -20h-9q-58 4 -73 50.5
t17 106t98 97.5zM288 56q53 0 89.5 20t59 62.5t33.5 109.5q16 101 -13 146.5t-108 45.5q-53 0 -89.5 -20t-58.5 -62.5t-33 -109.5q-16 -101 12.5 -146.5t107.5 -45.5z" />
    <glyph glyph-name="aring.alt1" horiz-adv-x="586" 
d="M257 -10v-2q-113 0 -154 62t-19 198q22 137 82.5 198.5t172.5 61.5q122 0 160 -74l25 65h66l-59 -367l-21 -133h-66l-3 65q-61 -74 -184 -74zM287 56q80 0 123 46t59 146q16 101 -13 146.5t-108 45.5t-122 -45.5t-59 -146.5t12.5 -146.5t107.5 -45.5zM414 720h1
q58 0 80.5 -23.5t14.5 -75.5t-38.5 -75.5t-89.5 -23.5q-58 0 -80.5 23.5t-14.5 75.5t38.5 75.5t88.5 23.5zM390 564h1q35 0 51.5 13t21.5 44t-8 44t-48 13t-52.5 -13t-21.5 -44q-5 -31 8 -44t48 -13z" />
    <glyph glyph-name="atilde.alt1" horiz-adv-x="586" 
d="M257 -10v-2q-113 0 -154 62t-19 198q22 137 82.5 198.5t172.5 61.5q122 0 160 -74l25 65h66l-59 -367l-21 -133h-66l-3 65q-61 -74 -184 -74zM287 56q80 0 123 46t59 146q16 101 -13 146.5t-108 45.5t-122 -45.5t-59 -146.5t12.5 -146.5t107.5 -45.5zM225 573
q9 51 39 84.5t66 33.5q26 0 47 -14.5t31.5 -31.5t25 -31.5t29.5 -14.5q17 0 30.5 17t18.5 47h43q-9 -52 -39 -85.5t-66 -33.5q-26 0 -47 14.5t-32 31.5t-25.5 31.5t-29.5 14.5q-17 0 -30 -16.5t-18 -46.5h-43v-1v1z" />
    <glyph glyph-name="breve.case" horiz-adv-x="405" 
d="M464 670q-11 -63 -52.5 -91.5t-123.5 -28.5q-83 0 -115.5 28.5t-22.5 91.5h63q-7 -40 12.5 -57t70.5 -17t75.5 17t31.5 57h61z" />
    <glyph glyph-name="caron.case" horiz-adv-x="368" 
d="M429 670l-117 -120h-82l-79 120h62l64 -79l90 79h62z" />
    <glyph glyph-name="circumflex.case" horiz-adv-x="368" 
d="M330 670l79 -120h-62l-65 79l-89 -79h-62l118 120h81z" />
    <glyph glyph-name="commaaccent" horiz-adv-x="180" 
d="M82 -46h-1h1zM82 -46h-1q42 0 36 -49q0 -12 -3 -26q-9 -50 -31.5 -73t-63.5 -23l6 36q19 0 29 12.5t15 40.5q-23 0 -32.5 8.5t-7.5 27.5q0 2 0.5 5t0.5 4q8 37 51 37h1z" />
    <glyph glyph-name="dieresis.case" horiz-adv-x="377" 
d="M213 709l-1 -1q58 0 49 -52q-7 -52 -65 -52q-30 0 -41.5 12.5t-7.5 39.5q9 53 66 53zM386 708l-2 -1q59 0 50 -52q-7 -52 -65 -52q-30 0 -41.5 12.5t-7.5 39.5q9 53 66 53z" />
    <glyph glyph-name="dotaccent.case" horiz-adv-x="203" 
d="M205 659l-1 -1q58 0 49 -52q-7 -52 -65 -52q-30 0 -41.5 12.5t-7.5 39.5q9 53 66 53z" />
    <glyph glyph-name="grave.case" horiz-adv-x="275" 
d="M229 670h1l89 -120h-67l-101 120h78z" />
    <glyph glyph-name="hungarumlaut.case" horiz-adv-x="427" 
d="M132 550l120 120h78l-131 -120h-67zM292 550l120 120h78l-131 -120h-67z" />
    <glyph glyph-name="tilde.case" horiz-adv-x="405" 
d="M136 580q8 50 36.5 77t66.5 27q26 0 47.5 -10.5t33 -23.5t27.5 -23.5t33 -10.5q38 0 47 54h39q-8 -50 -36.5 -77t-66.5 -27q-26 0 -47.5 10.5t-33 23.5t-27.5 23.5t-33 10.5q-38 0 -47 -54h-39z" />
    </font>
</defs>
</svg>
